<mxfile host="65bd71144e">
    <diagram id="NWdUYow-o01eu9OOlqPb" name="Seite-1">
        <mxGraphModel dx="4260" dy="1765" grid="1" gridSize="10" guides="1" tooltips="1" connect="1" arrows="1" fold="1" page="1" pageScale="1" pageWidth="1654" pageHeight="1169" math="0" shadow="0">
            <root>
                <mxCell id="0"/>
                <mxCell id="1" parent="0"/>
                <mxCell id="18" value="" style="verticalLabelPosition=bottom;verticalAlign=top;html=1;shape=mxgraph.basic.rect;fillColor2=none;strokeWidth=2;size=20;indent=5;fillStyle=auto;fillColor=none;gradientColor=none;strokeColor=#00CC00;dashed=1;dashPattern=8 8;" parent="1" vertex="1">
                    <mxGeometry x="1210" y="90" width="640" height="850" as="geometry"/>
                </mxCell>
                <mxCell id="75" value="" style="verticalLabelPosition=bottom;verticalAlign=top;html=1;shape=mxgraph.basic.rect;fillColor2=none;strokeWidth=2;size=20;indent=5;fillStyle=auto;fillColor=none;strokeColor=#6c8ebf;dashed=1;dashPattern=8 8;" vertex="1" parent="1">
                    <mxGeometry y="90" width="1170" height="850" as="geometry"/>
                </mxCell>
                <mxCell id="45" value="" style="edgeStyle=none;html=1;strokeWidth=4;entryX=1;entryY=1;entryDx=0;entryDy=0;" parent="1" source="4" target="94" edge="1">
                    <mxGeometry relative="1" as="geometry">
                        <mxPoint x="1026.8841406250003" y="250" as="targetPoint"/>
                    </mxGeometry>
                </mxCell>
                <mxCell id="4" value="" style="shape=image;verticalLabelPosition=bottom;labelBackgroundColor=default;verticalAlign=top;aspect=fixed;imageAspect=0;image=data:image/png,iVBORw0KGgoAAAANSUhEUgAAAgAAAAIACAYAAAD0eNT6AAAgAElEQVR4Xu2dBdRsR5W23wmQEDRYIGhw90AguAQS3GdwG9xmcAYbZHB3GdwtuLtlkOAEggcNmgRNIBD+9cL+5m++uTe3u7865+w6+6m1et2b3O46ez+7us97qnbt+ifRIAABCEAAAhAoR+CfynmMwxCAAAQgAAEICAHAIIAABCAAAQgUJIAAKBh0XIYABCAAAQggABgDEIAABCAAgYIEEAAFg47LEIAABCAAAQQAYwACEIAABCBQkAACoGDQcRkCEIAABCCAAGAMQAACEIAABAoSQAAUDDouQwACEIAABBAAjAEIQAACEIBAQQIIgIJBx2UIQAACEIAAAoAxAAEIQAACEChIAAFQMOi4DAEIQAACEEAAMAYgAAEIQAACBQkgAAoGHZchAAEIQAACCADGAAQgAAEIQKAgAQRAwaDjMgQgAAEIQAABwBiAAAQgAAEIFCSAACgYdFyGAAQgAAEIIAAYAxCAAAQgAIGCBBAABYOOyxCAAAQgAAEEAGMAAhCAAAQgUJAAAqBg0HEZAhCAAAQggABgDEAAAhCAAAQKEkAAFAw6LkMAAhCAAAQQAIwBCEAAAhCAQEECCICCQcdlCEAAAhCAAAKAMQABCEAAAhAoSAABUDDouAwBCEAAAhBAADAGIDBPAieQdCJJJ5a0q6QTStpFkv//8SUdT9JZJR0r6VuS/iTpj5KOlnSUpD/Ey/+fBgEIzJAAAmCGQcWlMgR8Yz+VpNPEn6eQ5NfJJZ1M0klCBFgIWADsHC8LgJ0knS0EwDc3CQCLAAuA30s6RtJvJf1S0m8k/VrSkZKOkHS4pN9J+ksZ4jgKgRkRQADMKJi4MmsCvoGfVtIZJJ1e0h6SThf/79QhAE4pabcQABYHvsm3aBYAv4qb/2YB4P9vcfAzST+W9P14L6KgBXn6gMCABBAAA8KlawhsgYCn632D9zT9WeLPM0s6YwgA/5tv9p7Kn7J52cAzAT9fEACHSvqOpG9L8t8tGmgQgEAyAgiAZAHBnNIEPG2/p6RzSjp3/On/9ss3fM8C9NA8Y+CZAOcWWAB4ieHr8aeFArMDPUQRG2dPAAEw+xDjYHICJ421+PNJOr8k/2kB4Kd+/9scmpcHvhaCwELAfz9E0mGRYzAHH/EBAt0RQAB0FzIMngEBJ+OdSdIFJV1E0oUlnVeSp/i9dj/n5pyBb4QA+KqkL0s6OHII/jpnx/ENAtkIIACyRQR75kzAGfp+wt9L0sUlXUjS2SNbf85+b883Jw96JuArkr4k6YshDrzLgAYBCAxMAAEwMGC6h0Bk7F9M0qUlXTKe+HeHzP8ScC2Cn8ZswEGSPiXp87FEACYIQGAgAgiAgcDSbXkC/m55mn9vSZeJlxP75rKuP1SAnUDoJYJPxuvTkn4oieWBoYjTb1kCCICyocfxgQhs3Ph907+CpMvGNH8vGfwDYVm5Wxcj8lbCT0j6aIgBhMDKGPkABLZPAAHA6IBAOwIu0rOPpCtLumJk9zvhj7Y+AZci/q6kj0j6kKQDo97A+j3ySQhA4G8EEAAMBAhsnYBL8V5C0tUkXVXSOaLu/tZ7pocNAi445MJCH5D0PkmflfQL8EAAAusTQACsz45PQsC19r2Vb39J+0WGvw/foQ1HwOcTuI7AeyS9O3YQ+DwCGgQgsCIBBMCKwHg7BIKAD9K5lqRrxpY+H8pDG4+A6wl8TtI7Jb0jlgnGuzpXgsAMCCAAZhBEXBiVgG/03sp3HUnXiOI9oxrAxf6BwA8kvUvS2yR9Jg4iAhEEILAEAQTAEpB4CwQiX8Ylem8g6Xox9e9jdmnTE/DRxS4m9BZJB0TJYbYNTh8XLEhOAAGQPECYl4KAK/h5P/+NYq3f2f60fAR8HLFzA94oyfUDjshnIhZBIA8BBECeWGBJTgI+ie/6km4cFfx46s8Zpw2rPBvgssJvkPTmOI0wt8VYB4GJCCAAJgLPZdMT8P59Z/jfVNIN40je9EZj4P8S8DHEb5L0mlgecD0BGgQgsEAAAcBwgMD/JeApf1fxu7mkK0kiw7/PUeKdAh+W9KqoJsiSQJ9xxOqBCCAABgJLt90S8Pq+p/xvGVP+u3TrCYabgAsIeUngFbEk4DwBGgQgQCVAxgAE/oGAj+b1U/8tJDnjnzYfAt+S9MqYDfAZAzQIlCfADED5IQCAIHB+SbePZL8zQmWWBH4UyYEvknTwLD3EKQisQAABsAIs3jpLAieQdFFJd5B0XUmu60+bLwGfH/BWSS+U9AVJx8zXVTyDwHETQAAwQioT2DVO77uTpH0l7VYZRiHfj5T0fknPj9MFjyrkO65C4H8JIAAYDFUJ+NAeZ/jfJTL+OcSn1kjwoUIflfTc2Cng/6ZBoBQBBECpcONsEPApfn7iv5uky0g6IWRKEjha0iclPTtmBDhVsOQwqOs0AqBu7Kt67pv/1STdI6b/XfCHVpeACwQdKOmZkt4nCRFQdyyU8xwBUC7kpR12GV/f/O/Fzb/0ONjs/IYIeHqIAJcTpkFg9gQQALMPMQ4GARf08Zr/vWPNnyd/hsYiAYsA5wQ8JXICXECIBoFZE0AAzDq8OBcEjhdP/PeJtX8O9GFobIuAn/y9O+DJsSzwFzBBYM4EEABzji6+bRDwPn8/+Xuf/0nBAoHjIPDbqBPgmQDXCaBBYLYEEACzDS2OBYFzS7qnpH+RdEqoQGAJAodLeq2kZ0j6xhLv5y0Q6JIAAqDLsGH0kgT2lOQiP7eRdLolP8PbIGACP5X00igW5KOFaRCYHQEEwOxCikNB4LSSbh2FfiwEaBBYlYBv/C4U9DJJP1v1w7wfAtkJIACyRwj71iHgvf43keSkv/Ot0wGfgUAQ+FokBb6eGgGMibkRQADMLaL44zF9RUkPjT8Z44yJrRD4q6SPSHpU/On/pkFgFgT4cZxFGHFigcB54snfSX+eCaBBYKsEXB3QSYHeHnjIVjvj8xDIQgABkCUS2NGCwB6R9HdHSf47DQKtCBwm6QWRFOi/0yDQPQEEQPchxIEg4OI+fuq/nyTPAtAg0JqAn/6fGLMBlAtuTZf+RieAABgdORcciMClJT1M0tUlMa4Hgly8W6//v1fSIyX9T3EWuD8DAvxQziCIuKAzxQE/t5N0CnhAYEACR0h6sSQfHPTDAa9D1xAYnAACYHDEXGBgAieWdMuY+j/bwNeiewiYwHdjKeAVkn4PEgj0SgAB0GvksHuDwKUkPVzSfiCBwIgE3iPpEZI+NeI1uRQEmhJAADTFSWcjE3B533tE5v+pRr42l6tN4FexI+CZUTa4Ng2875IAAqDLsGG0pJ0k3SAK/lwIIhCYgMCXo0DQAZKOneD6XBICWyKAANgSPj48IYFzSnqQpJtJ2mVCO7h0XQJ/lPRqSY+V9K26GPC8VwIIgF4jV9tu7/m/fST+eQcADQJTEfBOANcGeJEkagNMFQWuuxYBBMBa2PjQxAT2isS/a01sB5eHgAm8IxICDwIHBHoigADoKVrYagInjyN+/02Sj/ylQWBqAj4q+GlxdPCvpzaG60NgWQIIgGVJ8b4sBC4bT/9XzWIQdkBA0gdiFuAT0IBALwQQAL1ECjtNYLfY9ncvSWz7Y0xkIuBtga4O6G2BR2YyDFsgsD0CCADGRk8ELhdP/1fpyWhsLUPggzEL8PEyHuNo1wQQAF2Hr5TxJ5N0d0n35um/VNx7ctazAE+R9CxJv+nJcGytSQABUDPuPXq9t6T/pORvj6ErZbNLBHucfrqU1zjbJQEEQJdhK2f0rpLuLOkBZP6Xi31vDntHwOMlPU/SUb0Zj721CCAAasW7V2/PH2v/N+7VAewuReANkQtwcCmvcbY7AgiA7kJW0uCbx7TqOUp6j9O9EfhOCAAfF0yDQFoCCIC0ocGwIHDqqPnvBMCdoQKBDggcEycF/hcnBXYQrcImIgAKB78T1y8fT/9X6sRezISACXwqxu17wQGBrAQQAFkjg10mcDxJd5X0EEm7gwQCHRFwMSAfEuQSwRwS1FHgKpmKAKgU7f58PWMk//1rf6ZjMQREMiCDIDUBBEDq8JQ3bt+YRt2nPAkA9Ejg6zF+X9+j8dg8fwIIgPnHuFcPjx91/x9M5b9eQ1jebk/9P1XSE6gMWH4spASAAEgZFoySdKaY/r89NCDQMYG3xizAFzv2AdNnSgABMNPAzsAtH/jjkqo+/pcGgV4JHBI1AV7bqwPYPV8CCID5xrZnzzwu7ybpYZJO07Mj2F6egJcBnhTLAL8vTwMAqQggAFKFA2OCgIv/+OnfIoAGgd4JvC7Gs2cDaBBIQwABkCYUGLJA4FLxg3l1qEBgBgQOivH8zhn4ggszIoAAmFEwZ+TKbSMB8Cwz8glX6hI4PPIAninpr3Ux4Hk2AgiAbBHBnhNJ8ta/+0vyVkAaBHon4Ju+b/6PkGQxQINACgIIgBRhwIgFAj7x7+GSbgEVCMyIgLcDWgB8YUY+4UrnBBAAnQdwhua7+p8FwGVm6Bsu1SXgG78TW99WFwGeZyOAAMgWEexx3X//UJ4BFBCYEYFfxAzAs2fkE650TgAB0HkAZ2b+rpIeJOkBknaemW+4U5vAn6MewKMlUQ+g9lhI4z0CIE0oMESST//z0z/lfxkOcyTwihjf352jc/jUHwEEQH8xm7PFF431/+vO2Ul8K0vgfbEMcGBZAjieigACIFU4yhtz1XhCIgGw/FCYJYAvxfh+yyy9w6nuCCAAugvZrA2+efxAeisgDQJzI/CTmAF4wdwcw58+CSAA+ozbXK2+TwiAk8zVQfwqTeBoSY+S9DhJx5YmgfMpCCAAUoQBIyR5LHr/v08AZFwyJOZK4CkxC/CbuTqIX/0Q4Ie2n1jN3VKXAPYOgPvN3VH8K03gJTHOf1CaAs6nIIAASBEGjJC0R8wA3AkaEJgxgQNiBuDLM/YR1zohgADoJFAFzDx3CICbFvAVF+sS+GDMAHyiLgI8z0IAAZAlEtixVwiAa4ECAjMm8OmYAXj3jH3EtU4IIAA6CVQBM68YAsB/0iAwVwIHxwzAG+fqIH71QwAB0E+s5m7pNUMAXGLujuJfaQLfixmAl5WmgPMpCCAAUoQBIyTdOATA+aEBgRkT+GnMADx/xj7iWicEEACdBKqAmT4AyHUAzlTAV1ysS+CImAF4el0EeJ6FAAIgSySw454hAE4JCgjMmICPAn6EpCfO2Edc64QAAqCTQBUw894xNXrSAr7iYl0Cf4px/ti6CPA8CwEEQJZIYMcDYgZgV1BAYMYEfAaAK176TAAaBCYlgACYFD8XXyDw4PhhPD5UIDBzAl4CsAigQWBSAgiASfFz8QUCPgTIP4qMSYbF3AkgAOYe4U7848e2k0AVMNM3f+8CoEFg7gQQAHOPcCf+IQA6CVQBMxEABYKMi38jgABgIKQggABIEQaMiOl/ZgAYChUIIAAqRLkDHxEAHQSpiInMABQJNG4yA8AYyEEAAZAjDljx9wRAZgAYCRUIMANQIcod+IgA6CBIRUxEABQJNG4yA8AYyEEAAZAjDljBDABjoA4BZgDqxDq1pwiA1OEpZRwzAKXCXdpZBEDp8OdxHgGQJxbVLUEAVB8BdfxHANSJdWpPEQCpw1PKOARAqXCXdhYBUDr8eZxHAOSJRXVLEADVR0Ad/xEAdWKd2lMEQOrwlDIOAVAq3KWdRQCUDn8e5xEAeWJR3RIEQPURUMd/BECdWKf2FAGQOjyljEMAlAp3aWcRAKXDn8d5BECeWFS3BAFQfQTU8R8BUCfWqT1FAKQOTynjEAClwl3aWQRA6fDncR4BkCcW1S1BAFQfAXX8RwDUiXVqTxEAqcNTyjgEQKlwl3YWAVA6/HmcRwDkiUV1SxAA1UdAHf8RAHVindpTBEDq8JQyDgFQKtylnUUAlA5/HucRAHliUd0SBED1EVDHfwRAnVin9hQBkDo8pYxDAJQKd2lnEQClw5/HeQRAnlhUtwQBUH0E1PEfAVAn1qk9RQCkDk8p4xAApcJd2lkEQOnw53EeAZAnFtUtQQBUHwF1/EcA1Il1ak8RAKnDU8o4BECpcJd2FgFQOvx5nEcA5IlFdUsQANVHQB3/EQB1Yp3aUwRA6vCUMg4BUCrcpZ1FAJQOfx7nEQB5YlHdEgRA9RFQx38EQJ1Yp/YUAZA6PKWMQwCUCndpZxEApcOfx3kEQJ5YVLcEAVB9BNTxHwFQJ9apPUUApA5PKeMQAKXCXdpZBEDp8OdxHgGQJxbVLUEAVB8BdfxHANSJdWpPEQCpw1PKOARAqXCXdhYBUDr8eZxHAOSJRXVLEADVR0Ad/xEAdWKd2lMEQOrwlDIOAVAq3KWdRQCUDn8e5xEAeWJR3RIEQPURUMd/BECdWKf2FAGQOjyljEMAlAp3aWcRAKXDn8d5BECeWFS3BAFQfQTU8R8BUCfWqT1FAKQOTynjEAClwl3aWQRA6fDncR4BkCcW1S1BAFQfAXX8RwDUiXVqTxEAqcNTyjgEQKlwl3YWAVA6/HmcRwDkiUV1SxAA1UdAHf8RAHVindpTBEDq8JQyDgFQKtylnUUAlA5/HucRAHliUd0SBED1EVDHfwRAnVin9hQBkDo8pYxDAJQKd2lnEQClw5/HeQRAnlhUtwQBUH0E1PEfAVAn1qk9RQCkDk8p4xAApcJd2lkEQOnw53EeAZAnFtUtQQBUHwF1/EcA1Il1ak8RAKnDU8o4BECpcJd2FgFQOvx5nEcA5IlFdUsQANVHQB3/EQB1Yp3aUwRA6vCUMg4BUCrcpZ1FAJQOfx7nEQB5YlHdEgRA9RFQx38EQJ1Yp/YUAZA6PKWMQwCUCndpZxEApcOfx3kEQJ5YVLcEAVB9BNTxHwFQJ9apPUUApA5PKeMQAKXCXdpZBEDp8OdxHgGQJxbVLUEAVB8BdfxHANSJdWpPEQCpw1PKOARAqXCXdhYBUDr8eZxHAOSJRXVLEADVR0Ad/xEAdWKd2lMEQOrwlDIOAVAq3KWdRQCUDn8e5xEAeWJR3RIEQPURUMd/BECdWKf2FAGQOjyljEMAlAp3aWcRAKXDn8d5BECeWFS3BAFQfQTU8R8BUCfWqT1FAKQOTynjEAClwl3aWQRA6fDncR4BkCcW1S1BAFQfAXX8RwDUiXVqTxEAqcNTyjgEQKlwl3YWAVA6/HmcRwDkiUV1SxAA1UdAHf8RAHVindpTBEDq8JQyDgFQKtylnUUAlA5/HucRAHliUd0SBED1EVDHfwRAnVin9hQBkDo8pYxDAJQKd2lnEQClw5/HeQRAnlhUtwQBUH0E1PEfAVAn1qk9RQCkDk8p4xAApcJd2lkEQOnw53EeAZAnFtUtQQBUHwF1/EcA1Il1ak8RAKnDU8o4BECpcJd2FgFQOvx5nEcA5IlFdUsQANVHQB3/EQB1Yp3aUwRA6vCUMg4BUCrcpZ1FAJQOfx7nEQB5YlHdEgRA9RFQx38EQJ1Yp/YUAZA6PKWMQwCUCndpZxEApcOfx3kEQJ5YVLcEAVB9BNTxHwFQJ9apPUUApA5PKeMQAKXCXdpZBEDp8OdxHgGQJxbVLUEAVB8BdfxHANSJdWpPEQCpw1PKOARAqXCXdhYBUDr8eZxHAOSJRXVLEADVR0Ad/xEAdWKd2lMEQOrwlDIOAVAq3KWdRQCUDn8e5xEAeWJR3RIEQPURUMd/BECdWKf2FAGQOjyljEMAlAp3aWcRAKXDn8d5BECeWFS3BAFQfQTU8R8BUCfWqT1FAKQOTynjEAClwl3aWQRA6fDncR4BkCcW1S1BAFQfAXX8RwDUiXVqTxEAqcNTyjgEQKlwl3YWAVA6/HmcRwDkiUV1SxAA1UdAHf8RAHVindpTBEDq8JQyDgFQKtylnUUAlA5/HucRAHliUd0SBED1EVDHfwRAnVin9hQBkDo8pYxDAJQKd2lnEQClw5/HeQRAnlhUtwQBUH0E1PEfAVAn1qk9RQCkDk8p4xAApcJd2lkEQOnw53EeAZAnFtUtQQBUHwF1/EcA1Il1ak8RAKnDU8o4BECpcJd2FgFQOvx5nEcA5IlFdUsQANVHQB3/EQB1Yp3aUwRA6vA0N+74knaVdGJJx5N0tKSj4s9jm19ttQ4RAKvx4t39EsggAHaSdML4PfCff5H0+/g9+HO/aLF8FQIIgFVo9ffek0g6s6Q948/TSTqppBOFAPijpD9IOkLSDyR9T9K3Jf1iAlcRABNA55KTEJhKAOwu6dySzirpjJJOHr8Fu4QA8G/BbyT9RNKhkn4o6UeSfjcJJS46OAEEwOCIJ7mAFf3ZJV1F0j7xhT+LpFNJ8izA5uYvvr/oFgCfl/RRSV+Q9PMRrUcAjAibS01KYGwB4Bv/RSVdUdIlJJ1N0h4xA7AZhJ/+/b23APDrE5LeG3+fepZw0qDN8eIIgPlF9TSSrizpOpIuK+lMklaJ868lfU3S+yW9XtLBIyFCAIwEmstMTmBMAXA+STeRdDVJ/ruf+pdtXhb4fgiAt0v6jKRfLfth3pefwCo3hvzeYKFv/jeWdIf4su+8BSReBniXpGdL+uwW+ln2owiAZUnxvt4JjCUALiLprpKuJ8m/Des2LwF8RdJrJB0g6cfrdsTnchFAAOSKx1as8Vq/b/63lXT+rXS08FkvDXxE0hPjz0bdbrMbBMCQdOk7E4ExBICn++8V0/67NXL+W5JeIOlVkg5r1CfdTEgAATAh/IaX9hrfrSTdJdb3Gnb9t67eIsk/Wl9s3fFCfwiAAeHSdSoCQwsAr/P7+3SNAbz+pqSnxmyAlwtpHRNAAHQcvDDdGbxe739QJPoM4dGRkt4g6WmRHzDENRAAQ1Clz4wEhhQAnv27X8wGerfPEO2Tkh4XeULeSUTrlAACoNPALZh9AUkPkHSj7WT1tvLQOQHPlPScgRKBEACtIkU/2QkMJQC8y+duku6+xTX/HfHz0uCbJD1B0ld39Gb+PS8BBEDe2Cxj2Ski4e+eks6wzAe2+B7nA/hG7W2CrRsCoDVR+stKYCgBcIX4fnr9f+jmRMBnSHph1BEZ+nr0PwABBMAAUEfs8tLxhfcWnzGatwB5/e9Zklqv/yEAxogg18hAYAgB4AJffvK/T9T7GMNPbxW2L14SoHVIAAHQYdDCZJfy9Ha/h4709L9B6q3xpXehoJYNAdCSJn1lJjCEAPAef3+HvBNorOadAI+S9HxJFAkai3rD6yAAGsIcuStn/vvm78x/1/Ufq30jfmhe2/iCCIDGQOkuLYEhBMANJD1c0oVG9NqFgnzztwj46YjX5VKNCCAAGoGcoJtLxo14/5Gv7QQgf+GdANRS9SMARg4kl5uMQGsB4NnA+8YDgc//GLO5TLC/u58a86Jcqw0BBEAbjlP04hu/v3gWAmM33/z9I2Yx0KohAFqRpJ/sBFoLAG/389P//Sdw3OWB/d199wTX5pJbJIAA2CLACT9+w/jieRvg2M1JgP7St6wLjgAYO4pcbyoCrQWAt//5++MkwLGbtwH62t4WSOuMAAKgs4AtmHvz+OKdYwIXXhQzAD4utFVDALQiST/ZCbQWAD7wy9+f203guI8P97VdHpjWGQEEQGcB2yQAPO13zglc8JfdX3p/+Vs1BEArkvSTmYDzZiwAHtnQyHPF9/GmDftctiufD2B/EADLEkv0PgRAomCsaIor//mm2ergn1Uu72OC/aX3scGtGgKgFUn6yUzgT/HdeUxDI5357+/P9Rv2uWxXPi7c137jsh/gfXkIIADyxGJVS1z/3zMAF1v1gw3e78OB/KX/UoO+Nrrwlkb7M+aWxobm0xUEliLgxFl/d3zCZqu2d3x3xt4RZPs/H4Lmba2coZ/xCCAAxmPd+kpXjx+SS7XueIn+3hlf+s8u8d5l3/LA8MeHG9EgMFcCrqDp2TNX1GzVXALY4vlKrTpcoR9v/7Og8XZAWmcEEACdBWzBXH/Z/aX3l3/s5hKg/tIf2PDCLmFqf1zSlAaBuRLwzhl/d7yTplWb8mHA54JY0Hy4lTP0Mx4BBMB4rFtfaZ/4Idm3dcdL9OdDgfyl95+tmrcw+YfRW5poEJgrge/Hd+clDR28XojnizTsc9muhngYWPbavG+LBBAAWwQ44cf3ii/9tSawwU/+vln7y9+q+VwDzwCMcaphK5vpBwKrEvhyCIADVv3gcbz/X+K7c56GfS7b1TvCn4OW/QDvy0MAAZAnFqtacsG4CbsG+NjNa/+eAXAuQKt2i/gRm6KuQSsf6AcCOyIwxJr5beK34Cw7uvgA/24h44eBrwzQN10OTAABMDDgAbs/d9wwp9j76+x/f+m9G6BV8xYm9znmYSatbKcfCCxL4AMhnj+x7AeWeJ8PBPPs2WmXeG/rt7wm/PEhYbTOCCAAOgvYgrl7xg3z1hO44P3/ngFwPYBWzbkMFgDObaBBYK4ELJr93fliQwf/PQTAyRv2uWxXL4vv7aHLfoD35SGAAMgTi1UtOX186e+46gcbvH+I8p/ezuinmP0a2EcXEMhK4BVxw/xuQwMfFH3u3LDPZbt6QQianyz7Ad6XhwACIE8sVrVkygNADosfHH/5W7XzRp83adUh/UAgIYFnxzj/ZSPbfNO3cLYImOL3fIiDwRqhoZsdEZhiwOzIJv59OQLeL+8vvvfPj92Oilrmj5f010YXn3JGo5ELdAOBHRJ4bAgAlwRu0U4TvwN3a9HZGn08OWYAfrvGZ/nIxAQQABMHYAuXt/L3mrmV/xSt9Rd/V0kPk/SAiZ5kpmDINWsR+HN8Z/+rods+CMgPAjdr2OcqXbUWNKtcm/dukQACYIsAJ/y4Y/fguGmeYAI7hkj+uW/8mJ1kAn+4JASGJvCzeFp+bsMLTXkOwDExE2hB02omsCEautoRAQTAjgjl/ndP+3kW4NQTmOkaAL52ywIg3tHgPr3DgQaBuRFwESCP7zc3dMxJs54BmOJMEOcx2B/nNdA6JIAA6DBoCyb/c3wBp6gA9um49nsaIrxG/JhdspP6DKMAACAASURBVGGfdAWBLARcL983zI81NMh1QCwAXBdk7HZI+PO6sS/M9doQQAC04ThVL1eJL//lJjDAWwG9n/mVDa998fDn2g37pCsIZCHwhvjOHNzQoLvGd2b3hn0u29XHw58PLvsB3peLAAIgVzxWtebC8eV3Fb2x25Hx5X9awwt7J4CfkHwuAA0CcyPwnPjO/LyRYztFEvBDJU1xjLaXMvwQ4MqgtA4JIAA6DNqCyT44x9N/U9ww/yLpcZIeJemPjTD6R+yB8Tphoz7pBgIZCPxe0mMkPUlSqy2ATpa1YJ5iK7CZvjAEwI8zAMaG1QkgAFZnlukTvklubJ3z08DY7XnxA/DThhe+Xfyonalhn3QFgakJfDO+K69uaIi/IxYA/s6M3Y6V5Dogj5R09NgX53ptCCAA2nCcspd7xyzAySYw4o3xo/bVhte+WvjDmQANodLV5ATeF98VH6XdqvngLAuAKZYAfxP+PKWVM/QzPgEEwPjMW1/xVnHDPFvrjpfozyea+QeoZRKQdzR4WcNnnNMgMBcCLpvt74rLaLdqV40+L9OqwxX68VkGXv9/+Qqf4a3JCCAAkgVkDXOm3Dr3g/gBeskadm/vI17X/I9Y15zicJOGrtAVBP5GwKWzXSzHU+auBtiq3T7E8hTLZZ8JAfCuVs7Qz/gEEADjM299xUvETdhCYOzm5D8nNbkcqJOcWrUpf9ha+UA/ENgg8PW4WbbcLz+1UPaN3zMAFgK0TgkgADoN3ILZZw0B4KWAKdpr4vpOcmrVrhRPNldo1SH9QGBCAm+Km+VXGtpw/viO3Lhhn6t05al/L2l8b5UP8d5cBBAAueKxjjU+FdBfRCcDTtE+FT9uLSsCTpndPAVDrjlvAk6U83e05Yl5LpblPi82EbohfJrIlbqXRQD0H3tv//MJei4G4hP1xm4uauJaAC5y4q1BLZoPN/q3yAXYrUWH9AGBiQh4j7ynyr1nvlXzd/4e8Z0/VatOV+jHOQ3+zjunodV3foXL89ZWBBAArUhO28+Ua+b+AXhW7Af+VUMM14opzr0a9klXEBibgGfG/KTuszNaNZf9df2Pu0iaov7Hj8KnF7VyiH6mIYAAmIZ766tePb6QU5wIZl/eHk85n2vo2DnCp5s37JOuIDA2gWfEd+Pwhhf2EcAWFT4JcIo2xEFgU/hR/poIgHkMAZ8E5r3zPhlsiuZjTj3NeUDDi7vK4b2iLDDLAA3B0tVoBLzn3zdq1wBo2W4S3/fztex0hb68m8Hfd+9uoHVMAAHQcfAWTD+xpAdLuq8kr5+P3X4d64FPbVwWdP/4AeV44LEjyvVaEHhvjF8nyrZqzvNxwq/zfpwAPHZzHYMnS3q0pN+NfXGu15YAAqAtzyl784FAftrwiXpTtJfF9Q9teHHvBvDMhmudM1YbgqWrwQn4RunpfxcAajn9P/W235/F99zngNA6J8CPaucBXDB/37hZTlEW1GZ8LH4YPtwQ6fEl3UnSQySdrmG/dAWBoQl4f7ynyS2MW7Yrx/f88i07XaGvz8b3nAqAK0DL+lYEQNbIrG7XueKLOVUegNc7XRHQ652tjgc2hUvHD54THWkQ6IXAW+P7+MWGBvu47DtKepCkPRr2u0pXbwhhc/AqH+K9OQkgAHLGZR2rpi4N+pd42vHaYMvqYKeIcwHuOdGa5zqx4DO1CfikPBfK8atl8R9P/3s27NaSjjcB4j9Jcp7PYyTZR1rnBBAAnQdwk/muB+A8gDNO5JaTnXx9Jz+1bFNXPWvpC33Nn4C3w/p78I7Grk693XeoXQ2NMdHdsgQQAMuS6uN9U+cBONnpiZH89IeGyM4QTz7/Ksl5ATQIZCXg5D8vgzn57ycNjTyRJM+C3U/SKRv2u0pXPvjHwubdq3yI9+YlgADIG5t1LDtPfEH/eZ0PN/qM9wj7R+KQRv25G4/TW0b1s7M37JeuINCawLdjjfyVjTvO8N32oUb+bn+1sW90NxEBBMBE4Ae6rPcFPzDWzJ0wNEVz0pN/JJwE1bJNXeyopS/0NU8Cf5X06hAA32rs4nXje3WRxv0u250Te58Wib6u+0GbAQEEwAyCuMkF75n3Ddh76Kdo/nHwD4UToFomCu0syTkO/zFhjsMUPLlmPwR+EAlyL5Z0TEOzTxbFf3xA1skb9rtKVz7UyL8r/73Kh3hvbgIIgNzxWce6q8UX1dvnpmpDbIGyLz4D3T9CN5rKMa4LgeMg8PoYn61L5Pqp3+PeswBTtaESfKfyh+tSXW2WY8D1wV09z/XCp2r+AXQRFOcDtGw+H8CzAF7mmGqnQ0t/6Gs+BPz07zoYfvr3drmWzTk9/k6ft2WnK/ZlcePv9NdW/BxvT0yAGYDEwVnTNOcB+BAd1wv3Hvop2u/jiGDvCGh5RLB98Y+gj0K1wJniKNQpeHLN3ARcA+O1kh4l6RuNTT1VZP7fXZLP/JiiHRFLek9vXNdgCl+45gIBBMA8h0OGQ3RcEtjTli4R3LI5F+BWUQ3tbC07pi8IrEnAmf/e9veqxmv/Nsclf/09utKatrX4GNv/WlBM2AcCIGFQGpjkimE+HdAVw6baN/9LSX5ieJakIxv4tNiF/fMygP2bardDY5forlMCR0l6SZyG6WWAls3HYPvJ3zN6p27Z8Qp9ua6BzzOwwGlZ4XMFE3jrUAQQAEORnbZfPyW7aI5rhk+5Vv6+eHr5n8Y4PG6vH+uiF2rcN91BYBUCX4gx/rZVPrTke53I66d/J/ZO1X4UuQ3O/m+d2zCVT1w3CCAA5jsUfCqgfzyuOqGLPjrU2wF9dGjLLYF2yYeh+MnIh6NMleswIVounYCAK196bPvYX4/1ls1b/+4cuTynbdnxin19IH5HPrni53h7BwQQAB0EaU0TMyQP2XTXQ3f28EFr+nFcH7tc/Dj5iFQaBMYm8P4YfwcOcOG9YobrWgP0vWyXQybzLmsD7xuQAAJgQLgJur5x/EB5a+BUzQVEniTphZL8g9Ky+SnJhY+842Gqwkct/aGvfgh8P2a3vP7f8sQ/E3C2/x0k3VeSz8GYqnnLn2cRfQQwbYYEEAAzDOqCSxeML/ANJnTT5VHfLOmRkr40gB0+G8AHpPisAB+YQoPA0AR+J+nlIWyHSIy7cGx1dZ7LlL/RB8Tvx1eGBkr/0xCYcnBN43Gtq54kThC7z4QniJn4oZKeIOmlkpw13brtFz9Ue7fumP4gsA0CnvL3k7GXAFq3XSXdRtL9Je3ZuvMV+nN+w5Mjv8GChzZDAgiAGQZ1k0tTnyFuc7yVyNOIjx6okpiPR/Wuh3tMvOth/qMJD73Vz0l/rvjnAjmtm5frHiLJy3dTbeG1T5T+bR3ZhP0hABIGpbFJZ4kDdG4r6QSN+16lO5+O9rgoluKTxVo3LwV4puMWklwNkQaB1gS8k+UVsfb/3dadR02Lm0eNi3MO0P+yXfogI+c2PEaScx1oMyWAAJhpYBfc8k3fiXI+Re/ME7rrPcQ+T9w/KkOdJ+5qaa6ZfoUJ/eTS8yXg6pbe0fLRgVy8QHxPbyjJtTymakOdajiVP1x3OwQQADWGRoaCIibtHQGePnVREa8xtm7eFeAnqH+XNOUTVGu/6G96Ap7B8pr4qwfI+rd3G8tY95w489+2DFXAa/ooYsE/EEAA1BgQ/nHxD4vXyP33KZufnvwU5aepIZq3Td0ptlGdbogL0Gc5AofFNtbnS/rJQN5nmb2yMH9mCPUhRPpA+Oh2HQIIgHWo9fkZVwR05rIrBE7ZnDj1ojgnwGVGh2jnidoAPkbVswI0CKxLwOv+r5H01AFO+tuwyeW6XdXSR11PXdXSFf/8O+EKgLSZE0AAzDzAC+7tHlPjd5F08onddoGRx8fOgCG2Bdo9Vwn0gUhXmTibemLUXH4LBJwM5xuhD8IZqhSut/054/8BkqYs2GVMv5b03BA7P98CNz7aCQEEQCeBamTmNULdX6JRf+t244RAFwd67EDFgWyXiwJdN4oEXXRdQ/lcaQKfl/REST7o5w8DkXDRHx/a5aI/Uyb+2b3Pxu/DuwbylW6TEUAAJAvIwOacPsqLusyoiwRN2byW6qOCXyDpVwMZ4vMQbha5DyQFDgR5pt1+M8ank/6GHJ8+zMpH/vq7OWVzsR+X63bZ7qHyHKb0j2tvgwACoNawcLyvF1vl/OQxdftEPHF8cEBD/MPqGggWPa6JQIPAjgi4cqVvhq5cOeTN0MtTXm+/7I4MGuHfXabbyblvkeTy3bQCBBAABYK8yUWXF/V6o8uNnnBi973m6ITAp0n64YC22GcLgFsn2GI1oJt03YCAt6q+LASAhcBQzYdX/Vsk/k2dk3N0iB3n5Qzp81As6XdNAgiANcF1/DGXF71JlBs9bwI/vL/aGdaearUgGKp5CcAJkF4SmPJ89aH8o9+tE/hZVKp8niSPy6Gab/geh1nqVXw9ynS/Psp2D+U3/SYjgABIFpCRzDlXVBzzj9CU5YHt7l8kfSzKBH9o4B8gC567SvL2wNOMxJrL9EHgF5JeJ+nZkg4Z0GQL8CtHud/LSzregNdapmvvdLD4doVO5z3QChFAABQK9oKru0TNfGcfu4b+1M3nqbtMsCutDVUmeMPH80u6W2y9OvXUjnP9FAR+GVtSffM/eGCLXO7XZ1a43G+GMyu+E7txXilpiDM6BsZJ91shgADYCr2+P+sfoodKupGknRK48tM4Yc3Tr0PmA9jVDRFg35kJSBD8CU3wk/8b48l/6Ju/1/3vHGdzZKhSeWz4/qgRhPeEIebS2yOAAKg7NrxP3ocE+dxx/zBlaD5hzWVIfeLaUFuvFmcCnBNgEUBOQIboj2+D1/x983fxm6Fv/t6SesvYknq28V3d5hUttJ8QwnuoOgdJXMWMbRFAANQeFy6Q41mA6yRYi9yIxGeiSqCLkTg7ecjmnADvw3ZS5NT7sIf0k77/LwFv73PSm+tQOAluyObdNi7C5d03lxzyQiv07dwbFzjy0/8XVvgcb50RAQTAjIK5hisuBuSnEq9JZsgFsAsuDfzOEAEHreHTqh9xQqTrBNyUOgGrouv2/T7u1olvPvN+jMS3veLmf01JLv2boW2cbvgqSS4CRCtIAAFQMOibXD5rCIBbJUlKsnlOynp5VGL73gghMgMfI+w6AecY4XpcYjoC346x5aS3scaWK/35+5Ul6dTbbV8c9TcshmhFCSAAigZ+wW0nAO4n6WGS9k6Ewz9MXpv1U5rXaoduPkbY+QDOi3CS4NTbs4b2t1r/nvL2Or/Hk9f9hzqJcpGrc0s8u+RckzMnAv7xqPo3ZAXORO5iyvYIIAAYGybgTHj/SHmPfKaEOJ8a6KTAN4yQFGgOfkLbP2YCLIamPi+B0dmGgKe4nVviCn/OLfEM09DNx/paUPqYXwvKLM2VDp8h6b8lHZ7FKOyYhgACYBruGa/qdcqHSPI6pYuVZGiuSe4EJf9gvVXSkSMY5Zu+T0t0boQTtzIJohHcn90lfKztu2Pa3yJgjPXuE8fYcW6Nx1KGbbYOrPNrLKZd8tfimlacAAKg+ABYcN8/Wl4Hv6+kTCfn/Tme3lwkaIydAUbiH2zvEDAP7xDIkiDJaF2NgLeVOtPfiW6+4Xnf+9DNlTWvFN+jKyQ44nfRX4tpH8FtMe0juWnFCSAAig+ATe77tLx7x0FBJ0uExhXKPhzlgj86ol2uj3BdSf8i6SKSLJJo+Ql4T7tPt3ttnG43ZqKbl47uF0tJrrWRpbngkYtsPUeSi27RICAEAINgkYDHw9XiuOBLJ0PjH/V3ROGSz41omw9u8d5tzwR4SYB6ASPCX+NSh0l6Tzz5f2qkZaMNMy8YB/zcQNLUJ/wtonMCpJdBHi3p02sw5SMzJYAAmGlgt+CWE+FcrtT18jOUK110xeu3nr70csCYxUv8PfGyiJO6/OPupK6pj1LeQohn+VHPEnma/4DI8vf+/jGm/DdgesnoHiEUXfUvU2PPf6ZoJLIFAZAoGIlMuZikB0u6doLTAjdj8R5mJzL5COGxE5m8W2IfSdeTtK8kbx2kTU/AVf18kuSbJX1CkhP/xmyZj5pmz/+YI6GzayEAOgvYSOZ67dKV8byWee6RrrnKZbye6UJBXs90oteYzQmC/sF3+WQLpAtLypQvMSaLqa/lUyS/IuntUdbWT/1OGh2zuYjUHaLQT0ZByJ7/MUdDZ9dCAHQWsBHNdQLcPaMwzilHvO6yl3Jilw8NcmEXH2k6dvM+b8+UOC/AL1cQzLJ9cmwWY1/Pa9qOude1XTbaOSFT7GnPXkbah/24jsaLJuIz9rjgeisSQACsCKzY250I+B+RGLhzQt/9A/eaKGv6jYnsO6OkK0q6uiRv+8pysuJEOAa/rAvZfEzSe2Paf+ijo7fn0IXiIKnrJ00Mdc0Mlzt+uiSXP6ZB4P8QQAAwKI6LgLe9eb3btQG8DS5jc9a3cwJ8qtvQR7puz38/+btWgHdQXDV2DWRLoMwYu1Vscjnoz0r6gKT3S3Ji2zGrdNDwvZ758eyYl4Ayzo55GcRlfv8rciJcUIsGAQQAY2BlArvHMkC2euaLjjgnwAlg3ufs/d9jZn8v2uHcCedMXDmKwbi6IpUEVx5y//AB3/g/H3UgnOh3iKTfb63LtT/t8yEcU5f3dcXMrLkfTo59SmyFdJ4EDQLbJMAMAANjGQJniy1OLo+bbYvThv1HxHrw8+NJ0dvCpmouJ3yeWBK4XJSDpX7AatHwzI6Pg/Z0v19flzTlzcyzYd4BYiHsmZ6sRaG8I+KFMSPmv9MgsF0CCAAGx7IEXOHsQXFy4C7Lfmjk9/kG4YqBXg7wTWPKG4Zd903CiWKXiZenjvdMVh525BAd5+Vcnvb7kdR3oKRPSnJux1RP/BvGOuHT2z7vGCJg10zQFmzxeHfpYz/9j71FNikSzDouAggAxseyBDy97a1v3hroG1nW5gNPXAHOT0FOFJsiO3wzGwsm3/gvHlPI5udiQlnOh586lj6dz/kbnur3U7///J6kKWdxNpg4Rl7r983fccuYDGtbvc7vLX+PifX/sbdDTj2GuP4aBBAAa0Ar/BEXwvH55j422OcGZG1ODnMuwEsjNyDTVKhvKBeIpEqXjj1fzBJkTCYbMr4WZt637ydV7+X/oqSvjnRU77J+ednmhpED41g5ByBrc6a/M/6d+T/GqZlZOWDXCgQQACvA4q1/I+DCJ3ePwieZn2D9ROQbjA+E8bToFEVijmvIeOeAbzAWABYEfjmB0EsGcxUDv4rsfSfy+YnfN3wLAAu0TE+sjo3j4PMfXBDLhZ8y/1Y6UfLFkp4raaptkfw8dkgg86DuEGcZk33G+QOjAE72mvi+ubhgzOviWGGXRs3WPK1sMWABYEHgBEIXFvLfe99O6JPnfJP3tj3f+J3M53V9xyXjkbQbhz/9c5zolz1504dk+XyMJ8QsSraxjT2JCSAAEgcnsWlOgrqWpPvHmnZiU/9m2m9iXdkzAW+T5GIyWZunmb31ckMA+OnzzJK8E8N5BE5IcznijM3bL70b49Ao0exqjb7xWwB4ito1+l3FL2tzKV/nufjJ3+v9Wbf5LfL7jKTHhsjNkDORNbbYtQ0CCACGxboEPP1/mzg10Dem7M03J9+ELAI8G+Cn0KkKyazC6qSbBIBZu/qg8zEsFPzabYJDm8zOa82+qfvlWgw/ipv/ogCYeifGMqxPELMvfur3zd/iK6vIWvTHnJ8VuS5eXqFBYCUCCICVcPHmTQR8M/JBKLfu6GQ8T0l7d4BFgHcL+Im1p+Ypak9L+8ZvEeBCQ54V8NOqhYD/3X/3y/UI/HLtBv/3st9350941sQ3FR/B7Jdv5F4+8cs3fv+72Xn92Td/iwBP62dcYjmu+JrdpST55u9yzr0suXit/2VR599CgAaBlQks+4Owcsd8oAwBT1HfTdLN4obUg+O+oXmXgEXAW2aQOOXvsZdlfDPbEACeOfDLtQg2BICfar3E4G2Jzjvwk6+bn+a9Hu8pZE/Re7ZkQwB4D75v/n75/20IAK89915i1uc2uNS1b/4+1dFiqYdmoeVsf9e7mOIgrB4YYeMSBBAAS0DiLTsk4D3tLo9643gK3eEHkrzBP54HxHGyX+7w6XUdjM5wPy4BkCkbfx3/lvmMRZIP8/H+/hvEOQ7LfC7DezzT8urI+PfOFhoE1iaAAFgbHR/cROCikRToJCoXDeqleT+696C/I17fTZ6o1gvXjHZ69sPJlE5g9csHXPW05dJLLz746mlU+ss4vPqzCQHQX8yyWuyxdNk4PvgqEySlbZWLM9bfE+cJODfAT1q0+RBwzoTX+n2Iz36RWNmTd0fH2Hx8VEvsffmlJ/aztRUBMNvQTuKY15WdSOUzAy49iQVbu6hzA7xP3bMB74y/e62b1i8Bz0adN278fur333tZ61+k/pE43td/Vlim6XfEdWQ5AqCjYHViqpPOnFh135hi7cTsfzDTme0+iMZCwGfPe3sbrT8C3i7pQ3x84/eBTL0ezfxZSY8LUcpe//7GYVqLEQBpQ9O1Yd6O5oRAJwY6QbDH5sx4JwlaBHhpwLsGfGgNLT8B16hwVr+n+n3zP3uHS1IblH0w0hOjgBWzUfnHXlcWIgC6CldXxnqPuuuoe4ug66r32rzX3TXrPfXq09YsBMgPyBlNr/P7xn85SVeM8xW8NbLX5gqKPtrXiX/egkmDQFMCCICmOOlsEwEXrLlVHKXqQ4R6bhYC/kG2CPDrC5IO69mhGdm+hyTvQvGN3y+fodDzjd+h8W6U50h6eRRamlG4cCULAQRAlkjM1w4fG+yZAB8j3PNMwEaEXAjHZYQXhYDPFshc436Oo8tb+ly7f/HG78OUvMe/9+aS1S+JYj/enUKDwCAEEACDYKXTbcwEXD9mAlyAZQ7NOwZ80M2BIQYOkuQf6x7OF+iZv6sX+nCkveJpf584rrfHzP5txcEnJv53VKkk+bTnkdqB7QiADoI0ExNdcMUJWfeUdPGZ+GQ3jorpWtcO8M4B5wg4ebC3mvjZQ+IneyfzeY3fGf3e0++iPi6BPJf2FUnPk/SmOGNhLn7hR1ICCICkgZmpWX5K21/Sv0u6ZNSln4ur3p7lA1qcJ/C5eLmmgJcH2Lq1XpRdstjT/N67b9Hol9f3XcPf/zaX5rMXnFPy7Mj252S/uUQ2uR8IgOQBmqF5fmK7auwOcOVA1w2YW3PJVq/jeveAxYBLDXtql22Ey0Xa2/jOE3UkfNO/QBzR6+2lc2sWh549csKft5uS7T+3CCf2BwGQODgzNs0VAz2Fe6eoHOjT6ubYnBjo44c9E7A4K+DjW51DQPv/BDw75OOlF5/2/Xcfz+uEvzk2j4EPxc3/Y7GcNEc/8SkpAQRA0sAUMMs/6heUdAdJN+y4StuyofKxut8PMeDiLp4dcJKXlw18IFG1XQSOv7fquVqfp/Q9Fi4WAsA7R+Y4M7Q4Vhxzl5v2k7/FIcmjy36TeF8zAgiAZijpaE0Cnuq1CPCZ7F7vrdD8428xYAHg2QAnDXoHgV/+b//73A578W+Np/B9s/fLCXxO6vNTv//bf/Z0Mt9WxqlLTb85jvT1MdQ0CExCAAEwCXYuuonAOSXdTtLNOjylbavB9JO/cwY2ZgNcAOZ7IRAsBvx3/3uPzZn7vrH7id5/uhiUt/D55f/nG/5cp/e3Fy/H+XWSXhSzQT3GFZtnQgABMJNAzsANPxHeMl5+Mqza/OTvG/7GbIBFgHcSODPcSYSLLyeMTX0y3PElnUySE/cWX87rcCVI3+g3Xp7y36lqYGOm55VR4MdJojQITEoAATApfi6+iYCngl0wyMsBLhg0l+IuWw20D4FZvPFvSwz43/3/XX/AmeVeU/7Twp+r5hj4ydzJmi68s/Gnt975qd439803fP/35v/vo3hpf0/49FS/n/w99e+8DxoEJieAAJg8BBiwiYCfEl3dzSLgagWSA7cyAHyD9w1/86yABcDizX9RDGwWBr7+5hv94k1/8d8sADY/7VsQ+D20bRPwev/74ubvqpE+U4IGgRQEEAApwoARmwj4huLkQIsAvyovCbQaHJ4B8M1/47UhENz/4g3ff/er2tp8K86L/Ti500/9frkOhJnTIJCGAAIgTSgwZBsEWBJgWPRIgCn/HqNW0GYEQMGgd+YySwKdBay4uUz5Fx8APbmPAOgpWnVtZUmgbux78pwp/56iha1CADAIeiLAkkBP0apjK1P+dWI9K08RALMKZwlnNpYEbiJpX0l7lPAaJ7MSOEzS+yW9XhJZ/lmjhF3bJIAAYGD0SMBLAueWdB1J14jT4rw9jQaBsQi4CJPPc3hXHOH7DbL8x0LPdVoRQAC0Ikk/UxBw8RkfIGMRsH/Ul3dlOhoEhiLgyosu1/zuuPn7YCeOeR6KNv0OSgABMCheOh+JgGvLu2iQhcCl4wjZkS7NZQoR8NHO/xM3fhf3cblmGgS6JYAA6DZ0GL6JgI+PdfEgiwC/zi/ppFCCQAMCv5V0cNz4PeXvoj4+3pkGga4JIAC6Dh/Gb4PAaSTtFSJgvziBjqp2DJV1CLh6ok9jfE/c/A+S9It1OuIzEMhIAAGQMSrYtFUCHtc+ge7qIQT25kyBrSIt93kX9Pl03PjfG8cz+6RGGgRmQwABMJtQ4sg2CPg0wfMuJAmej2UBxskOCHi6/2sLSX5f199P86NBYHYEEACzCykObYPA7pIuLunKkq4QWwjZNshQWSTgbX3eyvdRSR+S9DlJPwcRBOZMAAEw5+ji22YCLhrkbYOXDyHgpEEfZ0urS8DHKTupzzf+j0nytj4X96FBYPYEEACzDzEOboPA6SRddEEIeJlgN0iVInCkJE/vb9z4vyDJ2/xoEChDAAFQJtQ4ug0Cp5V0kQUh4BwBlxqmzZfAEbHGv3Hj/6IkJ/zRIFCOAAKgXMhxeBsEnCNw4QUh4BoCp4TUrAgcHnv5N278X2KNf1bxxZk1LO9X2AAADcBJREFUCCAA1oDGR2ZLwDUELrQgBC4g6VSz9baGY7+Kmv0bN/4vs5e/RuDxcscEEAA7ZsQ76hHwGQMXlLSPpEvErgEfRexqg7T8BFyl74eR1f/ZOKXvK9Tszx84LByXAAJgXN5crS8C3ip4thAAzhVw4qBPIfRugl36cmX21v4xsve9lc8JfV7b9999cI+3+NEgAIFNBBAADAkILEfAOQHnkuREQQsBzxBYDDh/YKfluuBdjQkcG+v4vtH7Cd83fhfx+aYkr/nTIACB4yCAAGB4QGA1Aj5XwLsHfPN3voBnBryN8JwkDq4Gcgvv9s39W7GNz0/6Xte3CHA2v+v30yAAgSUIIACWgMRbILAdAl4GOMOmJQLPEpxVEpUG2w4bT+P7YB4/3S9O8f9Ykqf/aRCAwIoEEAArAuPtENgOAScI+gCijWUCzxCcOf6fCw/tCrmVCPxB0k/iEB4n9PmJf2N6//scx7sSS94MgW0SQAAwMCDQnoBv9r7pWxBYBHh5wMJgz/h/3lp4/PaX7brHP8d6vpP2fIP/dtz0fyDJL0/vH921hxgPgWQEEADJAoI5syTgUwktBCwA/Oc54uUdBhYJVZcLXI7X0/q+6X8nbvr+bwsAP/17Ox8NAhAYiAACYCCwdAuB4yDgcwecJ+CXRYD/tDhwcqF3G/hl0eCEwzk0J+b5SF0n7/nlmvuHxo3fT/oWAH7KZ7veHKKND90QQAB0EyoMnSkBbyF04SHPBHjZwGcRbIiAjb9v/n+eMdg5GY8/xQ3ctfY3bvQbf9/8/zYEgKv0eSsfDQIQmIAAAmAC6FwSAksQOEEcVXxcgsD/tpckn10wRTtY0kGSNt/oN9/wfeTuMVMYyDUhAIHtE0AAMDog0B8BLw14icAzBfeRdFdJY3+X/yrpOZKeHE/8nuJnD35/YwmLCxMY+0ejMGpch8AgBB4uya+xv8sWAI+I1yCO0SkEIDAsgbF/NIb1ht4hUI8AAqBezPEYAk0IIACaYKQTCExGAAEwGXouDIG+CSAA+o4f1kMAAcAYgAAE1iKAAFgLGx+CQBoCCIA0ocAQCPRFAAHQV7ywFgKbCSAAGBMQgMBaBBAAa2HjQxBIQwABkCYUGAKBvgggAPqKF9ZCgBkAxgAEINCEAAKgCUY6gcBkBJgBmAw9F4ZA3wQQAH3HD+shgABgDEAAAmsRQACshY0PQSANAQRAmlBgCAT6IoAA6CteWAsBcgAYAxCAQBMCCIAmGOkEApMRYAZgMvRcGAJ9E0AA9B0/rIcAAoAxAAEIrEUAAbAWNj4EgTQEEABpQoEhEOiLAAKgr3hhLQTIAWAMQAACTQggAJpgpBMITEaAGYDJ0HNhCPRNAAHQd/ywHgIIAMYABCCwFgEEwFrY+BAE0hBAAKQJBYZAoC8CCIC+4oW1ECAHgDEAAQg0IYAAaIKRTiAwGQFmACZDz4Uh0DcBBEDf8cN6CCAAGAMQgMBaBBAAa2HjQxBIQwABkCYUGAKBvgggAPqKF9ZCgBwAxgAEINCEAAKgCUY6gcBkBJgBmAw9F4ZA3wQQAH3HD+shgABgDEAAAmsRQACshY0PQSANAQRAmlBgCAT6IoAA6CteWAsBcgAYAxCAQBMCCIAmGOkEApMRYAZgMvRcGAJ9E0AA9B0/rIcAAoAxAAEIrEUAAbAWNj4EgTQEEABpQoEhEOiLAAKgr3hhLQTIAWAMQAACTQggAJpgpBMITEaAGYDJ0HNhCPRNAAHQd/ywHgIIAMYABCCwFgEEwFrY+BAE0hBAAKQJBYZAoC8CCIC+4oW1ECAHgDEAAQg0IYAAaIKRTiAwGQFmACZDz4Uh0DcBBEDf8cN6CCAAGAMQgMBaBBAAa2HjQxBIQwABkCYUGAKBvgggAPqKF9ZCgBwAxgAEINCEAAKgCUY6gcBkBJgBmAw9F4ZA3wQQAH3HD+shgABgDEAAAmsRQACshY0PQSANAQRAmlBgCAT6IoAA6CteWAsBcgAYAxCAQBMCCIAmGOkEApMRYAZgMvRcGAJ9E0AA9B0/rIcAAoAxAAEIrEUAAbAWNj4EgTQEEABpQoEhEOiLAAKgr3hhLQTIAWAMQAACTQggAJpgpBMITEaAGYDJ0HNhCPRNAAHQd/ywHgIIAMYABCCwFgEEwFrY+BAE0hBAAKQJBYZAoC8CCIC+4oW1ECAHgDEAAQg0IYAAaIKRTiAwGQFmACZDz4Uh0DcBBEDf8cN6CCAAGAMQgMBaBBAAa2HjQxBIQwABkCYUGAKBvgggAPqKF9ZCgBwAxgAEINCEAAKgCUY6gcBkBJgBmAw9F4ZA3wQQAH3HD+shgABgDEAAAmsRQACshY0PQSANAQRAmlBgCAT6IoAA6CteWAsBcgAYAxCAQBMCCIAmGOkEApMRYAZgMvRcGAJ9E0AA9B0/rIcAAoAxAAEIrEUAAbAWNj4EgTQEEABpQoEhEOiLAAKgr3hh7bgEdpJ0Mkm7x58nlOT/l6ndRpJfY3+X/yrppfHKxONYSUdL+o2kn0v6tSTbSoMABDYRGPtHgwBAoAcCe0i6kKTzSjpLCICTS8ooAPaUdNaJoH5P0qETXXt7l90QAL7xWwDYvkMkfVnSYclsxRwITEoAATApfi6ejMAZJe0j6XKS9pJ0LkmnTGYj5qxG4HBJ35R0kKSPSzpQ0o9W64J3Q2CeBBAA84wrXq1GYFdJF5F0A0nXkHQOSTuv1gXvTk7gT5K+Leldkt4k6UuSjkpuM+ZBYFACCIBB8dJ5BwR2k3RVSbeWdFlJ/m/afAkcIemTkl4m6QOSjpyvq3gGgeMmgABghFQm4HX960i6m6SLSTpBZRiFfD9G0uclPVvS2yJRsJD7uAqBvxNAADASqhLYRdL+ku4vae+E2f1V4zKW304W/JSkx0t6jyQvEdAgUIoAAqBUuHF2gYCT/B4k6ZqSLAZo9Qj8MWYAHhczAvUI4HFpAgiA0uEv6/zpJN1d0p0lnaosBRw3gV9Iem4sB3jbIA0CZQggAMqEGkcXCFxb0n/Guj9gIPDpGA9eCqBBoAwBBECZUONoEPAT//1iBuDEUIGApN9Kepqkp7ArgPFQiQACoFK08dUELiPJ9fP3BQcEFgi8Q9IjomAQYCBQggACoESYcXKBgPf7e/rfJXRpENgg4HLBFgCvBQkEqhBAAFSJNH6awPElPVDSg6OuP1QgsEHgd5IeKelJHB7EoKhCAAFQJdL4aQKu8uen/3uBAwLbIOCbv8fH76EDgQoEEAAVooyPGwTOED/w/woSCGyDwPNjfPwUOhCoQAABUCHK+LhB4MzxA39bkEBgGwReFHkAP4QOBCoQQABUiDI+bhDYI3YA3AkkEGAGgDFQnQACoPoIqOX/SUIA3LeW23i7JAFyAJYExdvmQQABMI844sVyBHaS5Jv/wyRRBGg5ZlXe5V0Aj4pdAD4oiAaB2RNAAMw+xDi4icBNYxbg3JCBwAKBb0R+CHUAGBZlCCAAyoQaR4PAJUIA+BRAGgQ2CLwzBMBBIIFAFQIIgCqRxs8NAq4FcJ+oBXBSsEAgzgJ4uqQncxYA46ESAQRApWjj6waB/eNp75IggYCkz8R4eDc0IFCJAAKgUrTxdYPA7nEa4F0knRospQn8UtJzJT1L0s9Lk8D5cgQQAOVCjsNB4OJxLsC1Je0ClZIE/ijp7ZIeJ+lzJQngdGkCCIDS4S/tvG/6+0l6gKS9JXmLIK0OAW/1+7Skx0t6jySLARoEShFAAJQKN85uInBySdeN5YCLSDoBhEoQOEbSF2Pa/62Sfl3Ca5yEwCYCCACGRHUC3hWwr6TbSNonTgyszmTO/vtmf6Ckl0p6H1n/cw41vu2IAAJgR4T49woETiTJMwA3kHQNSedgNmB2Yf+LpO9K8n7/N0r6gqQ/zM5LHILACgQQACvA4q2zJ3BGSZeVdDlJThI8l6RTzN7reTv4G0nfiRv+RyV9RNIP5u0y3kFgOQIIgOU48a46BPydOL2kC0k6j6Q9JXnb4MkknZBkwfQD4a+SvMb/W0m/kHSopEMkfUmSj/n1TAANAhCQhABgGEBg+wS8M8CJghYA/hMBkH+0WAD8aUEAHB6CIL/lWAiBkQkgAEYGzuUgAAEIQAACGQggADJEARsgAAEIQAACIxNAAIwMnMtBAAIQgAAEMhBAAGSIAjZAAAIQgAAERiaAABgZOJeDAAQgAAEIZCCAAMgQBWyAAAQgAAEIjEwAATAycC4HAQhAAAIQyEAAAZAhCtgAAQhAAAIQGJkAAmBk4FwOAhCAAAQgkIEAAiBDFLABAhCAAAQgMDIBBMDIwLkcBCAAAQhAIAMBBECGKGADBCAAAQhAYGQCCICRgXM5CEAAAhCAQAYCCIAMUcAGCEAAAhCAwMgEEAAjA+dyEIAABCAAgQwEEAAZooANEIAABCAAgZEJIABGBs7lIAABCEAAAhkIIAAyRAEbIAABCEAAAiMTQACMDJzLQQACEIAABDIQQABkiAI2QAACEIAABEYmgAAYGTiXgwAEIAABCGQggADIEAVsgAAEIAABCIxMAAEwMnAuBwEIQAACEMhAAAGQIQrYAAEIQAACEBiZAAJgZOBcDgIQgAAEIJCBAAIgQxSwAQIQgAAEIDAyAQTAyMC5HAQgAAEIQCADAQRAhihgAwQgAAEIQGBkAgiAkYFzOQhAAAIQgEAGAgiADFHABghAAAIQgMDIBP4f45GhlxHoFw0AAAAASUVORK5CYII=;" parent="1" vertex="1">
                    <mxGeometry x="1050.63" y="367.25" width="88.75" height="88.75" as="geometry"/>
                </mxCell>
                <mxCell id="46" style="edgeStyle=none;html=1;endArrow=none;endFill=0;startArrow=classic;startFill=1;strokeWidth=4;entryX=1;entryY=0;entryDx=0;entryDy=0;" parent="1" source="6" target="94" edge="1">
                    <mxGeometry relative="1" as="geometry">
                        <mxPoint x="1039.6899999999996" y="247.26896476012735" as="targetPoint"/>
                    </mxGeometry>
                </mxCell>
                <mxCell id="6" value="" style="shape=image;verticalLabelPosition=bottom;labelBackgroundColor=default;verticalAlign=top;aspect=fixed;imageAspect=0;image=data:image/png,iVBORw0KGgoAAAANSUhEUgAAAhUAAAIVCAYAAABm5A1+AAAACXBIWXMAAAsTAAALEwEAmpwYAAAKT2lDQ1BQaG90b3Nob3AgSUNDIHByb2ZpbGUAAHjanVNnVFPpFj333vRCS4iAlEtvUhUIIFJCi4AUkSYqIQkQSoghodkVUcERRUUEG8igiAOOjoCMFVEsDIoK2AfkIaKOg6OIisr74Xuja9a89+bN/rXXPues852zzwfACAyWSDNRNYAMqUIeEeCDx8TG4eQuQIEKJHAAEAizZCFz/SMBAPh+PDwrIsAHvgABeNMLCADATZvAMByH/w/qQplcAYCEAcB0kThLCIAUAEB6jkKmAEBGAYCdmCZTAKAEAGDLY2LjAFAtAGAnf+bTAICd+Jl7AQBblCEVAaCRACATZYhEAGg7AKzPVopFAFgwABRmS8Q5ANgtADBJV2ZIALC3AMDOEAuyAAgMADBRiIUpAAR7AGDIIyN4AISZABRG8lc88SuuEOcqAAB4mbI8uSQ5RYFbCC1xB1dXLh4ozkkXKxQ2YQJhmkAuwnmZGTKBNA/g88wAAKCRFRHgg/P9eM4Ors7ONo62Dl8t6r8G/yJiYuP+5c+rcEAAAOF0ftH+LC+zGoA7BoBt/qIl7gRoXgugdfeLZrIPQLUAoOnaV/Nw+H48PEWhkLnZ2eXk5NhKxEJbYcpXff5nwl/AV/1s+X48/Pf14L7iJIEyXYFHBPjgwsz0TKUcz5IJhGLc5o9H/LcL//wd0yLESWK5WCoU41EScY5EmozzMqUiiUKSKcUl0v9k4t8s+wM+3zUAsGo+AXuRLahdYwP2SycQWHTA4vcAAPK7b8HUKAgDgGiD4c93/+8//UegJQCAZkmScQAAXkQkLlTKsz/HCAAARKCBKrBBG/TBGCzABhzBBdzBC/xgNoRCJMTCQhBCCmSAHHJgKayCQiiGzbAdKmAv1EAdNMBRaIaTcA4uwlW4Dj1wD/phCJ7BKLyBCQRByAgTYSHaiAFiilgjjggXmYX4IcFIBBKLJCDJiBRRIkuRNUgxUopUIFVIHfI9cgI5h1xGupE7yAAygvyGvEcxlIGyUT3UDLVDuag3GoRGogvQZHQxmo8WoJvQcrQaPYw2oefQq2gP2o8+Q8cwwOgYBzPEbDAuxsNCsTgsCZNjy7EirAyrxhqwVqwDu4n1Y8+xdwQSgUXACTYEd0IgYR5BSFhMWE7YSKggHCQ0EdoJNwkDhFHCJyKTqEu0JroR+cQYYjIxh1hILCPWEo8TLxB7iEPENyQSiUMyJ7mQAkmxpFTSEtJG0m5SI+ksqZs0SBojk8naZGuyBzmULCAryIXkneTD5DPkG+Qh8lsKnWJAcaT4U+IoUspqShnlEOU05QZlmDJBVaOaUt2ooVQRNY9aQq2htlKvUYeoEzR1mjnNgxZJS6WtopXTGmgXaPdpr+h0uhHdlR5Ol9BX0svpR+iX6AP0dwwNhhWDx4hnKBmbGAcYZxl3GK+YTKYZ04sZx1QwNzHrmOeZD5lvVVgqtip8FZHKCpVKlSaVGyovVKmqpqreqgtV81XLVI+pXlN9rkZVM1PjqQnUlqtVqp1Q61MbU2epO6iHqmeob1Q/pH5Z/YkGWcNMw09DpFGgsV/jvMYgC2MZs3gsIWsNq4Z1gTXEJrHN2Xx2KruY/R27iz2qqaE5QzNKM1ezUvOUZj8H45hx+Jx0TgnnKKeX836K3hTvKeIpG6Y0TLkxZVxrqpaXllirSKtRq0frvTau7aedpr1Fu1n7gQ5Bx0onXCdHZ4/OBZ3nU9lT3acKpxZNPTr1ri6qa6UbobtEd79up+6Ynr5egJ5Mb6feeb3n+hx9L/1U/W36p/VHDFgGswwkBtsMzhg8xTVxbzwdL8fb8VFDXcNAQ6VhlWGX4YSRudE8o9VGjUYPjGnGXOMk423GbcajJgYmISZLTepN7ppSTbmmKaY7TDtMx83MzaLN1pk1mz0x1zLnm+eb15vft2BaeFostqi2uGVJsuRaplnutrxuhVo5WaVYVVpds0atna0l1rutu6cRp7lOk06rntZnw7Dxtsm2qbcZsOXYBtuutm22fWFnYhdnt8Wuw+6TvZN9un2N/T0HDYfZDqsdWh1+c7RyFDpWOt6azpzuP33F9JbpL2dYzxDP2DPjthPLKcRpnVOb00dnF2e5c4PziIuJS4LLLpc+Lpsbxt3IveRKdPVxXeF60vWdm7Obwu2o26/uNu5p7ofcn8w0nymeWTNz0MPIQ+BR5dE/C5+VMGvfrH5PQ0+BZ7XnIy9jL5FXrdewt6V3qvdh7xc+9j5yn+M+4zw33jLeWV/MN8C3yLfLT8Nvnl+F30N/I/9k/3r/0QCngCUBZwOJgUGBWwL7+Hp8Ib+OPzrbZfay2e1BjKC5QRVBj4KtguXBrSFoyOyQrSH355jOkc5pDoVQfujW0Adh5mGLw34MJ4WHhVeGP45wiFga0TGXNXfR3ENz30T6RJZE3ptnMU85ry1KNSo+qi5qPNo3ujS6P8YuZlnM1VidWElsSxw5LiquNm5svt/87fOH4p3iC+N7F5gvyF1weaHOwvSFpxapLhIsOpZATIhOOJTwQRAqqBaMJfITdyWOCnnCHcJnIi/RNtGI2ENcKh5O8kgqTXqS7JG8NXkkxTOlLOW5hCepkLxMDUzdmzqeFpp2IG0yPTq9MYOSkZBxQqohTZO2Z+pn5mZ2y6xlhbL+xW6Lty8elQfJa7OQrAVZLQq2QqboVFoo1yoHsmdlV2a/zYnKOZarnivN7cyzytuQN5zvn//tEsIS4ZK2pYZLVy0dWOa9rGo5sjxxedsK4xUFK4ZWBqw8uIq2Km3VT6vtV5eufr0mek1rgV7ByoLBtQFr6wtVCuWFfevc1+1dT1gvWd+1YfqGnRs+FYmKrhTbF5cVf9go3HjlG4dvyr+Z3JS0qavEuWTPZtJm6ebeLZ5bDpaql+aXDm4N2dq0Dd9WtO319kXbL5fNKNu7g7ZDuaO/PLi8ZafJzs07P1SkVPRU+lQ27tLdtWHX+G7R7ht7vPY07NXbW7z3/T7JvttVAVVN1WbVZftJ+7P3P66Jqun4lvttXa1ObXHtxwPSA/0HIw6217nU1R3SPVRSj9Yr60cOxx++/p3vdy0NNg1VjZzG4iNwRHnk6fcJ3/ceDTradox7rOEH0x92HWcdL2pCmvKaRptTmvtbYlu6T8w+0dbq3nr8R9sfD5w0PFl5SvNUyWna6YLTk2fyz4ydlZ19fi753GDborZ752PO32oPb++6EHTh0kX/i+c7vDvOXPK4dPKy2+UTV7hXmq86X23qdOo8/pPTT8e7nLuarrlca7nuer21e2b36RueN87d9L158Rb/1tWeOT3dvfN6b/fF9/XfFt1+cif9zsu72Xcn7q28T7xf9EDtQdlD3YfVP1v+3Njv3H9qwHeg89HcR/cGhYPP/pH1jw9DBY+Zj8uGDYbrnjg+OTniP3L96fynQ89kzyaeF/6i/suuFxYvfvjV69fO0ZjRoZfyl5O/bXyl/erA6xmv28bCxh6+yXgzMV70VvvtwXfcdx3vo98PT+R8IH8o/2j5sfVT0Kf7kxmTk/8EA5jz/GMzLdsAAAAgY0hSTQAAeiUAAICDAAD5/wAAgOkAAHUwAADqYAAAOpgAABdvkl/FRgAAPKJJREFUeNrs3W+IHdeZ7/vnWbt2ohedXVVb2ozg6NAaRsPV4fgyHUZhZEYmMkcmDkfDtRmb2FyZyMQmNrEZm8TEJjGJkY1j7GAHO9iDHawhGqKDHaLDKMTBHqxgDdZghWi4GkYXdHA3V4ejS0u7qnr6heKuvZ77wju5jiPH+te7nur+fkAwZHDX2qtqVf1q1fqjZiYAAACXK1AFAACAUAEAAAgVAACAUAEAAECoAAAAhAoAAECoAAAAhAoAAABCBQAAIFQAAABCBQAAIFQAAAAQKgAAAKECAAAQKgAAAAgVAACAUAEAAAgVAACAUAEAAECoAAAAhAoAAECoAAAAhAoAAABCBQAAIFQAAABCBQAAIFQAAAAQKgAAAKECAAAQKgAAAAgVAACAUAEAAAgVAACAUAEAAECoAAAAhAoAAECoAAAAhAoAAABCBQAAIFQAAABCBQAAIFQAAAAQKgAAAKECAAAQKgAAAAgVAACAUAEAAAgVAACAUAEAAECoAAAAhAoAAECoAAAAhAoAAABCBQAAIFQAAABCBQAAIFQAAAAQKgAAAKECAAAQKgAAAAgVAACAUAEAAAgVAACAUAEAAECoAAAAhAoAAECoAAAAhAoAAABCBQAAIFQAAABCBQAAIFQAAAAQKgAAAKECAAAQKgAAAAgVAACAUAEAAAgVAACAUAEAAPBxksv9A6pKLQJO9Xq9TSGE61X1cyIy9aH/9ykz+7mZHayqqqS22sfMqAS4opd7URIqAHdBYksI4QsislNVN1/Af1KLyGER+WmSJPvm5+dPU4uECoBQ4VOS5/kOEflLEZkRka0isu5DN4YTqnpCRP4lhLD/7NmzJ6g2XKw0TbMQwh4Ruecy/kxpZg+XZfkcNUqoAAgVTkxNTa3rdrt3mNlXVHXDRf7nh8zsB2VZ7h+/RQJ/UJZlO0Xk+Uu41j7qYXWk0+ncTsAlVACEiuZv8PeIyOOqOnWZf+pYjPH2qqqOUav4CEmWZc+r6h3L8LdrM3ukLMtHqWZCBUComLB+v7/BzJ4XkZ1X+Mb+TFmWDwm9FviQPM9fFpHdy3yYfUVR3M71R6gACBUTsnbt2s2j0ehNVV2/TDePV8uyvJUbOz4QKL4tIt+a0OEOxRhvZJYIoQIgVLQ8UBAs8GFZlu1S1R9O+AF2wsw+X1XVLGeAUAEQKpbBYDBYv7S09KvlDhQfsK8oitu4dFevNE1nQgjvyBVYZ+YSHmKnQwg3DofDI5wJQgXwYayoeXmSpaWlVyYYKEREduV5fgtVv4obbQhfbSJQjF8i1scYX+/3+zdxJgD83j2CnopLl2XZ46r6YAOHLlX1fx8Oh6e4hFeX8WDgd5sKFR9Qi8hDRVE8xVlpDj0VcPfSQxVcmjzPr28oUIiIZGa2h7OwKh8ijfVSfEgiIk/mef6sk/IAcICeikuQpunGEMKvRCRr8OFyrq7r/7i4uHiGy3jVXHeZqv4/V2D9kyvtYJIkt87Pzy9yliZ+H6AS4Ao9FZfwhhZCeKXJQDEOc2u63e4dnI7Vo9Pp7HAYKEREdtZ1/dZgMFjPWQIIFbgIeZ4/KSJbnBTnS5yRVfVW+peOizeztLT0Tp7nV3GmAEIFLixQ3CIi9zkq0qY0TTPOzKoJFa4f2Kq6wcze7vf7OzhbAKECf0Cv19tkZi96K1en09nC2Vk1NngvoKpOmdnP8jzn0xxAqMD5TE9Pr+l0Oq94/J5tZjOcodVBVde0pKiJiLyYZdnjnDWAUIEPqarqaRHx+vCe4gzBaQh6MMuyH01PT6+hNgBCBUQky7KdqnoXNQFcUrC4paqq15kZAhAqVr2pqal1qvoyNQFcVrDYtrS09ObatWs3UxsAoWLV6na7L4vIOmoCuOxgsTnG+Fae59uoDYBQsepkWXaPiOxswc36OGcLLbHOzF5nQzyAULGqjLtpWzFy3cxOcMbQFuMZLD/Ksuyb1AZAqFgNkhjjj5wuh/xhZVEUhAq0MVzsybLsRWEzMoBQsZJlWbZH/E4f/bB98v4W1EAbg8UdWZb9bDAYMC0aIFSsPHmeb1PVr7WoyH/LWUPLg8WOpaWlt/v9/gZqAyBUrBjjPTR+KC3pjjWzI0VRMEgTKyFYXBVjfKfX67HkPECoWCEVEcLTIrKxJcWtQwj3c9awgoLF+hDCm1mW7aQ2AEJFq6Vpul1EdrelvGb2zHA4PMKZwwoLFlOq+pPxdG4AhIr2mZ6eXhNCeLFFRZ7tdruPcOlihUpU9dksy54UZoYAhIq2qapqj4hsaklx69FodPP8/Pwily5WMlX9Wp7nrzAzBCBUtEaapjOqel9byhtjfGBhYeEoly1WiRuWlpbYjAwgVLRCMv7s0ZbZHvurqnqGSxariapurev6bTYjAwgVruV5fp+ItGUK28lut3snlytWqY0xxrfHA6oBECp8SdN0o5ntaUNZzexcjJFxFFjtshDC62ma7qYqAEKFK6r64nhjozaU9f6qqo5xqQKShBBezvP821QFQKhwIU3T3aq6oyXF3VsUxQtcpsDv+Fae561Z/RYgVKxQU1NT68YrZ7pnZseTJLmXSxQ4r115nr8+Xl4fAKFi8pIk2SMi7m9CZnZOVW9lHAXwB21X1bd7vd4mqgIgVExUr9fboqp3tKS4D7BZGPDxVHVzCOGtfr+/ldoACBWT+6Hvf/Zw/w3WzF4ry/I5Lk3ggoPF+hjj6/1+/yZqAyBULLssy3ap6rYWFPVMt9u9ncsSuOhgMWVmP8rz/GvUBkCoWDbjvQMeb0NZY4x3zs/Pn+ayBC5JIiJPZln2vDAzBCBULIe6rr+uqhu8l9PMXqiq6gCXJHB5VPWuPM9/wmZkAKHiiur1epvMzH13qJmd6Ha7D3A5AlfMzrqu32IzMoBQccV0Op2nW7ByZh1jvI3po8AVN7O0tPSrPM+voioAQsVlyfP8ehHZ2YKiPsx25sDyUNX1Zvb2+H4AYLnbnJldbqP1+LuSLMv+L1V1vV2ymR0py/IaEakdFzPp9/tbzGybiKQismFc9lpV/4eqnjSzE6yrMZGg/K6IbKQmLkktIncXRfHSSvpRl3v/Bq74A2Ml/qg0Te/xHihEpDazu70GiizLdqrql81su5lNfVSY/M1NLc/zkyKyP8b4YzZAg9N73YtZlv1JWZYPUR0APRUXZHp6ek1VVe+qqusBWmb2HY83tzRNd4cQ/kZEZi7jz+xLkuQBpsdeWfRUXLG292qaprfNzc2dWwG/hRMKV1bcmIqFhYUHvQcKETmZpukjngo0NTW1Ls/zn4QQXr7MQCEisquu63/L8/wumhjcvUmp3lRV1evMDAGWoX2tpJ6KNE2zEMK74nzTsBjjtVVVHfJSnn6/vzXG+MoyreextyiKO8X3uJFWoKfiir/ln+h0OjeePXv2RIt/AycSrqyongpV/Yb3QGFmL3kKFHmeb4sxvr6MC4TtzvP8FRYigsP7xeYY41t5nm+jNgBCxe8Yd2Xe4zxQnDYzN4tcrV27drOI/ERVl/uBf8PS0tJPaG5waJ2IvJnn+S1UBUCo+K2lpaU93he6CiHcW1VV6aEsU1NT60aj0Zvjm+ok3gp3sNkTnEpE5EdZln2TqgAIFdLr9Tap6m7nxTw4HA5fdXMXTZLnGxjQ+niapjM0O3ikqnuyLHtR2IwMWN2hIoSwx/ONwMzOxRjv9VKeNE13q+pNTWQZVX2WZgfHweKOLMt+xhggYJWGijRNZ1TV+/fQx6qqmvVQkH6/vyGE8HSDN+1taZpup+nBcbDYsbS09E6/399AbQCrLFSEEL7lvIizaZo+5aUwMcaXpeEZMi04ZyBYbI4xvtPr9bZQG8AqCRXj7/M3eC5jjPF+Lyv3ZVl2j6rucFCU7eOZJ4DnYLE+hPBmlmU7qQ1gFYQK72+8ZvZGVVUHPJSl1+ttEpHHHYWt7TQ/tCBYTKnqT7Isu4faAFZwqGhBL0Xd6XS8DM5MQgg/nMB6FBcTuD5L80NLJKr6bJ7nTwszQ4CVGSrGm165ZWbPeFn+N8/z+1R1q7M3QL5Vo23uY3VYYAWGinFX/i7HgeK0mT3moSzjHp3HHVYTb3xooxuWlpbYjAxYSaGi0+l8Q3yvS/GQk5Uzk/Guox7riul6aCVV3VrX9dsMNgZWQKgYDAbrzczzuhTHqqra66EgeZ5/Sy5/G/NlCzw0P7TYxtFo9A5rrgAtDxV1XX/d8x4fqupiw7B+v79VRB50fCrP0PzQZqo6FUJ4PU3T3dQG0MJQMe6luMtxEQ8Nh8M3mi7E9PT0mvEiV557A2ZpflgBkhDCy3mef5uqAFoWKuq6/ornXorRaOSil2JhYeFJVXX9vdfMTtL8sIJ8K8/zHwqf9UCoaIc0TTMR8bwAzYGFhYWjTRciz/NtzuvpN/6V5ocVZleWZW+O71UAocJ1QUO4Qxres+IPqL30UojI0y05n3tpflhpVHWbqr49nvYOECqcSkTkK47Lt29hYaHx7vw8z+8QEfeLSpnZ4eFweIrmhxUaLDaHEN4a9xoChApv0jTdKSIbnT4gzyVJ8pCDOsrMbE9Lrru/pelhhQeL9Wb2s36/fxO1AUKFvwbquZfiufn5+dMO6ujrqtqGVf6OlmW5n6aHVRAspszslTzPv0ZtgFDhRJ7nVznZrvt8Sg/LcY+/397XkmvufhGpaXpYRZ7Msux5YWYICBXNMzPPvRTf87Acd6fTedLzVNsP2FsUxWGaHVYbVb0ry7J/YDMyECoaNJ6atdtp2DmXJMkLTZej3+/vEN9bwP+mvk7FGO+nyWEVB4vr67p+i83IQKhoqnAh3OX1DVxVX3AwliKJMT7dkmvtbiebrAFNmllaWvpVnudXURUgVEz4gen108e4l+KJpsuR5/kdqur+5mRmL5RleZDmBvx2ZsjbeZ5fT22AUDEh/X7/BlXd4PSmsL/pXorxp6HHW3CNzXa73QdoasDv3EOmROQf8jy/i9oAoWICYox/47Ro9Wg0anzGRwhhj/hdYfSD5/H2+fn5RZoa8HsSEXk+y7LHqQoQKpbReBqpy9XozOzVplfPXLt27WYRcf+GY2ZPVVV1iGYGfDRVfTDLslemp6fXUBsgVCzPw+iLjh+UjY+lGI1GT4vzOe9mdiJN04dpYsAFBYubqqp6nZkhIFRceYmI7HJaXweqqjrWZAGyLNupqt4HeNUhhNvn5ubO0cSACw4W2+q6fmvcEwkQKq6ENE13el1uWlWb7qVIVLUNU0gfGw6HR2hewEXbFGNkMzIQKq5YgULw+unjaNMPyjRNd4mI9y2VjxVF8ShNC7hk60TkzTzPb6EqQKi4DFNTU+tEZKfHijKz7zVchCSE8A3PF5OZnYsx3i7s7QFcdnsXkR9lWfZNqgKEikvU7XZ3i8MBiGZ2Ok3TV5ssQ57nN4nzXgpVfbjpMSfASqKqe/I8f1nYjAyEikt6eH/RacN+ycGgw687v5aOFUXxDE0KuOJ2Z1n2MzYjA6HiIvR6vS1Ol5yukyT5fpMFSNP0BhGZ8XwhjTcL47MHsDwvNjuWlpbe6ff7G6gNECoupCAhfMljBZnZq00vyR1C+BvPF5GZ7WeRK2DZg8XmGOM7vV5vC7UBQsUfMD09vUZVXY50DiE0OkAzTdPtIrLdcaA4Z2YP0ZSAiQSL9SGEN8e9lwCh4nwWFhZuEJ/7WDQ+jVRVXY+lUNWnqqqapSkBE2tzUyGEV7Isu4fagDdeRhR/welbeNO9FDOeV880s9PdbvcJmhEw+Xu3qj7b7/f/pCiKB4TxTLjw+/ay/v3GeyoGg8GUmXl8cJ5pehppCOFbzi/Oh9iBFGjUfXmev8LMEHjReKhYWlq6QVU97s63v8lppL1eb5M4XQhsHCiOVFW1lyYENO6Guq7fZDMyECpERFX/2mPFxBh/0OTxO53ON8TxgjchhPtpPoAbW+q6fpvNyND4M/1yv6+o6iX/t4PBYGppaWneYU/F0aIoPtPUwfv9/gYze9dxqNhXFMVtbbvY0zSd6XQ6m8xso4hMj//ns2Z2xsxOicihqqpKr+XP8/xdEdnIbQsfxcwWQwg3DofDN6gNfMQ1sqx/v9GHltdPH2b2dw0f/6teA4WZnQshtGYKab/f32pmXzCzm1R1w/kalKr+NhxnWXZEVd9IkuT7Ta9PAlzCS96Umf0sTdM7+TyJJoSGG4C7Tx9mdq6u6/1NHX8wGKw3s7scXzOPDYfDU94v7F6vtyXP8zfN7G0RuU9VN1zgNblVRL65tLT0bp7nT/OdGi2UhBBezvN8D1WBVRMqHM/6OLC4uHimqYPXdX2X04GrIiKzaZo+5fmCHgwGU1mWvdLpdN6Ry1g0bHwO7ltaWno3TdPd3CrQQt/M8/yHwmZkWA2hwuunD1Vt7NPH9PT0GhFxuyR3jPERBxurfaR+v79haWnpHVW96QpeD2vGb33PcnNGC+3KsuzNqampdVQFVnSocPrp41RRFK81dXzHK4uKiJysqmqf1wt57dq1m2OM76jqco1+vyfP89fHwQ9oDVXdliTJW+Np6sDKCxVeP32oaqPTSM3sS14vlBjjY+J01b7BYLB+NBq9rqrLPf5he1VVL3PbQAuDxeYQwlt5nm+jNrCcGunO9frpYzQaNfYmPp5GusPjRWJmp7Ms219VlctruK7rH13oQMwrcHO+Jc/zk0VRPMztAy0LFuvN7Gd5nj8WY2RmU7vO3RkzO/WJT3zitPdZaU19I/6vDuvi2MLCwskGH9x3eL1IzOwJr2Mp8jx/Uia/i+s3+/3+T5vebA64hIfTlIg8HkKgMtp37qSua8nzvBaRwyLy8xDCgbNnz57wVM4mrqzE4yZZZvbjhovwRafXcpll2QseC9br9baIyH1NHDvG+DS3OQANdQZsF5HHY4z/luf5r9I03e6lcBMPFXmebxWHgxFjjI2tTTG+IDY6vYC/57WXIoTwbINvDVvzPL+F+xuAhs2EEN7MsuxnHgbjNtFT8TmHJ6XRTx8hBK8DNMsY4zMeC5am6e7xQlWNMbOvcD8D4IGqXh9C+FWe541+CWgiVPDp4wPGM2Fucnqd7vW4F0aappmqPu6gEW/r9/sbBAB8BIspEfmHLMvuWRWhYrzk8RZvJ6LJTx91Xe9yuv/JuSRJnnDacL4xgemjF2Q0GnkNhABWp0RVn83zvJHB/xMNFe+9957HZbmbnvXhdYDmXo9Tl9auXbtZVe9zFHA+JwDgz/NNDOCcaKjweANu8tPH+AG51eHFWMcYv+uxlYxGI2/LZW/k3gXAoSSE8MqkN0WcZKhwOZW0yU8fo9HI6wDNfU323nyUNE1vUFVXC4SpKksfA/Bq3dLS0kR3q51YqHA6lbTJTx+JiOzyeBXGGL/nrUzT09NrQgge14ZIGKwJwCtV3b127drNkzreJHsqPH57/u9NHTjLsuu9DDb8IDN7raqqY97KVZblXeL0U8NoNFrk1gXAqWQ0Gk2st2JiocLjvhaq+lqDx3b56aPJrd8/yvT09BpV/brXFutx2i0AfMD1k9pheSKhYjAYTKmqt6mkZ5rau2FqamqdiOx0eOGVvV7vgLtCleVdHnt1xmGZjZkAuKaqUwsLC9tXTKio63qb+BqxLyJysKkDJ0lyi8P6EBHZ521Jbu+9FKp6QgDAv4ls5DmRUGFmn3VYwT9f6Sf3Yo1GI3efPjz3Uoyv7X/kXgWgBa5aMaHC4VoMdYyxkfEUg8FgSia/VfeFPByPLywsHPVUJu+9FCIiTV1HAHCRNq6IUDE9Pb3GzLyFisNNDa5bWlra7nFZbo8DNL33UojIrLcgBgAf8eI4kXvpsoeKsiy3OnyI8unjd9VJkuzzVKCW9FI8wq0KQBuo6prxJIF2h4oQgsdlqA82eGyPsz4OetvnowW9FCerqtonANASnU5nqvWhwuEgzdmiKI43ceA8z69SVXerL8YYXX36aEkvxWMiUnObAoDJhYpERLZ5+sFm1uTAOo+9FGeqqjroqUALCwu7nfdSHK2qai+3DwCYYKjo9Xozqjrl6Qer6i8aPLzHpcr3eXvjNrOveG40qnovtw4AOH9PwnLefLd5+8ExxkZW0UzTNBNnvTZjP/BUmDzPt8mE5lNfaghraiVWAPBuWXsqQgjuxlNUVTXbSEWHcL34W0XzaFPjSz6K514KM1tMkuQBbhsA0ECoMDNv+30cavDY7j59xBj/3lN5BoPBelW9yWtjUdXHvM2SAYBVESrSNM0cznT45wbfcq93eP4PeCpMXde7xeeeKCIiJ3u93jPcMgCggVDR6XS2uPuxIRxq4rj9fn+rt9kMZna8qU9BHyFx/unjfm+brQHAqgkVZjbj7KFw+uzZsycaOrbHXgpX00jTNN3pcQ2PsUNlWR4UAEBjoeLPPf1QVW1sxL6ZuRtPoao/dVaeL3ttJCzHDQANhwpxNi0wxtjI+hTjwYfeliovi6JwMy1y7dq1m1X1eqdt5FBVVYe4VQBAQ6FiMBhMqaq3tQYaeTC899577h6W41VF3Sx4NRqNvuS1gdBLAQANh4pf//rXm509RM9VVdXIegyq+pcOz/tPnZXnFqftg14KALgIyzJ9z9vOpKp6vKk3c1V1NwumruvXvJRlvIKmywGa9FIAwEU+/5fp7/6Zs9/ZyPiBwWAwJc7GlpjZ4cXFxTOOivTXTtsGvRQA4CFUqOqMs9/5Lw31CMyIv8Wcfu6oLImI7PLYMFT1MW4PANB8qEjMzNvMj6MNHdfdpw8zc7PeQr/f3y4i6xzW0fHhcPgGtwcAaDhU5Hm+WVXXOPqNdVODNEMIrtbqMLNTVVUdcxT2vuCxUajq97k1AICDUBFj3OTsNzY2SNPhhmqvOSpLoqo3OGwTZZIk+7g1AICDUBFC8DadtJFPH+MN1bzVhZuppF4/fYjIvvn5+UVuDQDgIFSIyP/m7Dc2MkjT4YZq9Sc+8Qk34wS8fvoIIfDpAwC8hAozc/V2HmNsZDqptw3VROS4ozdwl58+zOyNpjadAwBCxXl46/LP87yRQZpm9hfOHphu9vpwPOuDXgoA8BIqpqam1olI5ughcWJubu5cE8f2tpKmqv7SS1lijP/FYaA4VVUV25sDgJdQ0e12XfVSqOrJJo47DlcbPdVFU2t1fITt3hqCqu4VR5usAcCqDxXib0nqRr6PJ0my1Vk9NLah2oeNZ8W4WxQsxvhjbgcA4CtUuJr5oar/o6FDzzg7z0cdvYVvF39Ll5/0tCgYABAq3udx4asmwoyrlTRV1c2njxDCZx22g/3cCgDAX6hwNaZiaWmpqemB2zzVg5n90lFZdrhrBCH8PbcCAPAXKjz1VJRNbPHd7/c3iLPpkk2t1fFhg8Fgvape5awNHGNtCgBwFirSNN3o7Lc1MvPD2w6tIlIuLCyc9FCQuq63e2sAZsYATQDwFipCCBuc/bam3j5dhaum9j75iLK4W58ixsh4CgDwFipExFuo+NeGHpzTzurBTahQVVfjKczsuJdeHAAgVDgOFU0tfCX+eir+2UM5xmNNNjq7Rt7gFgAADkOFmf2Rpx9W1/UsoUKk0+m46KmIMc54u/hjjL/gFgAADkOFOOup+OQnP3mKUCFnhsPhKQ8FcTjrQ0TkELcAACBUfKz5+fnTkz7m9PT0GlVd76gajnspiJn9ubNr/1hVVSW3AABwGCpU1VOomG3ioIuLixudnd9ZR2XZ7KxuDtH8AcBpqBBH3f5m1kiXf4zRW6iY81CIcQ+Ot88fP6f5A4DDUDEe2e8J4yneDzmzHspRFIW3QFEnSXKY5g8ADkNFXdeexhGIqp5u4rgO16hwESo6nc6Mp0oxs6Pz8/OLNH8AcBgqnI2nEBH5nw0ddyOh4rz+s7PQeYSmDwBOQ4WIZM7eRE83dGhXoaKqKi+hYsbZdf+vNH0AcBoqQgiuHqZNDdQUBqu2IlSMRqNjNH0AcBoqHJr4G7rDNSpmPRRiMBisF2c9WXmeH6fpA4DfUOFqgGKWZRP//OFtjQpVdREq6rre5KlezOz43NzcOZo+APgNFa408dBwuEbFrJNyeBvESy8FADgPFW4eqIyn+P+zlYdCxBi9TTf+Jc0eAHyHCk8PjbqhQ/8HZ/Uw66QcrurFzE7Q7AHAd6jw9Jbe1MPUVTe/qnqZ/eGqXrrd7lGaPQD4DhWe3kRrTqvI1NTUrJOieAoVdRO71wIAoeLibOQN3VWwOu1lhoOz1VZP0eQBwH+o8PRAbeph6ilYeZoy6SlUzNLkAcBxqEjTdKOnH6Sq/+9qP6kNLlP+O8YLXyWOqoaeCgDwHCocWvW7T3rpqfj1r3/tapCms6XLAYBQcR4bPf2gGOOZhh5Y67mcfi/csHstABAqWq1s6AG6xlEdeHkjzzxdGPRUAAChohWhwhkX02pDCJ7GUxAqAIBQ0Q5mto5a+D2uPn988pOfJFQAAKHCP1WdclQcHp7nwcJXAOA8VDgcjAeREVUAAGhdqDCzZLVX4mAwmOJSOu+18UfUAgAQKlorSZKJd3G/9957rsZTxBhnPZTD2YyYMzR3ACBUXJS6rs9xWnEei1QBABAq3EuSZA218PvMjM9CAECouIg/EMKqn0pZ17W31TRnPRRCVZlmCwCEiovC2yjcY+ErAGhHqADcU9WaWgAAQgUAACBUAD6YGYNpAcB7qIgxllSjL51OJ6EWfpeqsjU9AHgPFcKuoO4GAY5Gow1O6oW9NgCAUIGLfAtmEOD564WFyACAUNHiHxTCqp/iGkJg/MCHsDU9ABAqLlqMceIPjyzLvHXzexk/4GZpbGdb0wMAoeIj3opXfRf33Nwc3fznd5YqAABCxcX0DDAYzxkz+yS1AABoXajAb7nZWtvL9EkzczWANU3TjVymAECoaAO21v79UOFqqm0IYQNnBQAIFRfz4Fj1ixyx5fj5sQAWADgPFSEEV13cMcamplOWjh6eLqZPdjodFgUDAELFRT3EXT04VLWpB0fJ5fS7vK2oqap/xFkBAMehotPpuOqpUFX2vRDJPBSCwAkAhIqLMhwOTzn7TdMNvZV7WqvCRaioqqp0Vi+ECgDwHCocPlAb6alQVU9d/ZmXgjirF0IFAHgPFTw43MnSNPUSLGa9VIqZcW0AgPdQ4amnwszWNHRcV2NLHK3J4ObzmKqu6ff7BAsA8BwqPPVUNLgWwZynE2tmG52Uw9UMkBjjDM0eAByHCmdjKppa+GnW2bn1Eir+p6dKUdWraPYA4DhUOBtT0cjCT96WpBaR/+DiAgvBVU+Fmf0ZzR4AHIcKcbbvRUODFGednduNTsrhLWzRUwEAzkPFWU8/KkmSiY+rqKqKUHEeS0tLJzxViqpunp6eXkPTBwC/ocJVT0WDUwc9BQsXsxwWFxfPOBusmZRluZmmDwBOQ0WM8YynH9XgxlFuQsV4SerESVmOOrvuZ2j6AOA0VHgbjNfgHg+uxg/0er2NHsphZq4+gYQQGKwJAF5DhfgbjNfUzIdZwtV5H+L/7Oz62E7TBwCnoWJpaYmeivfNOTu/Gz0UwltPhYjMOFrGHAAIFR+0uLh4RkQ8LVPdyKqaqjrr6uSG4CJUFEVx3NkCadLpdHbQ/AHAYagYc/MJpKnZH3Vdzzo7v9NeCqKqxz1VTIzxv9D8AcBvqHDzQB3v/zHxmQ95nnsbW7LRUdA75qxuttP8AcBpqPC2cVSaphPvrZibmzvnrB5mHJXlXzxdH6q6eTAYrOcWAAAOQ4Wz/T+a3Pp71lE1ZL1eb5OTh/gxbxf/e++9dz23AABwGCpExNVulA1u/e0pVEiSJDNOynFMfA3mlRDCZ7kFAIDDUOHt84eI/OeGjutqXEWM8S88lGN+fn7RzLytrLlTnKw6CgCEit8NFd4GKTbV7e9qrQpV3eKoOIecXSPr+v3+dm4DAOAsVIi/1SSbChWu6sHMtjg6J7/w1gBijF/gNgAAzkJFlmWuPn+YWSOhoq7rI87C1VSe51d5KEuSJIfF2bgKVb1B+AQCAL5Cxdzc3DkROenpYdrv9yc+A2S81berT0FmNuOhHONxFUectQE+gQCAt1Ax5m2Ph80NHddbb8WfOyrLP3prBHwCAQCfoeKkpx8XY2wkVKiqq105PY2riDEe8tYI+AQCAD5Dxf/t7GHxJw0d95iz87zFy0Mzy7Ij3jYXEz6BAIC/UBFj9Pb5o5HBmqPRyNV6DKq6Jk1TF4M15+bmzqmqt3EVYmb/J7cDAHAUKkajkaudKJuaAVJVVSnOPgWFEDytV+FuaqmZ3ZKmacYtAQCchIrFxcUzIlI6ekPfPBgMphp6SB1zdq7/zFFZ3vDWEFR1TQjhDm4JAOAkVIwfpq4+gdR1PdNQqPgnZ+d6q5eCFEVx2OEKrGJmX+KWAACOQoWqugoVMcZGuv1DCN72uZjx1L2vqq96awyqujlN0+3cFgDASagQkX919QNDaGSNhvGunJ4kqrrTUXl+7LFBqOqXuS0AgJNQEWN0NUCxqdUkx6tHuhq4qqqf81IWr59AVPWmwWCwnlsDADgIFUmSuPr8oapXNTVY0+F6Fdc7OzevOmwTSV3Xu7k1AICDUHH27NkTZrbo6UeORqNG1miIMf7S2flel+f5Nkfl+bHTdvFlYYVNAGg+VIy56vZvarBmp9M54vCc8wnk421M03QXtwcAcBAqVNXbzIdG1mj41Kc+dUycbfUtfAK5sIYRwjeE3goAaD5UiMi/OHtwNdJTMd4O/rizc77F2UBEr59ANtFbAQAOQkWM0VtPxVXT09Nrmjiwmbn7BFLXtZuppY4/gdBbAQAeQkWWZSfEV7d/UpZlIytKhhD+0dtJN7PPOSvS3zptH/RWAEDTocJjt38IYXsTx+10Oq+Jz3EVbt7Au93uSw7r6DfXDb0VANBkqBi/DXv7BPLZJg46XgTrkKeKUNWpfr+/3Ut55ufnT5vZAadthN4KAGg6VIizwZpmtqWpN05V/bm3Ex9j/Jyz8/N9r41EVfc0NSYHAAgV4m81yfHbeVObix10eO497QMiVVUd8rbD7QeunQ0LCwsPcrsAgIZChcMNtcTMtjdx3LNnz54QkVlnD8rNvV5vk7Pz43XAppjZ1/v9/gZuGQDQQKjwuKGWiPxlgw+l17yd/E6n422swF4zO+exoajqGjN7nFsGADQQKsY3Ym+DNRvb90JV/7vD8/9FT4WpqqoUkX2O28uufr+/VQAAkw8VIvJPzn5vlqbpTBMH7vV6hxy+hW9M03S7pwLFGP/Wc4OJMT7NbQMAGggVIYTDDn9zIw/R8dodh9xdACG46q1YWFg4KiJHvTYYVd2aZRlTTAFg0qFivA36aWcP0c82ePifersAzOymwWAw5aw34DHPjUZV9wgLYgFomSzLlv15vNyfP0RVXe19YWY7mnogxBjdDdZU1an33nvvJk9lqqrqgIgcc9w22RodQNuU4x7zdoeKGOMvvD1E0zRtZMDmwsLCSY9rMXj7BDK+bh7x3DpZvhtAm0xq48YwgWMccvh23uRqkh4Xwtrubc2KFvRWbMrz/CYBgHaYyFCEZQ8VVVUdN7NFZ6Hi+gbfcH/u8WrrdDrueitU9THnjfRzAgDtMJGvBpPoqahFxNsskJnBYLC+iQN/6lOfOuwtZImImNlub2UaDocHROSk40a6nfsUgDYws4n0kocJ/R5v61XIe++910hvxdzc3DlVfcNhr8CGfr+/w1mxauczQTamabqR2xUA54HiVFVVx1ZMqDAzd+tVNDyu4r85vfDcfQKpqmqfOO6tCCFs5pYFwDNV3Tuxe+IkDpJl2RFvq0k2Oa6i1+sdEJHSYahwt2aFOO+tiDGuFwDw60yM8bsrKlSMu/yPOKvorKl9HObm5s6Z2X6HaXZNXdfu1l9w3luRcc8C4PjF57HxvkorJ1SMuZv1YGb/taljhxD+zuk1+GWHZarN7H6PlRVCWMNtC4BHZnYky7IXJnpPnOCxPK7PcEtTBx4Oh0c8LoQlIjNpmt7grVBlWR40M48DXD3PTgGwegPFqW63e+MkVtFsJFQURXF8Uit6XYRNTe1aOn4g/cDjxaiqX3Varvvl/SnKnhqux2AIYHUHikUz+6v5+fmJ770VJnw8d70VIYS/burYSZLs8/aQHD+8t3nbEv0DwfQlR0Wqe70ePRUAPJlV1asnNYW06VDxU4cnoLFPIOMU+ZrHq1JVv+40gT8kTmbOmNmhSXctAsAfuCcdTpLk6qIojjf2oj7Jg3W73UPeppZK859AXA7YVNXrm6yXj1JVVWlmDzupI5frjQBYdWHitIjcXZbltU188mgsVMzPzy+KvyW7G/0E8qlPfeqgiJzxeKGGEL7lsVxlWb7gYSzD0tLSAW5nABp00sweTtP0j4uieEEcfE6/7FBhZhf1T1U9bqjV2CeQcff5fqcX7E5vu5eO1SGEexsuw97FxcUzAgATuOeJyKyZHTaz/THG+0ej0Z8Oh8M/LYri0dnZ2XMX+gxebjqJg3zQunXrNscY/83bGYsxfrqpgS1pms6EEH7l9GLeWxTF7R4Lluf5P4jIzkkf18zOdbvdP550N2Oe5++KyEbur7gC1/D+NE1vZ0xQ68+juzJNeqCmnD179oSIzLqriAY/gYzDzDGnF+0tTe3o+rGJWPVuaeDTkao+0fR3S+AyPFqW5a0ECqyIUDF+UHmc8XBLkwePMXodsLmmrmuXM0GGw+EpEbltwtfuG0VRPMqtAy1Ui8idRVE8TFVgRYWKEMKPHdbFpl6vt6Wpg49GI5drVowfpHelaZp5LFtRFK+JyKMTqofj3W73Rq/nCfgD1+6iqn6+KIqXqA2suFAxHA4PicMZD51Op7Gtv8eD/jwuZS6quiaEcJ/Xi3j85rXcweJkt9u9bjyDCWhToDilqlcPh8M3qA2syFAh728QdcBhfdwyPT29psHG/wPH18rfeO2t+E2wMLPblmkdlANJknyacRRooaPdbvczTS6GBELFZA4cgseFg9b9+7//+86mDl6W5WvieIvvEMJXPV/MZVnuM7OrzezIFQp550TkoaIobqSHAi10MEmSawnDWBWhwusnkBjjlxo8fB1jfMzrxWJmX0vTdKPnC7qqqmNlWV4tIneOV5m7pHxiZt/pdrt/XBTFd7hNoIWeIwxjVYUKcfoJRFV39Pv9DY11B2TZ/st4GC533axR1cfbcGEXRfFSWZb/UVWvG29CduZjAtOivD+m5e4Y4x+XZfkQb3hooVpEHiiK4l5hQDGaeE5MevEMVf3t/93v93eY2esO6+WhJt9Q0zS9L4TwtOPr5pqiKA637WLv9/sbzGzj+F8yvh7PhBDODIfDo95vwix+hY8LxmZ2W1VVB6iNVXPOCRUfDBUikuR5/r9EZJ2zE3WiLMv/1NTxp6en1ywsLPwvEcmcXshHxp8YQKiAjzZ5OoRw43A4PEJtECqaFBo+vtdPIJvzPN/W1PHHK919z+uFrKpbsyzbRZMGfLwEmdnVBAoQKsTtLBAxsy82efwY4zPj7/xePd7k9FsAIiJyqNvtfqaqqlmqAoQK8TsLRERuaXJdhqqqSlV1u/qdqm5YWFh4kCYENGZvURQsyAZCxYd4/QQyJSK7myxDkiRPLNNiTleEmX3V62ZjwAr3SFEUt5tZfaFbXvNv5f0jVHz0w+nvXVZOCF9p8vjjKY37HPdWTNV1/Tj3d2CiL2G3FUXxbaoChIqPUFXVIXG4HbqIbMqybGeTBYgxPiG+pzrubnIjNmAVKUXk2rIs91EVIFR8PK9bf3+5yeMvLCycdLpPym91Op0naUrAsjoZQri6jevDgFDR1Bv5Xqd1tLPX621qsgBm9pjz62h7v9+/ieYELEv7P5IkyTVnz549QW2AUHGBxlOiDjl9E/9Kw3VzTJxui/6BUPi0511MgZYGile73e51LBkPQsWlPZj+zmk97R4MBlMN1813PV9IqrohhPAsTQq4YoHiqbIsb2bKKAgVl+gTn/jEq04XfMrqum50BcnxYNZDzq+nXXwGAS5bLSJ3l2X5AFUBQsVlGCfy/U7fGr7SdBlijI+04O3q+ampqXU0LeCS2s+imd1YFMUL1AYIFVeAqnqdBXJVmqY3NFmGqqoOmdmrzq+pdUmSPE/TAi46UJw2s2vKsjxIbYBQcYWMp0yddBosvtp0GWKMD3leZXNcTzex4RhwUYHieLfb/fR4UDZAqLjCDcxrb8W2NE23N1mGhYWFkyLynPcLS1Wf7ff7G2hiwMfe717rdrtXM8MDhIrlKlQIe8XpKpKq+g0HN6HHxOcmbB+UmRmfQYA/3JZfKMvyr5jhAULFMhoOh6e8riKpqjvSNJ1psgxVVZUi8nALrq+deZ7fQTMDzuuhsizvFt/L8APtDxXjh/f33FZaCN9qugxFUbxkZsdb8Cb2dJqmG2lqwG/bxDlVvbkoiu9QGyBUTO6heVhEjjkt3g15nl/VcBnqEML93i8wVZ0KIbxMUwPen+GhqtcNh8NXqQ0QKibv+47L1vhMkOFw+IY4X757bHuWZffQ3LDKA8WJGOM1bAoGQkVDer3ePvE7IHFX0xuNiYiMRqP7pR3fZB/nMwhWcaA4XNf1NePZWwChoglzc3PnzOwlp8VLOp1O4zNBxjcp96vvqeqUqj5Ok8MqDBT7y7K8dnFx8Qy1AUJF0wUM4fuO38Rd9FbEGB8WkbIFweKWPM+30eywijxaluWtwgwPECp88Dy9VESSEMKepgtRVVVpZg+35Jp7mmaHVaCOMd5eFMXDVAUIFf7ecL/nuGy3NL1uhYhIWZYvmNmJFpzOLR56d4DlYmaLqvr5qqr2UhsgVDjkfHqpOBkrUKvq/a246EK4haaHFWq20+l8ZjwzCyBUeBVj9NxbcX3Te4KMw9dr0oIppqr6f9D0sAIdTZLk6rNnz56gKkCocK6qqn1mdsrxg3KPk3LcLf4Hbc7Q9LDCHEiS5Fo2BQOhoj1qM/uu41CxLU3TG5oux3A4PBVj9P4ZJFm7du1mmh9WiOeKoriZTcGAdoUKybLsBXG8O+d4T5Ck6XKMB4i5/gwyGo0YrIm2q83s3qIo7hWmjALtCxVzc3PnxPfS3TNpmu7yUBDvn0HMbB3ND21lZosxxpvLsnyO2gBaGipERGKMz5iZ225GVd0zPT29pulyeP8MEkLg2zPaGihOxxivrarqALUBtDxUVFVVqqrXpbtFVTcsLCw86KSu9oqIyxtfjPEczQ8tDBQnzOzqhYWFo9QGsAJChYhIkiRPmJnbh5KZfd3L5llLS0t3is9xKCXNDy0LFG90u93PVFU1S20AKyhUjKdt7fNaPlVd42XzrMXFxTPj8RWenKmq6hjNDy2ytyzLzzPDA1iBoUJEJMb4hDgece1p86zhcPiqmb3q6Y2Ppoe2MLOHi6K4XZjhAazcULGwsHDS8UZjv/G0OJhiKiJS1/Xd4uQziKr+gqaHFqjN7LayLB+lKoAVHirGbxCPOS/iljzPd3soiKPPIGWMcT9ND86dEZFry7LcR1UAqyRUVFV1zMxcP6DMbE+appmHsgyHw1el+bEoz1VVVdL04NjJEMI1440MAayWUCEiEmN8WHyPrVivqt9wVF/3NrWHipmdS5Lk+zQ7OH4JOJwkyTVsCgas0lAxHlux13MZVfW+PM+v8lCWcS9BU59BHmDDJTgOFK+maXod1yiwikOFiEi3233Y87oVIpKY2YviZNBmWZYHzeypCR/2AEsaw3Gg+E5ZljePtwIAsJpDxfjNwvUDS1W3pml6j5fylGX50ASnmZ6MMd5Oc4NDtYjcXZblQ1QFQKj44JvGY+J8lUZV3eNlpU0RqcuyvFVEDi3zeTmeJMk1DM6Ew3vGooj8VVEUL1AbAKHid4wfWt9zHiqmQgjPenpL6/V6nzezZbmpmtnhbrd7Nd+o4TBQnFbVq4uieI3aAAgV59Xr9b5jZt4fYDvzPL/FS2Hm5ubOlWV5t6reLFeop8fMzpnZw+NBbyxrDG+OdbvdTxdFcZyqAAgVf/ABaWZPtKCoz05NTa3zVKDhcPhqkiT/SUSeucxBr/tCCH9aluWjDHqDN2b2WpIk19B7BiwPNbPJHlB1uQ+R5Hn+byKyyXnd7x3vJ+DOYDBYX9f1V8xsh6pukY+ZtWJmx0Xkv4UQ9g6Hw1M0q+WR5/m7IrKRmrjkQPFCWZb3ygraw2PS929gNYYKGX9e+JH7yle9bjgcut5cazAYTNV1vS3GuD6E8MEH2mkRmR2NRicXFhZO0pQIFc49UBTFUyvtRxEqQKiYQKgQEcmy7C1V3ea8/mdjjJ9mZgQIFcv20F0MIdw+XqJ+Jf4+TjJcCSv1h5lZG7o5N6rqi1yGwLLcA06r6udXaqAACBUTNN5sbK/3cqrqTXme38WlCFzRQHEixsimYACh4sqp6/ohcb4g1vgG+KSXvUGAFRAoDpvZ1Yz1AQgVV9Ti4uKZGOMj3supqlMi8sPp6ek1XJLAZdlXluW1jFMCCBXLoqqq58ysDdsYzywsLDzJJQlcskeKorhNVtCUUYBQ4U+tqve3pKz3pGl6A5clcHFtPMZ4e1EU36YqAELFshuv73+wFSckhBf7/f4GLk3g45nZYozxuqqq9lIbAKFiYkaj0f2Xufz0pKwzsx/Kx6xiCUBmO53OZ6qqOkRVAISKiRqPBH+mJcXdnmXZg1yewPmZ2ZEkSa4+e/bsCWoDIFQ0Ik3TR0Rktg1lVdVv5Xm+jUsU+D0Hut3udWwKBhAqGjU3N3dOVe9sSXETEflhmqYZlynwW88URXHz/Pz8IlUBECoaN97Aa29Lissy3sD7ajO7tyiK+4UpowChwpMY4/0icqYNZWUZb6x2ZrZoZjeWZfkctQEQKtwZr7Z3b4tuqizjjdUaKE7HGK8ty/IgtQEQKtwqimK/tGTtCpbxxioNFCdCCJ9ZWFg4Sm0AhAr3Yoz3mllbBnyxjDdWU6B4o9vtfmY4HJ6iNgBCRStUVTVrZg+3qMj3ZFm2k8sWKzxQvFSW5eeZ4QEQKtoYLJ4zsyNtKa+qPjsYDKa4dLFCA8XDZVneKczwAAgVLVWb2d0tuoltrOv6cU4bVliYOCcit5Zl+Si1ARAqWq2qqmMi8lCLinzP2rVrN3PmsEKcUdXrxoOnARAq2q8oiqfM7LW2lHc0Gn2Rs4a2G8/wuKYoisPUBkCoWFG63e7t0pJFsURkl7CTKdodKA53u91r2RQMIFSsSOMNim5rQ1lVdUOe5zs4a2hpoNifpimbggGEipWtKIrXpD1bpM9wxtDCQPGdsixvnZubO0dtAISK1RAsHhCRYy24Of8ZZwstUovInWVZPkRVAISKVXXzG41GN3tfbVNVmQGCVhi3pb8qiuIlagMgVKw6CwsLJ83M+6ZjGWcKLQgUp1T16vGnRQCEitWpqqq9ZsbceeDSHet2u58piuI4VQEQKnjLen+1zVlqArhoB5MkuYYZHgChAmNVVZWqeqs4XMbbzLhZw6vniqK4kU3BAEIFPmQ4HB4REXe7marqEc7OqjLbgjLWIvJAURT3CpuCAYQKnN94Ge83nIWKf+LMrB5mdsJ5+RZV9daiKJ7ibAGECnzMG1gIwdsy3vRUrK5Q8c+Oy3Y6hHDdcDh8lTMFECpwAYbD4akY451ObuKvDYfDU5yV1aPT6bwhPsf2nDCzq8efCQEQKnChqqo6ICLPOSjK9zkbqy/Umpm3noBDZnZ1VVWznCEAhIpL0Ov1ml7G+2RZliwktAqZ2ROOirOvKIrrqqoqOTMACBWXaLwR0m0NLuPNyPpVqqqqYyJyyEFRHimK4jauQwCEiiugKIrjqvpAA4d+juWOVzcz+26Dh6/N7LaiKL7NmQBAqLiyweIFEdk3wYfJ8fGnF6xiZVkeFJFnmjh0jPG6siz3cRYAnI+a2WQPqLrS6jDJsuxHqnrTMgeKE91u91qWPMYkr7sPmA0hfP7s2bMnqHo/Jn3/Bj4OPRWXry7L8tblHJVPoMD5rrtut3u7mR2ewIPrSJIkVxMoABAqJhcsbo4x3m9m567w395b1zWbMuH3zM/PL9Z1faMs70ykfd1u9zquPwAXgs8fV1ie51eJyMsisuUy/9TJGOOdVVUd4jLFx0iyLHtQRL6hqmuuxB80s1MhhPtZIdM3Pn+AULHCQ8Vv9Pv9HTHGL6vqDSKSXMR/eijG+HdZlu0fT10FLsjatWs3j0ajl1V162U+qF4ws4dYf4JQARAqnBkMBuuXlpZ2qOpfiMg2EbnqAyGjFpHjInI8xvhLMzu4sLBwkssSlyHJ8/wOM/trEdl2ET0XZ0TktRjjD+gdI1QAhAoAHw60U6PR6PoY4+dUdbt8qMdsvHjbQVX9aVEUR4SFrAgVQNtCBQAAWJmY/QEAAAgVAACAUAEAAAgVAAAAhAoAAECoAAAAhAoAAECoAAAAIFQAAABCBQAAIFQAAABCBQAAAKECAAAQKgAAAKECAACAUAEAAAgVAACAUAEAAAgVAAAAhAoAAECoAAAAhAoAAECoAAAAIFQAAABCBQAAIFQAAABCBQAAAKECAAAQKgAAAKECAACAUAEAAAgVAACAUAEAAAgVAAAAhAoAAECoAAAAhAoAAECoAAAAIFQAAABCBQAAIFQAAABCBQAAAKECAAAQKgAAAKECAACAUAEAAAgVAACAUAEAAAgVAAAAhAoAAECoAAAAhAoAAECoAAAAIFQAAABCBQAAIFQAAABCBQAAAKECAAAQKgAAAKECAACAUAEAAAgVAACAUAEAAAgVAAAAhAoAAECoAAAAhAoAAECoAAAAuFj/3wBqmW20F7mQLwAAAABJRU5ErkJggg==;rotation=-180;" parent="1" vertex="1">
                    <mxGeometry x="1050.63" y="240" width="90" height="90" as="geometry"/>
                </mxCell>
                <mxCell id="13" value="" style="html=1;verticalLabelPosition=bottom;align=center;labelBackgroundColor=#ffffff;verticalAlign=top;strokeWidth=8;strokeColor=#0080F0;shadow=0;dashed=0;shape=mxgraph.ios7.icons.bluetooth;pointerEvents=1;fillStyle=auto;fillColor=default;gradientColor=default;" parent="1" vertex="1">
                    <mxGeometry x="1241.39" y="480" width="67.23" height="130" as="geometry"/>
                </mxCell>
                <mxCell id="14" value="" style="html=1;shadow=0;dashed=0;align=center;verticalAlign=middle;shape=mxgraph.arrows2.arrow;dy=0.6;dx=40;notch=0;fillStyle=auto;fillColor=#0080F0;strokeColor=#00264A;rotation=-180;" parent="1" vertex="1">
                    <mxGeometry x="1170" y="617.75" width="210" height="50" as="geometry"/>
                </mxCell>
                <mxCell id="16" value="" style="sketch=0;pointerEvents=1;shadow=0;dashed=0;html=1;strokeColor=none;fillColor=#434445;aspect=fixed;labelPosition=center;verticalLabelPosition=bottom;verticalAlign=top;align=center;outlineConnect=0;shape=mxgraph.vvd.phone;fillStyle=auto;" parent="1" vertex="1">
                    <mxGeometry x="1406" y="562.75" width="118" height="200" as="geometry"/>
                </mxCell>
                <mxCell id="19" value="&lt;font style=&quot;font-size: 20px;&quot;&gt;&lt;b&gt;Neuhauser&lt;/b&gt;&lt;/font&gt;" style="text;html=1;align=center;verticalAlign=middle;resizable=0;points=[];autosize=1;strokeColor=#00CC00;fillColor=none;" parent="1" vertex="1">
                    <mxGeometry x="1227.3900000000003" y="110" width="130" height="40" as="geometry"/>
                </mxCell>
                <mxCell id="20" value="&lt;font style=&quot;font-size: 20px;&quot;&gt;&lt;b&gt;Marek&lt;/b&gt;&lt;/font&gt;" style="text;html=1;align=center;verticalAlign=middle;resizable=0;points=[];autosize=1;strokeColor=#3333FF;fillColor=none;strokeWidth=2;" parent="1" vertex="1">
                    <mxGeometry x="1060.6299999999999" y="110" width="80" height="40" as="geometry"/>
                </mxCell>
                <mxCell id="26" value="" style="verticalLabelPosition=bottom;shadow=0;dashed=0;align=center;html=1;verticalAlign=top;shape=mxgraph.electrical.radio.aerial_-_antenna_1;strokeWidth=4;" parent="1" vertex="1">
                    <mxGeometry x="26" y="110" width="90" height="130" as="geometry"/>
                </mxCell>
                <mxCell id="58" value="" style="html=1;shadow=0;dashed=0;align=center;verticalAlign=middle;shape=mxgraph.arrows2.arrow;dy=0.6;dx=40;notch=0;fillStyle=auto;fillColor=#0080F0;strokeColor=#00264A;" vertex="1" parent="1">
                    <mxGeometry x="1170" y="670" width="210" height="50" as="geometry"/>
                </mxCell>
                <mxCell id="61" style="edgeStyle=none;html=1;strokeWidth=4;startArrow=classic;startFill=1;endArrow=classic;endFill=1;" edge="1" parent="1" source="62" target="16">
                    <mxGeometry relative="1" as="geometry">
                        <mxPoint x="1465" y="470" as="sourcePoint"/>
                        <mxPoint x="1570.815" y="549.9975" as="targetPoint"/>
                    </mxGeometry>
                </mxCell>
                <mxCell id="126" style="edgeStyle=none;html=1;entryX=0;entryY=0.5;entryDx=0;entryDy=0;exitX=1;exitY=0.5;exitDx=0;exitDy=0;strokeWidth=4;" edge="1" parent="1" source="62" target="121">
                    <mxGeometry relative="1" as="geometry">
                        <Array as="points">
                            <mxPoint x="1590" y="400"/>
                            <mxPoint x="1590" y="335"/>
                        </Array>
                    </mxGeometry>
                </mxCell>
                <mxCell id="127" style="edgeStyle=none;html=1;entryX=0;entryY=0.5;entryDx=0;entryDy=0;exitX=1;exitY=0.5;exitDx=0;exitDy=0;strokeWidth=4;" edge="1" parent="1" source="62" target="123">
                    <mxGeometry relative="1" as="geometry">
                        <Array as="points">
                            <mxPoint x="1590" y="400"/>
                            <mxPoint x="1590" y="203"/>
                        </Array>
                    </mxGeometry>
                </mxCell>
                <mxCell id="128" style="edgeStyle=none;html=1;entryX=0;entryY=0.5;entryDx=0;entryDy=0;exitX=1;exitY=0.5;exitDx=0;exitDy=0;strokeWidth=4;" edge="1" parent="1" source="62" target="124">
                    <mxGeometry relative="1" as="geometry">
                        <Array as="points">
                            <mxPoint x="1590" y="400"/>
                            <mxPoint x="1590" y="500"/>
                        </Array>
                    </mxGeometry>
                </mxCell>
                <mxCell id="130" style="edgeStyle=none;html=1;entryX=0;entryY=0.5;entryDx=0;entryDy=0;exitX=1;exitY=0.5;exitDx=0;exitDy=0;strokeWidth=4;" edge="1" parent="1" source="62" target="125">
                    <mxGeometry relative="1" as="geometry">
                        <Array as="points">
                            <mxPoint x="1590" y="400"/>
                            <mxPoint x="1590" y="660"/>
                        </Array>
                    </mxGeometry>
                </mxCell>
                <mxCell id="62" value="" style="shape=image;verticalLabelPosition=bottom;labelBackgroundColor=default;verticalAlign=top;aspect=fixed;imageAspect=0;image=data:image/png,iVBORw0KGgoAAAANSUhEUgAAAgAAAAIACAMAAADDpiTIAAAAA3NCSVQICAjb4U/gAAAACXBIWXMAAA7OAAAOzgHOX8X3AAAAGXRFWHRTb2Z0d2FyZQB3d3cuaW5rc2NhcGUub3Jnm+48GgAAAwBQTFRF////AAAAAAAAAAAAAAAAAAAAAAAAAAAAAAAAAAAAAAAAAAAAAAAAAAAAAAAAAAAAAAAAAAAAAAAAAAAAAAAAAAAAAAAAAAAAAAAAAAAAAAAAAAAAAAAAAAAAAAAAAAAAAAAAAAAAAAAAAAAAAAAAAAAAAAAAAAAAAAAAAAAAAAAAAAAAAAAAAAAAAAAAAAAAAAAAAAAAAAAAAAAAAAAAAAAAAAAAAAAAAAAAAAAAAAAAAAAAAAAAAAAAAAAAAAAAAAAAAAAAAAAAAAAAAAAAAAAAAAAAAAAAAAAAAAAAAAAAAAAAAAAAAAAAAAAAAAAAAAAAAAAAAAAAAAAAAAAAAAAAAAAAAAAAAAAAAAAAAAAAAAAAAAAAAAAAAAAAAAAAAAAAAAAAAAAAAAAAAAAAAAAAAAAAAAAAAAAAAAAAAAAAAAAAAAAAAAAAAAAAAAAAAAAAAAAAAAAAAAAAAAAAAAAAAAAAAAAAAAAAAAAAAAAAAAAAAAAAAAAAAAAAAAAAAAAAAAAAAAAAAAAAAAAAAAAAAAAAAAAAAAAAAAAAAAAAAAAAAAAAAAAAAAAAAAAAAAAAAAAAAAAAAAAAAAAAAAAAAAAAAAAAAAAAAAAAAAAAAAAAAAAAAAAAAAAAAAAAAAAAAAAAAAAAAAAAAAAAAAAAAAAAAAAAAAAAAAAAAAAAAAAAAAAAAAAAAAAAAAAAAAAAAAAAAAAAAAAAAAAAAAAAAAAAAAAAAAAAAAAAAAAAAAAAAAAAAAAAAAAAAAAAAAAAAAAAAAAAAAAAAAAAAAAAAAAAAAAAAAAAAAAAAAAAAAAAAAAAAAAAAAAAAAAAAAAAAAAAAAAAAAAAAAAAAAAAAAAAAAAAAAAAAAAAAAAAAAAAAAAAAAAAAAAAAAAAAAAAAAAAAAAAAAAAAAAAAAAAAAAAAAAAAAAAAAAAAAAAAAAAAAAAAAAAAAAAAAAAAAAAAAAAAAAAAAAAAAAAAAAAAAAAAAAAAAAAAAAAAAAAAAAAAAAAAAAAAAAAAAAACyO34QAAAP90Uk5TAAECAwQFBgcICQoLDA0ODxAREhMUFRYXGBkaGxwdHh8gISIjJCUmJygpKissLS4vMDEyMzQ1Njc4OTo7PD0+P0BBQkNERUZHSElKS0xNTk9QUVJTVFVWV1hZWltcXV5fYGFiY2RlZmdoaWprbG1ub3BxcnN0dXZ3eHl6e3x9fn+AgYKDhIWGh4iJiouMjY6PkJGSk5SVlpeYmZqbnJ2en6ChoqOkpaanqKmqq6ytrq+wsbKztLW2t7i5uru8vb6/wMHCw8TFxsfIycrLzM3Oz9DR0tPU1dbX2Nna29zd3t/g4eLj5OXm5+jp6uvs7e7v8PHy8/T19vf4+fr7/P3+6wjZNQAALGJJREFUGBntwQeYFGXaNtC7JzFDzggM0CBIVhxAUImKmWAEVsEEKuqKrkoS04qKKNKNEWEFCYqgIiCSTaCsSpBFycFWyWEYYPJM9/3/fm4wwFPVVW9VveNV5+BPr8Ed495ctmF/MeMQPfjdRzPD9zSBr2Qrf+UrO2jDj//oXRm+kqrei7m0rfD1M+AriZpNLaIS0dlnw1fSVHk7RnXm1YSvRLloL5U6fBV8JUep52NU7R9l4Sshaq+nA7Y3ga9EqLWNjtjbGL4SoOZWOmRPI/i0V3MLHbO7IXyaK72RDvqpKnx6e5WOeg8+rV1Bh90En8aq7afDjtWDT1/z6LhPA/DpqiNd0AM+XS2gCz6HT1PNY3TDefDpaSpdMQ8+LaUX0hWxpvDp6F665DH4dDSfLlkBn4YSj9ElhWXg0097uuZS+PQzkq55Dj79LKVrvoZPP/vompwAfLqpQlnkyzh8XUBRA/h004mS7eciLpVHUdIDPt3cRcmViFPCOgqGw6eblynYj7gNomAGfLr5jIJliFsHCr6BTzeHKQgjbpUoyEuETy+nUTIQ8dtLQSP49NKNkvaI3zIKroJPL/dSUh7xC1PwMHx6mUTBD7DgNgpmwqeXVRR8CAvOo2ADfHo5RsGzsKACBQVJ8OmkDiU3wordFDSFTyeXUZIBK5ZQcC18OnmQgmgarBhHwWPw6eQNCrbDkgEUzIZPJ6speB+WtKdgE3waScih4ElYUo6CohT49HE6JX1hzY8UtIBPHz0paQFrFlLQBz59PERBUQqseY6CUfDp400KNsKimymYA+UCFU9vl1EzEX9WKfXaX333UxOfH3Hb1e1LQal/UTALFrWlYCtUqnjZU58eKOLPovvXLx7bMRF/Mk2Hrizm/+SvePqyMlAlMZ+CR2FR2RhPrTgVqlS6f32Mv3NoypWl8afRcdwO/tHxV8+CGk0ouRpWfU9BK6jRdnIuTyrv1Zr4U2j/KU9lVb8EKHANJWfAqgUU3AAVGi3hqeU8XQElXtM5lKw5B/Y9RkFeIqwaQ8HTsC/18XyKjjyYihKt6j+KKYu+Vhl2zabgG1h2IwXzYNuFO2hoS2OUYM120tihq2HTJgqmw7LWFOyATSnPx2hC1qUosS47RlMmloYdKUUUDIdlpWM8tWhp2NJsPc2JPogS6t5imrS5FWxoSUl3WLeTgtaw4+5cmjatFEqgxNdoXv59AVj2F0qCsG4+BTfCuuoLGI+PSqPESXyTcVlUHVY9ScGJAKwbTcEYWHb5fsbnozSUMIlvMk77L4VFcyn4Cjb0o2AhLEp9kXH7KA0lSuJbjFtsXAqsKPM9Ba/DhrMpWfdgbVhw5ne04KM0lCCJM2nFN00Qr4Ru07IpuR82pEYpin48sCLiE7gvn5Z8lIYSI3Emrcm5DXFp9sxuGrgYdmynkfw516bCvJpLaNXyNJQQiW/Tsncrwaxqg9fQWC3Y8T5NODb5wgSY0+sQrVuehhIhaRZt+LETzCh13QdFNCETtjxJc/aOaw1jpSfQluVpKAGSZtGW6KgkGDn/taM0ZyVs+QtN2/JoQ8gyttCm5WnQXtJs2vXP+pA0eGwHTXsVtpzJeHx1WymcUsLQQtq2PA2aS5pN+45dj1MJdP+M8fgrbClVzLjsHVIOJ5f+MVVYlgatJb1DJaaWw8kk9P0X49MF9mxhnI4+WR0ncW0m1ViWBo0lvUtFdpyDP0gesI3xqgp73mPccl8K4nfKTqYyy9KgraR3qUzh8AT8RunBPzFuB2DTE7SgaHoL/No526nQsjRoKvk9qvRRbfxPhREHacFHsKkPLYl9cB7+I/HhIiq1LA1aSn6Pah3uhX+r9lQWLRkPm1rQqhWX4//UW0nVlqVBQ8lzqNwrafj/0sM5tOh22JRSQMvW/yURuD6L6i1NhXaS36cDNrZEw0kFtCwDdi2mDTvvmkFHLE2FZpLfpyPyPiymdT/AtjuopaWp0EryXOpoHGyrEaV7Dk+eVkhzlqZCI8lzaU7x8z2fPUDXnA/7PqNbYmNTgGYRmrM0FdpImUdzci4EUHUeXbI+APvOLqQ79l2MnwUjNGdJKjSRMp/m5HTF/xmUSzfkt4QKI+mKBdXwi2CE5ixJhRZS5tOcnK74tybr6IIHoUTiP+m8vHvwX8EIzVmSCg2kfEBzcrriv1Kei9FpSxKgRvo3dNp3LfErwQjNWZIKz6V8QHNyuuLXuu2hsyYlQ5XS79BZL6fhN4IRmrMkFR5LWUBzcrrit6q8TwcV3QOFAo/m0zmHeuL3ghGasyQVnir1Ic3J6Yo/uC2HDime0w5qVR26kw5ZXgt/FIzQnMWp8FCpD2lOThecROO1dMKRZ+tBvcAlr/1E9QqHBnAywQjNWZwKz5RaSHNyuuCkksdEqdi257skwSlnDl9RTKW2tcEpBCM0Z3EqPFJqIc3J6YJTuWA31Sn+7MHGcFjFPlMPUJkpZXFKwQjNWZwKT5RaRHNyuuDUKr9LNY7OvL4SXBFo+9hqqpDVB5JghOYsLgUPJC2iOTldIBqQTduyJnRNgpsajYrQrs/rQRaM0JyZ8MBrNCe7Mww0Wk1bosuuT4PrAl2nnKANxY8lwkgwQnMeg+v+RnOyO8NQ8ugoLdv5SF14pEz/ZVFaFDkfJgQjNKcvXHZFlKZkd4YZXX6kJdlvdA7AS+kjNtOKtyvAlGCEpuS1g6taHqcp2Z1hTqXZjN+XA8rBe+fPiTJOJ26GWcEITdlbHi4KrKEp2Z1h2i0nGJfYgo7QRMNXchmP1Y1gXjBCU8bCRTfRlOzOiEPDr2he0bQW0EiVRw/QrNiYZMQjGKEZhWfANWX20IzsTohL0pNRmpMdrgvNpN62habsuRBxCkZoxgK45gmakd0J8er0A0049GhlaCjQ4zMam1cFcQtGaMalcEntXJqQ3Qnxq/g2jUT+mgZdtVtOWe6dsCIYoQmfwyUP04TsTrDkxuOUHH0gBTq7ZD0FG5rDmmCExmJBuGMzjWV3gkUN/slTKgxXhuYC/SI8lRdSYVUwQmMPwRWtaSy7IyxLeqKYJ/duQ5QApf52mCdz8ArYEIzQ0Ea4IkRD2R1hR4cIT+LL81FCVHg6l3+w5DTYEozQUCu4IHEfjZzoCHsqvMnf29UHJUjtfxTzNzLvC8CmYIRGHoMLmtHIiY6w7ZKv+GsHHiyFkqXxi1n8r6zHKsC+YIQG3oUL+tDAiY5Q4fLV/LfY8t4pKHlKD/h0dzEZ2/7ukEpQIhihbDNcMIqyEx2hSPoVD82a98pDNzVEiZVY66yyUCcYoagoBc6bS9GJDvA5Jhih6Ew4byclJzrA56BghJLecF6UghMd4HNU0ygFN8N5MQpGwOewORTcDOcV89QKKsHnsNcouBnOK6KgNnwO20rBzXBeAQV3wOesWyi5Gc7Lo+BwLfic1PAEJT3gvE2ULAvA55ykryiqB+fNpugB+JzzJEVZcMEjFBW0gs8pHaMUrYQLrqJsUxp8zqgQoexluKARDbwMnzPeooFb4IKEPTTQHT4n9KOB/Epww7M0cLAGfOoFj9HAO3BFCxpZCJ9yiV/QSHe44xsauQc+1R6lkQNJcMffaCSvBXxqtS+ikefhkuonaGRDKfhUKreTRrKqwy3DaSgMn0pv0NDf4JpSO2gkdgl86vShoU1JcE9PGtpXFT5V6hyloYvgpiU0NA8+RRI+paH34KozcmhoEHxqjKChfdXgrjtoKKcJfCq0KaSR2CVw21waWpcCn31lttFQCK6rupeGnoXPvkk0tL4U3HdxjEZiF8Bn11U0lNsMXhhHQ7srw2dPrcM0dBc8UWo9Db0Lny2B5TQ0Hx5plktDt8JnxwM0tK8qvHI3DZ1oCJ91rQpoJHYxvLOAhr5Ogs+qtE009Dw8VH0/DT0Jn1Wv0NA3KfDSZTQU7QifNd1pKLcpvPUCDf1QAT4rahykoUHwWOq3NDQTukkoX7txm649rr/jwcefGDKoX68L2jZNr5AIvQQW0dBceK5lPg31hy6Sm1w5bMqqIzyprK+nj7y2RSo0MZiG9laF9+6loWP14bmE1gOenb+1iIaiuxaGBp2XDK+1yKORWDdoILCYhr5IhJcCLQbPPcq4ZC8a0iYBHiq1gYbGQgunHaShx+CZRnfMOkBLjs4d3CIAj4RpaF0K9NCDhorPhReSuk/9ibYcePu6UvDAJTEayWkCXbxCQzvLwXWtxx+kAkdf6wC3VdtHQ7dDG2mbaGgq3JU+bCOV2fn46XDVRBp6HxppVUBDXeGesjcuj1KtL+6oBNecXkQje6pAJw/Q0BdwS50XsumA/MmN4JJpNBK7EFoJLKOhy+GK0ycV0CHRmS3hhkZRGnkWmql1mEbWwAXNZxTTQbG5beG822lkbQp0cyUNVYPTMt6L0WlLOsFpr9BATmPoZyKNXAJnnbuIrlhxEZz1BQ3cBg2V3koDI+CkGtPomnlBOOk4Ze9BS60LKZsF5yTcfZQuyh2ZAuccpmh3ZehpGGVvwTHnrKHLtl4Ex2ygaBw0VSqbonFwSKUJUbpvdm04ZAlFmWWhp/6UDYMjAjcfpCdOPJAER0ym7H5oKfAtZf3hhLor6JlvW8IJV1K2OwU6uoKygupwQM8j9FDuQDggcTdlA6CjFZS9DfWSn6fHppeFeo9RtjUB+jmXBrpAueBX9NzmllCuViFl10A/cynbCOWuPEoN5A6Eci9QthraaRKj7BoolhKmJqaXhWJVsyjrBt1MpuxLKFZvNbWxuTkUG07ZcmimdgFlnaHWmXupkaMdoFbqj5S1hV6eo+xDqNUxi1rJ6wm1bqLsPWil4nGKoi2h1JV51EzxACiVsJ6iaGPoZARlU6HUwGLac/SrhbNeDz857O6b+t85dFToH29/uOowbXoISl1E2evQSOp+ivLrQqWRtCy688Nxt3eugZOocv6tY+ZtKaJl4wNQaTFFhenQxx2UjYVCCS/Smuia5y4rCwOpXUd9XkhrZqZAoTOjFI2DNhK2U5RVGeokv00LYhvG96oIk8pcMubrYlqwtAwUmkJRdmXo4jrKhkOdwFuM35aRdRGn6veuZfyWpkCdOoUUjYAuvqLoQBrUGc94HX7pHFjSfMxuxmtmAOq8QdFmaKIxZY9BnRGMT/T9K1NgWUK36QWMz3io05Ky1tDD4xTlVYMytzIuhZPPgE21wzmMy0NQZxFFYehhG0UToUzPYsYh76V6UKDa6GOMxwAocyFF+xOhgzYUxZpClQ65NO/Es6dBkYqPHqF5xT2hzDqKLoUOxlG0EKq0OErToq9UhkJlRxfStLwOUOV6imZAAwl7KLoQitTZQ9NWt4FiTT+haUebQ5GkHyjJKQvvdaVoPRRJXkWzjt6VAPVu2E+zNpeFIn+jqD+8N4mim6DIWJo1rTocUeHFKE2aDkXKZVGyBJ5LyaRkbwrU6BGjOXsvgGPabKdJA6HIM5QU14TXelH0ENSoe4TmLK0OB5WfTXNyW0KN2sWU3A+vzaIkrzKUSF5FU4ofToCz7sqnKZvLQo0PKVkHj5XNpWQ21BhLU/Z2geMydtCU6VDjOoqawVv9KOoOJXrEaMay6nBB+XdoykAoUSqTkqfhrYWUHEiCCnWP0IwJCXDHEzQjtyWUeIWSHwLwUrUiSsJQ4hOa8Xe45s4oTfg2CSqcQ1FneOkuijKgwg00IXonXHRNPk14AEpsomQSvPQ5Jd9BhQr7aCz/WriqcxaNnagNFYZRkr8sPPDc8vBA1c53vRKjZChUeIHGjnWFy87cS2OzoUKtYhr6cdFzN7cpA5dU7jjoxY8P0Ei0FhRoVUxDx9vAdfX30thFUGExzYntmj/6hlapcFDF828fv3wfzVkKBQKraKjgQnjgzCwa2poCBfoyHsVb5zzRp3kyFCt/7sDQ0j2MRz8oMICGor3hic75NDQSCqRmMW6FG2c9enXjRChQrt2tzy/+iXE7URr2VT5EQ3+FR66J0khuEAq8RYvy1785oufpCbCoTNubn1v4Q4zWvAsFXqOhUfDMnTQ0DwpcT1tyVod7lEecWt4/7/sY7RgA+86K0chEeOgJGroI9lUqpl3FXz7dDmZVvnnGftpWC/bNppHPEuGld2hkBRRYQRVWdg/AhPov5lCB9bCvSZQGDtaCp8rvoJFOsG8o1fjupmQYaDOrmEqMhn1TaSB2CTyWkU8DS2BfM6qyuTUklWdRlU6wrX4RDYyG5+6ikbawbxdVKXwoAafUbTdVyUqCbRNo4PMkeG82DcyFfS9QnZX1cXKpoRiVeQe21cqn7HA6NFB+O2WxlrDtYip0rANOpto3VOhW2BaigaughTZRymbCtpQTVOhEB/xR9e+oUi3YVS2Hsg+giRcpizaCbXOo0okO+L0aG6nSetj2NGW59aGJCvspmwzbbqJSJzrgt07bRKWehF3JhykbCW3cQFl+JdhV+iiVOloHv5a8hkpF68OuXpRtTYE+PqHsDtgWplofJ+BXnqFaH8C29yjrBo00LaToC9jWhIoNwf90iVKtS2BXpQKKZkIroyk7Hba9Q7UKzsJ/VPqRaq0JwK5BFBXWg1bKHqHocdhWbhPV2pCAf5tOtfbXgW2rKJoMzTxK0U7Y1zCTal2NXzSOUqmC82BbQ4qijaCZiscp6gD7umVRqa/wi9epVGE/2Pd3imZCO6Mpeg0KpC+mUl3xs/RCqvTd2bAvsIuSWEtop1oOJUdLQYWBmVRoMX4WokLRsaWgQEeK5kJDYYqugxIpl762n8o0BlAum6oUfzq4DpQIU9QWGqpdQMnbUCXhzOufmrs9SgXuBdCDKhRtfvfvvatBlQ2UrISWplNyIACl0jL6P7Pg+xhtmQ/gRdpTvG3OqL4tU6BStRglA6GlbhS1gAPKtr1l7KKfaNXxJGArrYrumPf0Da1SoV5vSvIqQEsJuykZDMeUP3dgeNleWnAu6tGC2K4PnumfkQanTKBkFjQ1hpK5cFjljoNe/Pgg4zIStzEusciHz97UpgyctY2SK6Cp5pQcTYAbqnW5+9UVR2jSZIyjWT8uGnvLOWXhgnRKDiRBV2spaQP3nNbt3omrsmhoHmbQ2O4l4wa0Lw/X9KckBG3dS8kQuC39kgcm76XkCyyjJPpx+LbzKsJlUyjJgLaqF1OwCF4o8ywFW/AvCla3ghd+oGA/NPY1BdnJ8ELiPp7aYeynoAu80ICSmdDYGErOgycm8dSiKOapHU6AF3pRMhAau4SSO+CJMAWgIAJPDKOkATRWppCCEDwRpgAUROCJyRR8D619TsFCeCJMASiIwBOrKHgdWhtFwS54IkwBKIjAE0couB5a60pBNBVeCFMACiLwQlVKakNrqUUUtIAXwhSAggi80IGCY9DcFgquhRfCFICCCLwwgIKvobm5FIyEF8IUgIIIvPAcBTOguTEUTIcXwhSAggi8MJ+CR6C5Wyj4Gl4IUwAKIvDCFgr6QHPnUZAFL4QpAAUReOEgBa2gucqUJMIDYQpAQQReyOOpxcpAd4coqAAPhCkABRF4IImCPdDeFxSkwwNhCkBBBB6oRMG30N4CCprCA2EKQEEEHqhDwSpo720K2sIDYQpAQQQeaEbBYmhvEgUXwANhCkBBBB5oR8E70F6Igl7wQJgCUBCBB7pRMBnae4KCfvBAmAJQEIEHrqQgDO0NpWAQPBCmABRE4IH+FIyC9u6kYAg8EKYAFETggbsoGALt9afgCXggTAEoiMADgygYBu3dRMHj8ECYAlAQgQf6UfAktHc3BQ/CA2EKQEEEHuhFwQvQ3jAK7oAHwhSAggg8cAEFU6C9Jym4Hh4IUwAKIvBAWwreg/bCFPSAB8IUgIIIPNCEgqXQ3usUdIEHwhSAggg8kE7Bl9DeLArawANhCkBBBB6oQMFGaG8hBY3hgTAFoCACDyRScADa+4qCWvBAmAJQEIEXciioAN0dpaAcPBCmABRE4IUDFLSF5mpQEEuAB8IUgIIIvPAdBf2guc4UHIYXwhSAggi88B4FT0Bzt1PwBbwQpgAUROCFpymYBc2No2AyvBCmABRE4IUbKfgGmvuQgqHwQpgCUBCBF9pRkBOA3nZS0AteCFMACiLwQkVKGkBrZaMUNIYXwhSAggg8sZ+CW6G1yygoSoYXwhSAggg88RkFb0Jrz1GwFZ4IUwAKIvDEaxTsg9bWUDAPnghTAAoi8MT9lDSDxipGKXgWnghTAAoi8MQVlNwDjfWiZAA8EaYAFETgidqUvA+NjaekNTwxk6cWRYyntg/e2ErB0QToawMFRxPghXK5PLUDOERBG3hiAiUdoa26MQrmwguVX6dgAzZSsKgGvNCbkknQ1khKBsNlCaf3HDHjKCXL8TElx18Z1KES3FYtRkFWKnS1hZIWcE3C6T2GT1+XS0Nv4m0a2rN03IB25eCiDZT0hqbOoeRAAC5IaNBj+LS1uTQphPE0Jxb5cMyNGWlwxXhKFkBTL1EyC84KNOg+bNraHMblTgxmPKLb5z75l5YpcFgvSoqqQ0sphym5A04J1O8+bOqaHFrQEM0Yv6JN7zx2bZMkOKZilJL7oKUrKWoE9QL1rxg6dU0OrdoFYDctKvjXWyN7NUyAE9ZQ8g209D4lP0GpQPCKIW+szqY9EwBMpi25a6cOvbxeAGqNoagbNHRGlJKpUKXC5UPe+DqbKlwNoC8VOP7lP/52US0o04aiT6ChKRR1hxLVb1tUSFXyKgCoWkRV9k+8OBlqbKLofGgnWETJwSQoUGpslAq9jJ9NpUKZodJQYQRFC6GdVygaDwXO2kCViurhZ01jVGlbOyhQJ0pRBjRTK5+i1rCvfwGVegO/mEOlih+FAh9R9B408zxFG2FfhwIqFW2CX7SlYvfDvpsoijWHVqplUzQMttU9QLXexH8spFrFl8K2sjkULYVWJlIUTYddCeuo1t4q+I86R6lW1hmwbQZlvaGRdjGKlsO27lQrdjH+pw8Vexu2XUzZ7rLQRuI6ym6EbYuoVhi/No1qFaXDrsQ9lI2FNv5KWXZZ2NUwRqW+S8Wvlf+eao2GbQ9RVtQCmqiRRdkLsG00lfq+Hn6rxUEqdaQU7CqfRdkKaGI6ZQV1YNt3VGlXXfxe8wNU6lLYNooGboEWLqCBSbAtSJV21sEfNdtPlV6CbVWyKTvRGBqovpey4tNh291UaFs6TqbpPioUgX1jaeBfqfBcwlIamAH7FlGdKeVwcqctoEItYFvNfBp4DZ57mAZizWFb6TyqcvganNod2VRmBOx7mUb6wmNdimngPdjXk6osqQlJw39SlS9gX71CGjjeEJ6qvpdGMmDfa1Rj+UUwkHDdGqoRrQr7ptDIulR4KGEZjSyCArupQPGs1jDjgiVUoj/sa1REI3MS4Z0JNHQu7GtF23KXDmsAs1qN/jpK22ZBgWdpaCI883camgYFHqYtmZ+N6lIK8al45YsbCmlLVjLsK/MTDT0Fj9xJQ0drQIF/0qIjKycMvrAmLEpu3mfUnG1RWnUBFLiGxu6FJ66N0tDdUKBujHE7vOLVey44DQqkZfQf8+EPtOBFqLCIhmLXwwNd82loTQIUeJjxOPTZK3/tWgOKlWs/MLx8H+NyJAUKNMynocIr4Lo2x2goeg5U2E5zDn768t1dqsNBVTrf/cqKTJp1HVR4nMYKr4fLLjxOYxOgwvk0dPCTl+/qXA0uqXXx317/6gSNLYIKqTtoLHYvXNW7gMYOVoIKkyj54aU7O1eF+wLB7sNnfJNPSTQdKlxKM56Ci/4apQk3Q4W0Y5TcBC9VKaBkJJR4h2ZMTIRbRtGMFQGocD0lOeXgqfco2Q4lKv9AM+akwhWJE2nGkbpQYiklb8FbvSjqBCXOLaQZ6xrCBbU+oxmxHlAiPUrJ5fBW8iFK3oAaD9KU433huEsO0pSxUGMEJQeS4LEXKckuByUC82nOa6lwVNLoGE1ZlQw1tlAShtfaUjQAalT+geb8qzEclP45zTlSF2p0oKgNPLeZklVQ5NxCmnPiFjjmqsM0J9YDisylZDO8N4Ki9lDkQZr1WXM4ov4HNGssFGkco2QkvFcnSsn7UCQwn2YVPlsGyqWMzKVZq5KhyERKYvWggY8oiTWBIpU20rQfr4Zi3bbStB/ToUiNfEpWQAc3UfQ6VEn/ieYtbAKF6s2keUeaQZUnKboNOiibTUlBLajS7AjNi85uBUUaTS6kebnnQZUymZTkV4QWplH0HJQ5L5fxWHAuFGg5M8o4FHWHMvdS9C700I2i4xWhTI9ixuXjC2FT27kxxuUWKJMUoagX9JCwm6IRUOdWxumb+6rDsgoDVzJOI6DOXyg6kgJNPEPR/lJQZwTjVbSgdyosSLpiVh7jNR4KraPoFeiiGWV3QKEXGL+sSR0TEJ+M0AHG7+0A1LmYsrbQxmqKtidCncALtOLo+/c0g0kNBs7cTyveSoY6gXUUfQp99KXsdqg0khbte/PWBgHIal//+ve0aHwACt1A2SXQR+I2ivaVgUoDi2lZzjeznujXtgL+oOzZfR6dsfoYrRsBlUp9T9E66GQAZY9DqV55tOnAxi+XvjflhSeHDRkVnvzOklXf7aVNxbdCqfsp6wOdpPxEUXZNKNXxKDWT2xNKVTxC0fZEaGUwZROhVss91MrRDlBrDGW3Qy+lD1JU3BxqBbdSI3taQK06eRTtLQXNPETZh1Cs6iJqY1UdKPYGZUOhmwpZlF0AxQLDi6iF2NhkKHZmlKKj5aCdpyhbG4BqHX6iBo70gHKLKXsK+qmWQ1k/KFflQ3puVV0o156y3OrQUJiy7xOhXGBIET0VG5sM9aZR9hJ0lF5AWU844Nwf6aEjPeCAKnkUFQWhpUmULYITKr9Dz3xSF054kLIZ0FPDYopiDeCIS3fQE/tugDOWURRrAU3NpOwBOCP18Xy6rviFCnDIdxR9AF21jFEUglMaLqLLVrWCYzIpuhbaWkLRLDjnmp/ookMDAnBMKmXrUqCpBscpWgEHlXm2iC6JvVYZDkqLUvYc9JT0T8rWwFGNphTSBdHZZ8FZWymLXQgtPUkDM+Cwei/n02FFU5vAae/QwJ4q0FCnKA0Mg+Nqjs2mg/In1IfzHqGROdBPpR9p5HK4oMqoLDokJ1QLbsigoYHQzjs0UlAdrij/0B464PDT1eCSeTSSfQY0M4CGXoZbEi+ekUOlCt7rlQzXtIrRyJpkaKVxNo3k14aLyt70UZSqrBpUCa56l4ZGQycpa2loPFxWZ8QmKrDr7w3htjqZNBLtAo08R0P7q8F9bcasidKG2IZwxwA80JuGfqoEbVwUo6HL4I2KvcZviNGKbRN6V4NX3qCh2dBF1b00NB4eqtZ7wlbG5Ycp/dPhpXI7aegWaGI+DX2bCo/VvuL+iZ8doKEjqyYPu7IBPNe+iEZOnA4t3E1DeS2gh4rtbxo9Z+OBXP5B3sEt858b0KEqdPEoDX2VBA20yKOhwdBMYoX0pm0v6NVv0F39r+zWrlmdSknQTeIXNPQkvJf6LQ0tDMAXt/rHaCTaEZ57kYYO1IDPgv40FKkAj3WnsSvgs2QmDb0Fb512kIZegs+aij/QUH94KbCEhr5Lhc+iTlEaOVYfHnqAhvLPhM+yp2hoVSI8c3YBDd0Hn3XJX9PQ4/BK6S00tDgAnw2Nsmmk+Dx4ZBINHToNPlsG0tCu8vDENTTWAz6b5tDQdHghPZOGXoHPrip7aOgvcF/CpzS0KQ0+27rFaCSrHlz3EA0VtIJPgbE0tDIRLmtXREMPwKdCynoaGgJ3JW+moWUB+JRolksjJ2rBVUNo6HBN+BS5m4amw001j9NQL/iUWUAjsfPgohk09Bp86lQ/QCNrE+CaDjS0pTR8Cl1OQ9fBNQtppCADPqVeopEFcEuNYhoZAp9aqRtpoKgaXHIfjXwUgE+xs/JpYDBcspYGjtSGT7n7aWA13NGMRq6GT73AMhpoAFeMoIFJ8Dmh1mHKroMrZlG2tQx8jriKslFwxWaKClvD55BJFM2DG1KLKRoGn1PKbKXke7ghg6JPEuBzTJtCSsrDBTdSkpkOn4NGUBKEC+6k5Fr4nJSQSUEQLriLgrXwOWsuBUG44K8UjIHPWaspCMIF91AwAz5HXUxJEC64l4LiM+BzUEYmJdXhgv6URILwOSYjk5IjcMPZFEWC8P1XclkolJFJ0Qq4IbWYokgQ6lQ+t0/neokoicoOWvivgzFG5j91AdTIyKTsVbhiM2WRIJRIHvj5If6s6KsBZVDCnPnqcf7Xik5QICOTBv4KV7xDA5Eg7EseuIv/c+ylOihBGs7mby1tDLsyMmmkM1wxjEYiQdh1wS7+Vv64qighqr1QyN/LuR32ZGTSyMEkuKIBDUWCsCXl2Rj/4PijZVECpD10jCfzfhXYkJFJQy/CJatoKBKEDU3W8aQODE6B5hJu3c1T2HsRLMvIpLFz4JK7aCwShGWDcngq39+YAJ1d/i1PLfZ8CqzJyKSxrXBL1UIaiwRhTdV5lHzbE9pq9zFl65vBioxMmvAIXPM+TYgEYcUl+2jg696J0FDg8k9oKPcuxC8jkyZkVoZrmhfThEgQcSsVjtHY9/eVhWZSbv6OpnxQDXHKyKQZg+Gil2hGJIg4tdhAc46OqQ2NVBi6h2btvxRxycikGZuT4KIqmTQjEkRc7smjaYXTzoIm0p87xjjExqfCvIxMmnI5XDWYpkSCMK/GQsZn2aXQwFlTCxmnDS1gVkYmTfkQ7kpaS1MiQZjV/SDjtv3huvBU1XvW0oK8wQGYkpFJU3ZVhcvS99KUSBCmpL1MS2If9S8NjyT3nFNIixbWgAkZmTTleHO47pw8mhIJwoRWm2jZ8cmdAnDfWaGDtOFgdxjKyKQp0e7wQF+aEwnCSOCBAtqy87H6cFW1+9bTrpfTIMvIpDlD4Im/05xIELJay2hb7IsRZ8IlTR74uIgKbDwLkoxMmhOCR0I0JxKE5KrDVOPHCd1Lw2GlLh6/g6rk3x/AKWVk0pwQPBOiOZEgTqnMJCqUt/DuIBxTa+D7J6jU0po4hYxMmhOCh0I0JxLEKbTZStW+G90QDkh/dG2Myh3qhZPKyKQ5IXgqRHMiQZxMwvBCOiC2qHsC1Or6bhGdMaE0/igjk+aE4LEQzYkE8Ud1PqVT1tWFQqetpHO2ZOD3MjJpTgieC9GcSBC/1/sonXOgA5Rps5tOKhgawG9kZNKcEDQQojmRIH6j3Bt0VEF/KNI7jw77qDZ+JSOT5oSghRDNiQTxK+130mEFZ0GJJnl03JFr8F8ZmTQnBE2EaE4kiP9IfLSIjttQCgokfkk3/KMMfpGRSXNC0EaI5kSC+EXwc7rhOSgwgu7Y1hY/y8ikOSFoJERzIkH8rN8xuiJaHbaVzqFLCkckAOdn0pwQtBKiOZHmQKW36JbbYNtVdM+eV9+O0pwQNBOiOYVvzc6laxbBtmnUUQjaCdEhP9G6wgqwKSmT1n1140o6IgQNheiErL/gsk9o2eWwKYOWLekKJD5SRPVC0FKI6q2sh//vnHejtGYIbLqR1hTPOhv/p/1OqhaCpkJUrOjhRPyi0cR8WvEGbBpDK/InNMR/lJtGtULQVohK7WiH/zltdBbj9zVsWsD4HXvmNPxa3ywqFILGQlRoSln8RrkHdzNe2QHYE2G89g2vgN+pt5LKhKC1EFXJvA5/kHLLJsYpCFvKxhifHXek4o8SHymiGiFoLkQ1PknHyQR6fsG4XAFbzmFc1vVJxMm130kVQtBeiAoUDkvAqXSYkU3zhsCWW2je8Te64tTKTaV9IZQAIdq2tTUkZfotKaZJb8CW52lS0cK/lIasbxZtCqFECNGmiWVgpOb962jKatiymKasubcGjNVbSVtCKCFCtOPwlTCl+egfaSw7ADt+orHIU01hTuIjRbQuhBIjROuW1YJZgS6vZ9FIfdhQgUayJnUOwLz2O2lVCCVIiBYVPBBAPFKvm19I0RWw4TyKCuddl4r4lJtKa0IoUUK0ZFMrxK3q3ZkUDIUNt1GQeXcVWNA3ixaEUMKEaMHLabDiAwqmwobxFHwAa+qtYNxCKHFCjNfB7rBmDAVrYMNyCkbDosSHixifEEqgEOOzqAYsupGCnACs20dBP1jWbifjEUKJ9DzjkDc4AKtaU1IfllWm5GxYV24qTYs+iBJqUCHN+rYlrCsdo6A7LOtEQTQVdvTNojlZl6HE6nyIpsTGp8KOXRQMg2V3UrAN9tRdQTO2NkYJFtxAE/ZfCns+oGAqLHuJgjmwKXFoDg0trogSrexbNBKbUhU2PUPBGlj2KQWjYFu9eZRt7xNASXfeSoq+7QjbbqQgJwCrDlHQFwr0jPDU9t+VjD+D7t/ylA4+mAT7WlPSABZVp6QFVEi+9qMYT+rII2XwJ5Fw06ooT+bTvilQoXSMgu6wqCsFRSlQ5Iznf+Dv7Qp3TcKfSY0B83P5GwWrnm4KVXZSMAwW3UPBRiiU3ueFNUdi/FnhT6vnj2yJP6HSPYePn71i+4ncH79ZNvPhzmlQ6AMKpsGiCRTMhmoJVZuc26JqAL74PUPBWli0koLH4NNHfwpyEmBNJgXXwKePDEoawJJalDSBTx+loxT0gCUXUZCfCJ9GdlIwHJbcR8G/4NPJfAqmwZJ/UPAWfDoZTcFaWPJPCh6CTyf9KchNgBXHKOgFn04yKDkdFtSl5HT4dJIWpaAHLLiMgtwE+LSyg4LhsOBBCtbAp5f5FEyHBVMomAqfXkZTsA4WrKZgKHx66UdBbgLiFsim4HL49HI2JacjbvUpqQefXtKiFPRE3HpQcDwAn2Z2UDACcRtOwZfw6WYeBTMQt+kUvA6fbp6m4GhlxKnyUQr+Bp9u+lHyelnEpdzrlFwMn27Opihn/ttx+CCXolrw6SYtStcchU8/2+iaFfDpZxJdMwo+/fSla7rAp5/qMboktxR8GtpAlyyFT0chumQYfDpqR3cUN4BPS5/RFbPg09PldEVr+PQU+JYuWA6frvrTBRfBp6uktXTcEvj01TSPDjtcEz6N3UuHXQOfzgLL6agp8Okt/SAdtK0cfJpreYiO2ZkOn/bOOkyH7KoDXwnQ6ggd8X1d+EqEs3+kA76rB18JUXEmVYuFU+ErOW7IolJ7L4avRKm3iOpE36wCX0nT9v0YlSh6owl8JVHzGcW0Le/levCVVNVvmLqXNuyacHUF+Eq2Fve98PYnGw/HGIfogQ3L3wzd2RB/ev8PrjxJ4bI4bxAAAAAASUVORK5CYII=;" vertex="1" parent="1">
                    <mxGeometry x="1399.25" y="334.75" width="131.5" height="131.5" as="geometry"/>
                </mxCell>
                <mxCell id="64" value="&lt;font style=&quot;font-size: 18px;&quot;&gt;&lt;b&gt;14 - 14.35MHz&lt;/b&gt;&lt;/font&gt;" style="text;html=1;strokeColor=none;fillColor=none;align=center;verticalAlign=middle;whiteSpace=wrap;rounded=0;" vertex="1" parent="1">
                    <mxGeometry x="80" y="220" width="90" height="30" as="geometry"/>
                </mxCell>
                <mxCell id="70" style="edgeStyle=none;html=1;entryX=0;entryY=0.5;entryDx=0;entryDy=0;entryPerimeter=0;startArrow=classic;startFill=1;" edge="1" parent="1" target="69">
                    <mxGeometry relative="1" as="geometry">
                        <mxPoint x="510" y="351.5" as="sourcePoint"/>
                    </mxGeometry>
                </mxCell>
                <mxCell id="84" value="" style="edgeStyle=none;html=1;" edge="1" parent="1" source="67">
                    <mxGeometry relative="1" as="geometry">
                        <mxPoint x="550" y="351.5" as="targetPoint"/>
                    </mxGeometry>
                </mxCell>
                <mxCell id="71" style="edgeStyle=none;html=1;entryX=0;entryY=0.5;entryDx=0;entryDy=0;startArrow=classic;startFill=1;" edge="1" parent="1" target="67">
                    <mxGeometry relative="1" as="geometry">
                        <mxPoint x="592" y="351.5" as="sourcePoint"/>
                    </mxGeometry>
                </mxCell>
                <mxCell id="73" style="edgeStyle=none;html=1;entryX=0.5;entryY=0;entryDx=0;entryDy=0;startArrow=classic;startFill=1;strokeWidth=4;" edge="1" parent="1" source="72" target="81">
                    <mxGeometry relative="1" as="geometry">
                        <mxPoint x="170" y="349.9999999999999" as="targetPoint"/>
                    </mxGeometry>
                </mxCell>
                <mxCell id="74" style="edgeStyle=none;html=1;startArrow=classic;startFill=1;entryX=0.5;entryY=1;entryDx=0;entryDy=0;entryPerimeter=0;strokeWidth=4;" edge="1" parent="1" source="72" target="26">
                    <mxGeometry relative="1" as="geometry">
                        <mxPoint x="40" y="280" as="targetPoint"/>
                    </mxGeometry>
                </mxCell>
                <mxCell id="72" value="" style="verticalLabelPosition=bottom;shadow=0;dashed=0;align=center;html=1;verticalAlign=top;shape=mxgraph.electrical.logic_gates.bandpass_filter;strokeWidth=4;" vertex="1" parent="1">
                    <mxGeometry x="20" y="313.5" width="102" height="73" as="geometry"/>
                </mxCell>
                <mxCell id="79" style="edgeStyle=none;html=1;startArrow=classic;startFill=1;entryX=0;entryY=0.5;entryDx=0;entryDy=0;strokeWidth=4;" edge="1" parent="1" source="81" target="80">
                    <mxGeometry relative="1" as="geometry">
                        <mxPoint x="320" y="350" as="targetPoint"/>
                        <mxPoint x="290" y="350.0000000000001" as="sourcePoint"/>
                    </mxGeometry>
                </mxCell>
                <mxCell id="80" value="" style="shape=sumEllipse;perimeter=ellipsePerimeter;whiteSpace=wrap;html=1;backgroundOutline=1;strokeWidth=4;" vertex="1" parent="1">
                    <mxGeometry x="310" y="310" width="80" height="80" as="geometry"/>
                </mxCell>
                <mxCell id="81" value="" style="shape=collate;whiteSpace=wrap;html=1;strokeWidth=4;rotation=-90;" vertex="1" parent="1">
                    <mxGeometry x="180" y="310" width="80" height="80" as="geometry"/>
                </mxCell>
                <mxCell id="88" style="edgeStyle=none;html=1;entryX=0.5;entryY=0;entryDx=0;entryDy=0;startArrow=classic;startFill=1;strokeWidth=4;" edge="1" parent="1" source="89" target="90">
                    <mxGeometry relative="1" as="geometry">
                        <mxPoint x="730" y="349.9999999999999" as="targetPoint"/>
                    </mxGeometry>
                </mxCell>
                <mxCell id="99" value="" style="edgeStyle=none;html=1;" edge="1" parent="1" source="89">
                    <mxGeometry relative="1" as="geometry">
                        <mxPoint x="500" y="350" as="targetPoint"/>
                    </mxGeometry>
                </mxCell>
                <mxCell id="89" value="" style="verticalLabelPosition=bottom;shadow=0;dashed=0;align=center;html=1;verticalAlign=top;shape=mxgraph.electrical.logic_gates.bandpass_filter;strokeWidth=4;" vertex="1" parent="1">
                    <mxGeometry x="580" y="313.5" width="102" height="73" as="geometry"/>
                </mxCell>
                <mxCell id="95" style="edgeStyle=none;html=1;startArrow=classic;startFill=1;strokeWidth=4;" edge="1" parent="1" source="90" target="94">
                    <mxGeometry relative="1" as="geometry"/>
                </mxCell>
                <mxCell id="90" value="" style="shape=collate;whiteSpace=wrap;html=1;strokeWidth=4;rotation=-90;" vertex="1" parent="1">
                    <mxGeometry x="740" y="310" width="80" height="80" as="geometry"/>
                </mxCell>
                <mxCell id="91" style="edgeStyle=none;html=1;entryX=0.5;entryY=0;entryDx=0;entryDy=0;startArrow=classic;startFill=1;strokeWidth=4;" edge="1" parent="1" target="92" source="80">
                    <mxGeometry relative="1" as="geometry">
                        <mxPoint x="448" y="349.9999999999999" as="targetPoint"/>
                        <mxPoint x="400" y="350.5" as="sourcePoint"/>
                    </mxGeometry>
                </mxCell>
                <mxCell id="92" value="" style="shape=collate;whiteSpace=wrap;html=1;strokeWidth=4;rotation=-90;" vertex="1" parent="1">
                    <mxGeometry x="450" y="310" width="80" height="80" as="geometry"/>
                </mxCell>
                <mxCell id="93" style="edgeStyle=none;html=1;entryX=0;entryY=0.5;entryDx=0;entryDy=0;entryPerimeter=0;startArrow=classic;startFill=1;strokeWidth=4;" edge="1" parent="1" source="92" target="89">
                    <mxGeometry relative="1" as="geometry"/>
                </mxCell>
                <mxCell id="94" value="" style="shape=sumEllipse;perimeter=ellipsePerimeter;whiteSpace=wrap;html=1;backgroundOutline=1;strokeWidth=4;" vertex="1" parent="1">
                    <mxGeometry x="872" y="310" width="80" height="80" as="geometry"/>
                </mxCell>
                <mxCell id="101" style="edgeStyle=none;html=1;entryX=0.5;entryY=1;entryDx=0;entryDy=0;strokeWidth=4;" edge="1" parent="1" source="100" target="80">
                    <mxGeometry relative="1" as="geometry">
                        <Array as="points">
                            <mxPoint x="350" y="520"/>
                        </Array>
                    </mxGeometry>
                </mxCell>
                <mxCell id="102" style="edgeStyle=none;html=1;entryX=0.5;entryY=1;entryDx=0;entryDy=0;strokeWidth=4;" edge="1" parent="1" source="100" target="94">
                    <mxGeometry relative="1" as="geometry">
                        <Array as="points">
                            <mxPoint x="912" y="520"/>
                        </Array>
                    </mxGeometry>
                </mxCell>
                <mxCell id="100" value="&lt;font style=&quot;font-size: 20px;&quot;&gt;&lt;b style=&quot;&quot;&gt;Si5351&lt;/b&gt;&lt;/font&gt;" style="rounded=1;whiteSpace=wrap;html=1;strokeWidth=3;" vertex="1" parent="1">
                    <mxGeometry x="571" y="490" width="120" height="60" as="geometry"/>
                </mxCell>
                <mxCell id="103" value="&lt;font style=&quot;font-size: 18px;&quot;&gt;&lt;b style=&quot;&quot;&gt;16MHz&lt;/b&gt;&lt;/font&gt;" style="text;html=1;strokeColor=none;fillColor=none;align=center;verticalAlign=middle;whiteSpace=wrap;rounded=0;" vertex="1" parent="1">
                    <mxGeometry x="586" y="280" width="90" height="30" as="geometry"/>
                </mxCell>
                <mxCell id="104" value="&lt;font style=&quot;font-size: 18px;&quot;&gt;&lt;b style=&quot;&quot;&gt;+30dB&lt;/b&gt;&lt;/font&gt;" style="text;html=1;strokeColor=none;fillColor=none;align=center;verticalAlign=middle;whiteSpace=wrap;rounded=0;" vertex="1" parent="1">
                    <mxGeometry x="445" y="386.5" width="90" height="30" as="geometry"/>
                </mxCell>
                <mxCell id="106" value="&lt;font style=&quot;font-size: 18px;&quot;&gt;&lt;b style=&quot;&quot;&gt;+30dB&lt;/b&gt;&lt;/font&gt;" style="text;html=1;strokeColor=none;fillColor=none;align=center;verticalAlign=middle;whiteSpace=wrap;rounded=0;" vertex="1" parent="1">
                    <mxGeometry x="175" y="390" width="90" height="30" as="geometry"/>
                </mxCell>
                <mxCell id="107" value="&lt;font style=&quot;font-size: 18px;&quot;&gt;&lt;b style=&quot;&quot;&gt;+30dB&lt;/b&gt;&lt;/font&gt;" style="text;html=1;strokeColor=none;fillColor=none;align=center;verticalAlign=middle;whiteSpace=wrap;rounded=0;" vertex="1" parent="1">
                    <mxGeometry x="735" y="390.75" width="90" height="30" as="geometry"/>
                </mxCell>
                <mxCell id="108" value="&lt;span style=&quot;font-size: 18px;&quot;&gt;&lt;b&gt;VFO&lt;/b&gt;&lt;/span&gt;" style="text;html=1;strokeColor=none;fillColor=none;align=center;verticalAlign=middle;whiteSpace=wrap;rounded=0;" vertex="1" parent="1">
                    <mxGeometry x="330" y="410" width="90" height="30" as="geometry"/>
                </mxCell>
                <mxCell id="109" value="&lt;span style=&quot;font-size: 18px;&quot;&gt;&lt;b&gt;BFO&lt;/b&gt;&lt;/span&gt;" style="text;html=1;strokeColor=none;fillColor=none;align=center;verticalAlign=middle;whiteSpace=wrap;rounded=0;" vertex="1" parent="1">
                    <mxGeometry x="840" y="410" width="90" height="30" as="geometry"/>
                </mxCell>
                <mxCell id="112" style="edgeStyle=none;html=1;entryX=0.5;entryY=1;entryDx=0;entryDy=0;strokeWidth=4;exitX=0;exitY=0.25;exitDx=0;exitDy=0;startArrow=classic;startFill=1;" edge="1" parent="1" source="111" target="100">
                    <mxGeometry relative="1" as="geometry">
                        <Array as="points">
                            <mxPoint x="630" y="637"/>
                        </Array>
                    </mxGeometry>
                </mxCell>
                <mxCell id="113" value="&lt;font style=&quot;font-size: 18px;&quot;&gt;I2C&lt;/font&gt;" style="edgeLabel;html=1;align=center;verticalAlign=middle;resizable=0;points=[];" vertex="1" connectable="0" parent="112">
                    <mxGeometry x="0.7327" y="-2" relative="1" as="geometry">
                        <mxPoint x="-1" y="-5" as="offset"/>
                    </mxGeometry>
                </mxCell>
                <mxCell id="115" style="edgeStyle=none;html=1;entryX=1;entryY=0.5;entryDx=0;entryDy=0;strokeWidth=4;startArrow=classic;startFill=1;" edge="1" parent="1" source="111" target="114">
                    <mxGeometry relative="1" as="geometry"/>
                </mxCell>
                <mxCell id="116" value="&lt;font style=&quot;font-size: 18px;&quot;&gt;SPI&lt;/font&gt;" style="edgeLabel;html=1;align=center;verticalAlign=middle;resizable=0;points=[];" vertex="1" connectable="0" parent="115">
                    <mxGeometry x="0.1706" y="2" relative="1" as="geometry">
                        <mxPoint x="34" y="-3" as="offset"/>
                    </mxGeometry>
                </mxCell>
                <mxCell id="111" value="&lt;font style=&quot;font-size: 20px;&quot;&gt;&lt;b style=&quot;&quot;&gt;ESP32-S3&lt;/b&gt;&lt;/font&gt;" style="rounded=1;whiteSpace=wrap;html=1;strokeWidth=3;" vertex="1" parent="1">
                    <mxGeometry x="950" y="562.75" width="189.38" height="297.25" as="geometry"/>
                </mxCell>
                <mxCell id="114" value="&lt;span style=&quot;font-size: 20px;&quot;&gt;&lt;b&gt;TFT - LCD&lt;/b&gt;&lt;/span&gt;&lt;div&gt;&lt;span style=&quot;font-size: 20px;&quot;&gt;&lt;b&gt;Display&lt;/b&gt;&lt;/span&gt;&lt;/div&gt;" style="rounded=1;whiteSpace=wrap;html=1;strokeWidth=3;" vertex="1" parent="1">
                    <mxGeometry x="40" y="591.37" width="410" height="240" as="geometry"/>
                </mxCell>
                <mxCell id="118" style="edgeStyle=none;html=1;entryX=0;entryY=0.75;entryDx=0;entryDy=0;strokeWidth=4;exitX=0.5;exitY=0;exitDx=0;exitDy=0;" edge="1" parent="1" source="117" target="111">
                    <mxGeometry relative="1" as="geometry">
                        <Array as="points">
                            <mxPoint x="631" y="786"/>
                        </Array>
                    </mxGeometry>
                </mxCell>
                <mxCell id="117" value="&lt;span style=&quot;font-size: 20px;&quot;&gt;&lt;b&gt;Encoder&lt;/b&gt;&lt;/span&gt;" style="rounded=1;whiteSpace=wrap;html=1;strokeWidth=3;" vertex="1" parent="1">
                    <mxGeometry x="576" y="841.37" width="110" height="78.63" as="geometry"/>
                </mxCell>
                <mxCell id="121" value="" style="shape=image;verticalLabelPosition=bottom;labelBackgroundColor=default;verticalAlign=top;aspect=fixed;imageAspect=0;image=data:image/png,iVBORw0KGgoAAAANSUhEUgAAAgAAAAIACAYAAAD0eNT6AAAAAXNSR0IArs4c6QAAIABJREFUeAHt3Qu0tVtd1/E/eLh5ScIURNPKG+IFFUQExAQveYEcjszUNHM4DCRFzLsmClJmZlGChkhq6RFIU0NKETUlNbzlqIQaoeZQUeRwR9BzDnbm4Tzr7He//7XfvdZ6LvPyWWO8Y693rfU8z5zf+Xvm/K71389eEYfd7hYRj4qIp0fET0XESyLiNRHxZ/5hIAMyIAMyIAOrZaCsvWUNLmtxWZPL2lzW6Nlv7x8Rz46INxjc1QaXVBFLGZABGZCBQzJQ1uiyVn/AHBbwLhHxzIi42cJv4ZcBGZABGZCBJjJQ1uzvuWX9frdjReDhEXGDwW5isA8xRK/1jkIGZEAGxsjAqyPi4w6VgMdExI0Wf4u/DMiADMiADDSdgZsi4osvKwFl8WeHGMiADMiADMhAPxm4pgSUj/298+9nwJ28xlIGZEAGZKBkoHwS8NH7Pgkov/Cn5i8oJgsZkAEZkIE+M1DW+LLWX3X7Lh/9K33IgAzIgAzIQNcZKGv9Fbf73vbxAOvr0/qMq3GVARmQARkoGSilgLLm727XM76ujc+J78SXARmQARmYMlDW/Ftvd42I1xMAAiADMiADMiADQ2SgrPll7Y9HGvAhBnwyPz+9C5ABGZABGShr/61fIiAMwiADMiADMiAD42SgfIHQrd8kZNDHGXRjbaxlQAZkQAbKtwje+nWCwiAMMiADMiADMjBOBspXCUf5TmGDjoEMyIAMyIAMjJOBsvZb/DGQARmQARmQgQEzYNAHHHSWT3xlQAZkQAYIAAGQARmQARmQgQEzYNAHHHTmz/xlQAZkQAYIAAGQARmQARmQgQEzYNAHHHTmz/xlQAZkQAYIAAGQARmQARmQgQEzYNAHHHTmz/xlQAZkQAYIAAGQARmQARmQgQEzYNAHHHTmz/xlQAZkQAYIAAGQARmQARmQgQEzYNAHHHTmz/xlQAZkQAYIAAGQARmQARmQgQEzYNAHHHTmz/xlQAZkQAYIAAGQARmQARmQgQEzYNAHHHTmz/xlQAZkQAYIAAGQARmQARmQgQEzUM2gPzQi/pJ/GMiADMiADHScgbLW1fLpSzUNKYu/GwIIIIAAAj0TKGsdATgHgQD0HHl9QwABBBAoBAjAucW/2BABcHIggAACCPROgAAQgN4zrn8IIIAAAgkBAkAAklh4CAEEEECgdwIEgAD0nnH9QwABBBBICBAAApDEwkMIIIAAAr0TIAAEoPeM6x8CCCCAQEKAABCAJBYeQgABBBDonQABIAC9Z1z/EEAAAQQSAgSAACSx8BACCCCAQO8ECAAB6D3j+ocAAgggkBAgAAQgiYWHEEAAAQR6J0AACEDvGdc/BBBAAIGEAAEgAEksPIQAAggg0DsBAkAAes+4/iGAAAIIJAQIAAFIYuEhBBBAAIHeCRAAAtB7xvUPAQQQQCAhQAAIQBILDyGAAAII9E6AABCA3jOufwgggAACCQECQACSWHgIAQQQQKB3AgSAAPSecf1DAAEEEEgIEAACkMTCQwgggAACvRMgAASg94zrHwIIIIBAQoAAEIAkFh5CAAEEEOidAAEgAL1nXP8QQAABBBICBIAAJLHwEAIIIIBA7wQIAAHoPeP6hwACCCCQECAABCCJhYcQQAABBHonQAAIQO8Z1z8EEEAAgYQAASAASSw8hAACCCDQOwECQAB6z7j+IYAAAggkBAgAAUhi4SEEEEAAgd4JEAAC0HvG9Q8BBBBAICFAAAhAEgsPIYAAAgj0ToAAEIDeM65/CCCAAAIJAQJAAJJYeAgBBBBAoHcCBIAA9J5x/UMAAQQQSAgQAAKQxMJDCCCAAAK9EyAABKD3jOsfAggggEBCgAAQgCQWHkIAAQQQ6J0AASAAvWdc/xBAAAEEEgIEgAAksfAQAggggEDvBAgAAeg94/qHAAIIIJAQIAAEIImFhxBAAAEEeidAAAhA7xnXPwQQQACBhAABIABJLDyEAAIIINA7AQJAAHrPuP4hgAACCCQECAABSGLhIQQQQACB3gkQAALQe8b1DwEEEEAgIUAACEASCw8hgAACCPROgAAQgN4zrn8IIIAAAgkBAkAAklh4CAEEEECgdwIEgAD0nnH9QwABBBBICBAAApDEwkMIIIAAAr0TIAAEoPeM6x8CCCCAQEKAABCAJBYeQgABBBDonQABIAC9Z1z/EEAAAQQSAgSAACSx8BACCCCAQO8ECAAB6D3j+ocAAgggkBAgAAQgiYWHEEAAAQR6J0AACEDvGdc/BBBAAIGEAAEgAEksPITA2ATeOiLeKyI+KCIeEhH3iYg7j41E7zskQAAIQIex1iUEDifwYRHxnRHx6xFxUzIvlMdeGhHPiIiPJwSHA7ZFdQQIQHKiFyhuCCAwBoEHRsTzknngz67x2A0R8XkRcYcxMOllhwQIQHKSE4AOk65LCJwj8ICI+LHk/L/Wwn/++Z+JiPc+t2//RaAFAgQgmQAIQAvR1UYEjifw5cl5f35hP+T/b7qlbPC1EXGn45tkSwRWJ0AAkomAAKyeQwdEYDUCX5Kc84cs9he99oV+N2C1cXSg0wkQgGQyIACnB8seEKiRwOOS8/2iBf2Y576txo5rEwIJAQKQTAgEIEmKhxBonMBjk3P9mAX+Mtt8RuOsNH8MAgQgmRQIwBjh18txCHxcRLw5Odcvs5gf85rXR8T7jYNXTxslQACSSYEANJpmzUYgIXBdRPyv5Dw/ZmE/ZJuXRET5g0JuCNRKgAAkEwMBqDWu2oXA4QQek5zjhyzkp7z2Cw5vri0QWI0AAUgmBwKwWv4cCIHFCWzx7n+Shhf7Q0GLj68DHE+AABCA49NjSwQqJ3C/5PyeFue1fj6sckaaNy4BApBMED4BGPeE0PO+CHxTcn6vtfBPx3lCX0j1piMCBCCZIAhARwnXlaEJ/Gpyfk8L81o/nz/0COh8zQQIQDJBEICaI6ttCFyOwN0j4ubk/F5r4Z+O89rLNderEFidAAFIJggCsHoOHRCB2Qk8Kjm3p0V57Z/vPHvv7BCB0wkQgGSSIACnB8seENiawLcm5/baC/90vI/YGobjI5AQIADJJEEAkqR4CIHGCNRQ/58E4HMbY6e5YxAgAARgjKTr5VAEaqn/TwLwj4air7OtECAABKCVrGonApcmUFP9v0jAcy7dci9EYD0CBIAArJc2R0JgJQI11f+LAPzaSv12GAQOIUAACMAhefFaBJogUFP9vwjA65qgppGjESAABGC0zOtv5wRqq/9Pvwdwr8656157BAgAAWgvtVqMwAUEaqv/TwLgUsALBs1TmxAgAARgk+A5KAJLEait/j8JwN9dqsP2i8CRBAgAATgyOjZDoE4CtdX/JwFwKWCdeRm5VQSAAIycf33vjECt9f8iAc/ujLXutE+AABCA9lOsBwjcRqDW+n8RAJcCimltBAgAAagtk9qDwNEEaq3/FwFwKeDRw2rDhQgQAAKwULTsFoH1CdRa/59+D8ClgOtnwhH3EyAABGB/OjyDQEMEaq7/TwLw0IZ4amr/BAgAAeg/5Xo4BIGa6/+TALgUcIgoNtNJAkAAmgmrhiJwEYGa6/+TADz5og54DoGVCRAAArBy5BwOgWUI1F7/LxLgUsBlxt5ejyNAAAjAccmxFQIVEWih/l8EoEiKGwK1ECAABKCWLGoHAkcTaKH+XwTgtUf30IYIzE+AABCA+VNljwisTKCF+v/0ewD3XJmNwyGwjwABIAD7suFxBJoh0EL9fxIAlwI2E6vuG0oACED3IdfBvgm0Uv+fBOBz+h4OvWuIAAEgAA3FVVMRuJpAK/X/SQBcCnj1GHpkGwIEgABskzxHRWAmAi3V/4sEPGumftsNAqcSIAAE4NQM2R6BTQm0VP8vAuBSwE3j4uBnCBAAAnAmDu4i0BaB1ur/RQBcCthWxnpuLQEgAD3nW986J9Ba/X/6PQCXAnYezEa6RwAIQCNR1UwEribQWv1/EoCHXN0VjyCwOgECQABWD50DIjAXgdbq/5MAuBRwrgTYzykECAABOCU/tkVgMwIt1v8nAfjGzag5MAK3EyAABOD2NLiHQEMEWq3/FwlwKWBDQeu4qQSAAHQcb13rmUCr9f8iAL/S88DoWzMECAABaCasGorAWQKt1v+LALzmbEfcR2AjAgSAAGwUPYdF4HgCLdf/p98DeKfju29LBGYhQAAIwCxBshME1iTQcv1/EgCXAq6ZGMfKCBAAApDlwmMIVE2g5fr/JAB/p2rCGjcCAQJAAEbIuT52RqDl+v8kAC4F7CyUDXaHABCABmOrySMT6KH+XyTgB0YeRH2vggABIABVBFEjELgsgR7q/0UAXAp42RH3uqUIEAACsFS27BeBRQj0UP8vAuBSwEXiYacHECAABOCAuHgpAtsT6KH+P/0egEsBt8/TyC0gAARg5Pzre2MEeqn/TwLw4Mb4a25fBAgAAegr0XrTNYFe6v+TALgUsOu4Vt85AkAAqg+pBiIwEeil/j8JwJOmjvmJwAYECAAB2CB2DonAcQR6qv8XCXAp4HE5sNU8BAgAAZgnSfaCwMIEeqv/FwH45YWZ2T0CFxEgAATgonx4DoFqCPRW/y8C4FLAauI1ZEMIAAEYMvg63R6B3ur/0+8BvGN7Q6HFnRAgAASgkyjrRu8Eeqv/TwLgUsDek1tv/wgAAag3nVqGwG0Eeqz/TwLw2UYZgY0IEAACsFH0HBaByxPosf4/CYBLAS+fA6+clwABIADzJsreEFiAQK/1/yIB1y/Ayy4RuAwBAkAALpMTr0FgUwK91v+LALgUcNNoDX1wAkAAhj4BdL5+Aj3X/4sAvLr+IdDCTgkQAALQabR1qxcCPdf/p98DcClgL2ltqx8EgAC0lVitHY5Az/X/SQA+fLhR1eEaCBAAAlBDDrUBgb0Eeq7/TwLgUsC9w++JBQkQAAKwYLzsGoHTCPRe/58E4ImnYbI1AkcRIAAE4Kjg2AiBNQiMUP8vEuBSwDXS5BjnCRAAAnA+E/6PQDUERqj/FwH4pWqIa8hIBAgAARgp7/raGIER6v9FAFwK2FgwO2kuASAAnURZN3ojMEr9f/o9gL/Q2wDqT/UECAABqD6kGjgmgVHq/5MAuBRwzJxv2WsCQAC2zJ9jI7CXwCj1/0kAPmsvCU8gsAwBAkAAlkmWvSJwIoFR6v+TALgU8MTA2PxgAgSAABwcGhsgsDSB0er/RQK+f2mo9o/AOQIEgACci4T/IrA9gdHq/0UAXAq4fe5GawEBIACjZV5/GyAwWv2/CMCrGhgXTeyLAAEgAH0lWm+6IDBa/X/6PQCXAnYR32Y6QQAIQDNh1dAxCPz5iLg5OS+nRbLnnw8aY4j1shICBCCZaAoUNwQQ2IbAiPX/SWpcCrhN5kY9KgEgAKNmX78rJTBi/X8SgG+odEw0q08CBIAA9JlsvWqWwKj1/yIBLgVsNrZNNpwAEIAmg6vRfRIYuf5fBOBFfQ6rXlVKgAAQgEqjqVkjEhi5/l8EwKWAI6Z+uz4TAAKwXfocGYFzBEau/0+/B/AO55j4LwJLESAABGCpbNkvAgcTGLn+PwmASwEPjo0NjiRAAAjAkdGxGQLzEhi9/j8JwN+eF6u9IbCXAAEgAHvD4QkE1iQwev1/EgCXAq6ZurGPRQAIwNhngN5XQ0D9P6JIwPdVMyIa0jsBAkAAes+4/jVCQP3/LQLgUsBGAttBMwkAAeggxrrQOgH1/7cs/uUTgFe2Ppja3wwBAkAAmgmrhvZLQP3/dgEoEuBSwH6zXlPPCAABqCmP2jIoAfX/KwXgwwbNgW6vS4AAEIB1E+doCCQE1P+vFACXAiYh8dDsBAgAAZg9VHaIwCEE1P+vXPxLCeDrDwHotQgcSYAAEIAjo2MzBOYhoP5/tQC4FHCebNnLxQQIAAG4OCGeRWBhAur/VwuASwEXDp3d30qAABAApwICmxKoqf7/mmQ+KB/Jr/3PpYCbRnKYgxOA5OQuUNwQQGB5ArXV/78jmQ/WXvyn47kUcPn8jX4EApCc8ARg9NNC/9ciUFP9//cj4pHJfDAtyGv/dCngWikc9zgEIDnhCcC4J4Ser0ugpvr/90fE+ybzwdoL/3Q8lwKum8URj0YAkhOeAIx4KujzFgRqqv9/fkTcJSJuTuaEaVFe86dLAbdI5FjHJADJyU4AxjoJ9HYbArXV/9/7Ngy/lcwJay7807FcCrhNLkc6KgFITnYCMNIpoK9bEait/j9xeH4yJ0yL8po//9vUID8RWIgAAUhOdgKwUNrsFoEzBGqq/19/pl1PS+aENRf+6VguBTwzKO4uQoAAJCc7AVgka3aKwBUEaqr//70zLfuSZE6YFuW1f97jTLvcRWBuAgQgOdkJwNwxsz8EriRQW/3/fc40z6WAZ2C42zUBAkAAug64ztVJoKb6/8vOIbpPMies/c5/Ot5nnmub/yIwJwECkJzsPgGYM2L2hcDVBGqt/5eW3tmlgFcPmEe6JEAACECXwdapugnUWv+fqNVyKeC/mxrkJwILECAABGCBWNklAvsJ1Fz/n1r9E8m8MH0sv+ZPlwJOI+LnEgQIQHKiKwEsETX7ROAtBGqu/09jVMulgDdMDfITgQUIEAACsECs7BKB/QRqqv//wJ5mPj6ZF9Z853/2WC4F3DNIHj6ZAAFITnSfAJycKztAYC+Bmur/j97TypouBXzgnjZ6GIFTCRAAAnBqhmyPwKUJ1Fb/L5f8ZTeXAmZUPNYbAQJAAHrLtP5UTKCm+v8fXMCppksBn3BBOz2FwCkECAABOCU/tkXgIAIt1P+nDrkUcCLhZ68ECAAB6DXb+lUhgV9Lzrezv/C25v3HXINPLZcC/uI12ulpBI4lQACSCalAcUMAgXkJ1Fb/f99rdM+lgNcA5OnmCRAAAtB8iHWgDQJ/PTnX1nzHf/ZYF9X/J5o1XQpY5MkNgbkJEIBkUvIJwNwxsz8EIv55cq6dXZTXvP+sSwzIJ1XUXpcCXmLAvORgAgQgOckJwME5sgEC1yTQUv2/dKamSwE/45p0vQCBwwkQgEQA1nwn4lgRrTO4MSJeHBE/GBFPiohPj4j7HX4udr1Fa/X/MhguBew6kjoXEQSAADS/ANcqEL8cEZ9gmrmVQE31/z88YExquRTw3x7QZi9F4LIECAABIAALZ+DnI+IRlz0jO31dTfX/Zx/A2KWAB8Dy0uYIEICFJ/9a351q1/qlh+dGxFs3N0XM0+Ca6v9fcECXnlrJ/PCKA9rspQhclgABqOQEtyCvvyBvwfwFA0pAbfX/+152dowIlwIeAMtLmyNAAAiAEsDKGRhNAlqt/5fZvKZLAT+0ueVFg2snQABWnvy3eNfpmPV9ujCSBLRa/y+Tt0sBa1/CtO8UAgSAAPgEYKMMfMspZ25D27Za/y+Iy6WAN22Uj/Pi/nUNjbmmtkGAAFRycp8/2f2/vnftc4/JH0fEvdqYJ45uZW31//c7oie/Wckc4VLAIwbPJhcSIACVnNxzLy7214ZA/IsLT8/2n6yp/v/yI3HWcingLxzZfpshsI8AASAASgAbZuCNEXHvfWdnB4/XVP9/zpE8XQp4JDibVU+AAGw4+XuX3sa79KXH6V9WP00c38Ca6v+PPbIbNV0KePcj+2AzBDICBIAA+ARg4wy8OiLulJ2djT/WQ/2/DIFLARsPoubvJUAANp78l353af9tfMrw1/aeou0+UVv9/w5HonyfiuaI8kVTbgjMRYAAVHRyW6zbWKyXGKenz3VGV7SfHur/BadLASsKlabMSoAAEAAlgAoyUL6h7o6zntrb76ym+v/fPxFHLZcCfu+J/bA5AmcJEIAKJv8l3lHaZ3ufJjzs7JnZ+P3a6v/vfyJPlwKeCNDmVRIgAATAJwCVZOApVU4RxzWqpvr/H0XEsfX/qfe1XApY+uKGwFwECEAlk7937O29Y597zH5nrrO6gv3UVP//9zPw+OKK5gmXAs4woHZxKwECUNGJPfeCYn/tSUUv3/jWU/2/zJQ1XQr4AIsXAjMRIAAEQAmgogz845lO7C1301v9v7B0KeCWiXLspQgQgIomf+/Y23vHPveY/e+lzvQV99tb/b+gq+lSwG+PiAf5tzqDD7ntz3a/1Yrn0tKHIgAEwCcAlWXg1N9YX3rSuNb+a6r//+C1GnvA87VcCji3dNrfYW88bo6I34uI74+IT42ItzsgQ7W9lABUNvk7GQ87GXvk1fr3vtdU///CGWfcHzdXeLOQZOBNEfG0Rr/amwAkA9rjoqJP7YjFf59x0Vp7V7XV/z9gRgC1XAroXK7zXH59RDzptnLRjLFbdFcEgACw+goz8B6LnvbL7bym+v8rZrj+/yypmi4FJAF1SkAZlxfe8onAO50NTsX3CUCFk7+Tu96Te62x+bKKJ42LmtZr/b/0+RPNFd4sXDID/y8i5vz06aJz7pTnCMAlB3Stid9xLP4lA79wylm94ba91v8L0pouBTRP1D9PlF8UvPeG5+JlDk0ACACrrzADb25g8jg/wdRW///A8w088f81XQpIAOoXgDJGL4qIu52YuyU3JwAVTv5O7jZO7qXH6bFLnvkL7Lvn+v+Ey6WAzs1Dz/tyhUCtNwJAAHwCUGkGXlDrrLGnXTXV/39oTxtPfdilgATgUAG48bby0anZW2J7AlDp5H9oyLy+v4nppoh4hyXO+oX2WVP9/4sW6uO3mS+8YTgiA3P+Qao5o00AjhhMi21/i22tY/q5c57tC+6r9/r/hM6lgM79Y+eK95pCVNFPAkAAGH3FGXhuRZPFRU2pqf5/w8zX/5/tt0sBCcCxAvDlZ4NUyX0CkEz+nxARH+TfsAxenGTi2JP+1O3Knxlt4W+Nj1D/L3O2SwEJwLHndI2X9hKAZLIvUNzGJVD+nOexJ/kS2316A0NRU/3/cQvyulNElN/NWGKc7bNvruXS3rdfMJvH7JoAJCczATgmSv1s88FJJracnJ9TOdra6v/3W5jXSyvLx5bZdOzDpKW2b/okAMnJTAAWnkEb2H1N13uXLxmp+Y+JjFL/n2LrUsDDFj2ScDuvj5lCVMlPAkAAKoliXc34liQXW05kZZGt9VZT/f8/rADJpYC3L2hbnhMtHvuzV8jnIYcgAMlE7xOAQyLU52sfnORiywnneyrGPEr9fxoClwISgGPngk+bQlTJTwKQTPQEoJJ0btiMO0TE7yfZOPbEP3W7V0ZE+QW02m6j1f8Lf5cCEoBjz+ePqOwEJgDJJE8AKkvpRs15apKNY0/8Obb72I04XHTYmur/RZKKuC19q2nSnCNX9rGe0Lzn0uE8cP81ZbmaS2sIwIEp6vTlj6hMAL6jQs411f9/eEU+v1tZNizi6y3ix7J+Q0TcZcWMXuZQBCA5kQnAZaLT/2uui4hXJPk4dgI4dbs/iIg7Voa9pvp/qc2vdfuBinJxaq5sv448LPUFVadkngAkJzIBOCVSfW37zCQfW06YNdUQa6v/l7/eudbtcyrLxZaZdOzLCcRnrRXOA45DAJITmQAckKDOX/pJST62nPDKR+613Gqr/6/56chdI+LllWVjy1w69sUSUP6WRxHm2m4EIDmJCUBtMd2uPaVm99okI1tNeL+9HYqrjjxq/X8C8cSKcrFVHh334oV/4lOyUuONACQnMQGoMarbten6JCPTib3Fz/tvh+KKI49a/58g3CMiXlZZNrbIo2NeLAHlk6Jav9CLACQnMAGYpjg/C4FPTTKy5aT35AqGpbb6f/n+hi1uj6wsG1vm0rFzESi/L1LrjQAkJzABqDWu27TrbSLijUlOtprwXrINhiuOOnL9/woQEfH0irKxVSYdN1/8n3I+LJX9nwAkJy8BqCylFTSnXGNe0yR3342Z1FT//5GNWZTLRcslXjXlQ1u2H4/ypVFvtXE2r3V4ApCcuATgWrEZ7/nyJR41Tapfu/EQ1FT/f/zGLMrh7xwR/7GyjNSU19HaUn5vqOZv8JxOGQKQnLQEYIqHnxOBu0fEnyZZ2Wpi+9WpYRv8VP/PoZfLEL+ispxslc9Rj/vmiPiaPB5VPkoAkkmdAFSZ1c0bVdv3wP/ljYjUVP9/VYV/HfEBEfFfk3ll1EVxlH6/ICLK2Ld0IwDJiUoAWorwem39/CQrW05u/2C9rl9xJPX/K3Ds/c9HRUSRxpsqy82Wme3t2G+KiB+LiBq/qGtvMM88QQCSk5MAnEmIuzsC94yIm5O8bDWplXeZW9xqqv9/yRYADjzm20fEp0RE+XbJ597ydcK/FBG/ExHlux38a4dBGbMXRUT5heAyln+z4uv7LxtRApBM6ATgsvEZ73U/m+RlKwEo9cZ3XnkIaqv/f8jK/Xc4BHoiQACSCZ0A9BTxefvyuCQvWwlAOe5j5u3eNfem/n9NRF6AQDMECEAyoROAZvK7ekPfLcnLlgLwkysTqKn+/6Mr993hEOiNAAFIJnQC0FvM5+1PqeFuueifPfaNEVH+Jv1aN/X/tUg7DgLLEyAAyWROAJYPXstH+MokM2cX5bXvr/W3xtX/W06ttiNwNQECkEzmBODqoHjkdgLvnWRm7UX/7PHW+ii8pvr/qyu8/v/2hLiHQBsECEAymROANsK7ZSv/R5Kbs4vymvfLtchvuwKMmur/5c/uuiGAwGkECEAykROA00I1wtbfkORmzUX//LE+bQXoNdX/t/ojSCtgdggEViNAAJKJnACslr9mD3S/JDfnF+U1//+shUnWVv+//8L9tXsERiBAAJKJnACMEP3T+/h/k+ysueifPdbrIuKup3dp7x5qq//X/jWre0F6AoGKCBCAZBInABUltOKmfHOSnbOL8tr3H7kgK/X/BeHaNQIbESAAySROADZKY2OHfVCSnbUX/bPH++4F+an/LwjXrhHYiAABSCZxArBRGhs77B0i4neT/JxdlNe8f0NEXLcAw9rq/6195eoCQ2KXCMxCgAAkEzgBmCVbQ+zkXyX5WXPRP3+sj14NmqJ8AAAVgUlEQVSAek31/9dEhPr/AoNsl0MSIADJBE4AhjwXjup0+c7384vwlv9/2lG9uHijmur/5et03RBAYB4CBCCZwAnAPOEaYS/l3egfJRnaSgJetsBfyKup/v+lI4RKHxFYiQABSCZvArBS+jo5zDOSDG0lAOW4D5mRq/r/jDDtCoHKCBCAZPImAJWltPLmfHySoS0F4J/NyEv9f0aYdoVAZQQIQDJ5E4DKUlp5c+4cEeWX07Zc9M8e+7dm5FVT/f/HZuyXXSGAQAQBSCZuAuDUOJTA9yU5Orsor33/gw/twJ7X11T//7I9bfQwAggcR4AAJBM3ATguTCNv9SlJjtZe9M8e7xtnGIza6v8fOkOf7AIBBG4nQACSiZsA3B4Q9y5H4K0j4g1Jls4uymve/43LNfvCV6n/X4jHkwg0T4AAJJM2AWg+15t04IeSLK256J8/1n1OpKD+fyJAmyNQOQECkEzaBKDy1FbavM9MsnR+UV7z/199Iif1/xMB2hyBygkQgGTSJgCVp7bS5r19RPxJkqc1F/2zx/qVEzip/58Az6YINEKAACQTNgFoJL0VNvM/JXk6uyivff/dj2RUU/3/tf7+/5GjaDMELiZAAJIJmwBcHBrP7ifweUme1l70zx7v8fubeuEzNdX/n3dhSz2JAALHEiAAyYRNAI6Nk+3eMSJuSjJ1dlFe8/7PHTkkNdX/v/zIPtgMAQQuJkAAksmaAFwcGs9eTOCnk0ytueifPdbNEXGvi5t71bO11f8feFULPYAAAnMQIADJZE0A5ojWuPv4wiRTZxflte8/+sChqK3+f92B7fdyBBC4HAECkEzWBOBy4fGqnMC7RsSbk1ytvfBPx/uJvJl7H1X/34vGEwh0RYAAJBM1Aegq45t05heTXE0L8to/b4yI8rH+ZW/q/5cl5XUItE2AACQTNQFoO9Q1tL784traC/1Fx/vsS0Kprf7/YZdst5chgMDhBAhAMlETgMODZIsrCbxnkquLFuiln/uRK5u393811f9fFxHq/3uHyhMInEyAACQTNQE4OVd2EBG/nmRr6YV+3/7fGBFve4lRqan+X/6okhsCCCxHgAAkkzQBWC5wI+35CUm29i3Qazz+qZeAX1P9/ysu0V4vQQCB4wkQgGSSJgDHB8qWtxN4/yRbayz0+45x/e1NS++p/6dYPIhAtwQIQDJJE4Bu8756x/5Pkq99C/TSj5e/qX+XCwio/18Ax1MIdEiAACQTNAHoMOkbdembknwtvdBftP9PuoBDTfX//3xBOz2FAALzECAAyQRNAOYJl71EfGiSr4sW6KWfe+YFg1JT/f8rL2inpxBAYB4CBCCZoAnAPOGyl7cQ+J0kY0sv9Pv2/4o9l9bVVv9/kPAggMDiBAhAMjkTgMVzN9QBnpJkbN8CvcbjD0/oq/8nUDyEQOcECEAyOROAzlO/cvcelmRsjYV+3zGemvRf/T+B4iEEOidAAJLJmQB0nvqVu3fHiPjDJGf7FuilH/+9iLjDOQbq/+eA+C8CAxAgAMnETAAGSP7KXXx6krOlF/qL9v/hZ/qv/n8GhrsIDESAACQTMwEY6AxYqasfl+TsogV66ef+6Zl+11T/f/2eX1I801x3EUBgJgIEIJmYCcBM6bKbHYE7RcSrkqwtvdDv2/9Ldy2LqKn+/+Nn2uUuAggsS4AAJJMyAVg2dKPu/XuTrO1boNd4/INuG4ia6v9fNWo49BuBDQgQgGRSJgAbJHGAQ35ykrU1Fvp9x3hiRNRW/z/7uwkDREIXEdiUAAFIJmUCsGkmuz343SKi1Lj3LchrP/4/I6K2+n8plbghgMA6BAhAMiETgHXCN+JRnpPkbe2F/+zxnldRe9T/Rzwj9HlLAgQgmQAJwJaR7PvYn57k7eyCPPL9r+576PUOgeoIEIBkQiYA1eW0mwb9uYh4U5K5kRf+qe8P7maUdQSBNggQgGQyJgBthLfVVj43ydy0CI76s/xuhPp/q4nW7lYJEIBkMiYArca5jXZ/bpK5URf+qd8/0cbQaSUCXREgAMlkTAC6ynh1nXmHiLgpyd20GI74U/2/uphq0AAECEAyEROAAZK/cRdfkORuxIV/6rP6/8aBdPghCRCAZCImAEOeC6t2+rFJ7qbFcLSfb1D/XzV7DobARIAAJBMxAZji4edSBO4dEW9Osjfa4l/6+/ylINsvAghcSIAAJJMwAbgwM56cicDPJ9kbUQC+ZiaedoMAAocRIADJJEwADguRVx9H4EuT7I0oAA85Dp+tEEDgRAIEIJmECcCJqbL5pQj8lSR7owmA+v+louJFCCxCgAAkkzABWCRrdpoQqOmreLeQD/X/JBQeQmAlAgSAAKwUNYfJCPzDJH9bLMRbHVP9P0uFxxBYhwABSCZgnwCsEz5Hibhvkr+tFuMtjqv+7yxAYDsCBCCZgAnAdoEc8cgvSTK4xWK89jFL/f/OIw64PiNQCQECkEy+BKCSdA7SjCcnGVx7Md7ieD85yPjqJgK1EiAAyeRLAGqNa5/tun+SwS0W5LWP+bV9DqdeIdAMAQKQTL4EoJn8dtPQ305yuPaCvPbxHtrN6OkIAm0SIADJxEsA2gxzy63+1iSHay/Iax7vj9X/W46rtndCgAAkEy8B6CTdDXWjvBtecwHe+ljq/w2FU1O7JUAAkomXAHSb92o7dseIeFmSxa0X6qWOX/7+gRsCCGxLgAAkky4B2DaUox7925MsLrUAb73fjxh1kPUbgYoIEIBk0iUAFSV0oKZ8TJLFrRfqJY6v/j9QqHW1agIEIJl0CUDVme22cddFxCuTPC6xCG+5zxd0O4I6hkBbBAhAMuESgLZC3FNrvzvJ45aL9RLHVv/vKbH60jIBApBMuASg5Ui33fZHJXlcYhHecp/q/21nVOv7IUAAkgmXAPQT8NZ6cteIeF2SyS0X7DmPrf7fWiK1t2cCBCCZbAlAz5Gvv2/PSjI55yK85b5+qn78WojAMAQIQDLZEoBh8l9lRz8tyeSWi/acx/66KolrFAJjEiAAyWRLAMY8GWrp9dtGxBuTXM65EG+1r4fVAlk7EEAgCEAy0RIAZ8bWBH40yeVWi/Zcxy1Sc5etwTo+AgjsCBCAZKIlALt8uLMRgc9JcjnXQrzVftT/NwqTwyKwhwABSCZaArAnLR5ejcA9IuLGJJtbLd5zHFf9f7X4OBAClyJAAJJJlgBcKjtetDCB5yfZnGMh3mofH7kwL7tHAIHDCBCAZJIlAIeFyKuXIfDoJJtbLd6nHlf9f5mM2CsCpxAgAMkkSwBOiZRt5yJwr4i4OcnnqYvxFtv/9FxQ7AcBBGYjQACSCZYAzJYvOzqRwAuTfG6xgJ96zCecyMHmCCAwPwECkEywBGD+oNnjcQQen+Tz1MV4i+3V/48bf1shsCQBApBMsARgycjZ9yEEajpBjxUH9f9DRtxrEViPQE3zSxw7wcy9HQFYL4COdG0Cv5JI6tyZX3J/6v/XHmOvQGALAgQgmVwJwBZRdMx9BL46yeiSC/bc+/76fR3zOAIIbEqAACSTKwHYNJMOfo7AfZKMzr1IL7m/v3quP/6LAAJ1ECAAyeRKAOoIp1bcTuA3kpwuuWjPte83RcRdb++GewggUBEBApBMrASgooRqyq0EnpTkdK5Fesn9/IzxQwCBagkQgGRiJQDV5nXYhn1wktMlF+659q3+P2xkdbwBAgQgmVgJQAPJHbCJv5lkda6Feqn9qP8PGFRdboYAAUgmVQLQTH6Haui3JFldauGeY7/q/0PFU2cbJEAAkkmVADSY5AGa/OAkq3Ms1Evt478MMCa6iEDLBAhAMqkSgJYj3W/b7xARv5/kdakF/NT9fkO/Q6FnCHRBgAAkEyoB6CLbXXbiqUleT12ol9r+o7ocAZ1CoB8CBCCZUAlAPwHvrSePSPK61AJ+yn7V/3tLnv70SIAAJBMqAegx6n306bqIeEWS2VMW6yW2Vf/vI2960TcBApBMpgSg79C33rtnJpldYhE/ZZ/q/62nTPtHIEAAksmUAIwQ/Xb7+IlJZk9ZrJfY9uHt4tVyBIYhQACSyZQADJP/Jjt6l4h4bZLbJRbyY/b5JxFxtybJajQCYxEgAMlESgDGOgla7O31SW6PWayX2OZnWwSqzQgMSIAAJBMpARjwTGisy38jye0Si/kx+3xiYyw1F4FRCRCAZCIlAKOeDu30+20i4o+T7B6zYM+9jfp/OznS0rEJEIBkEiUAY58UrfT+h5Pszr2YH7o/9f9W0qOdCEQQgGQSJQBOjRYIfFaS3UMX7Llfr/7fQnK0EYG3ECAAySRKAJweLRC4e0T8aZLfuRf1Q/b3pBbAaSMCCNxKgAAkEygBcHa0QuDHk/wesmDP/dryp4rdEECgDQIEIJlACUAb4dXKiM9P8jv3on7Z/an/SyQCbREgAMkESgDaCvHIrX2niLg5yfBlF+05X/dzIw+EviPQIAECkEyeBKDBJA/c5PLFO3Mu5MfuS/1/4BDqepMECEAyeRKAJrM8bKMfl2T42EX8lO3U/4eNoI43SoAAJJMnAWg0zYM2+92SDJ+ykB+z7av8/f9B06fbLRMgAMnkSQBajvSYbS/192MW7rm2+eYxses1Ak0TIADJxEkAms70kI3/2CTHcy3u19rPjRFRPoVwQwCBtggQgGTiJABthVhr30LghUmWr7V4z/H8swwAAgg0SYAAJJMmAWgyy8M3unwJzxwL+qH7+PDhyQOAQJsECEAyaRKANsOs1RFrXxL4PNARQKBZAgSAADQbXg2/msAHRsQrk0wf+q7+Mq//1Yh4u6ub4BEEEGiEAAFIJkufADSSXs1MCdw/IspleZdZxI99zUsj4p7p0T2IAAKtECAAyURJAFqJr3buI/CABSXg5RHxnvsO7HEEEGiGAAEgAM2EVUMPI/DAiHh1ku9j3/WX7V4cER9yWDO8GgEEKiVAAJIJ0icAlaZVsw4m8K4R8bSIKN/Ud8rCf8Mtv1vwRRFx3cEtsAECCNRKgAAkEyMBqDWu2nUsgXePiGdERPmjPYeIQHn9UyLiHsce2HYIIFAtAQKQTIgEoNq8atiJBN7jlk8DvioivjciXhQRrz2X/1dExPNv+bv+/yQi/lZE/MUTj2dzBBColwABODcBlndHBKDewGrZ/ATeJSIeHBHlUwI3BBAYhwABIADjpF1PEUAAAQR2BAgAAdiFwR0EEEAAgXEIEAACME7a9RQBBBBAYEeAABCAXRjcQQABBBAYhwABIADjpF1PEUAAAQR2BAgAAdiFwR0EEEAAgXEIEAACME7a9RQBBBBAYEeAABCAXRjcQQABBBAYhwABIADjpF1PEUAAAQR2BAgAAdiFwR0EEEAAgXEIEAACME7a9RQBBBBAYEeAABCAXRjcQQABBBAYhwABIADjpF1PEUAAAQR2BAgAAdiFwR0EEEAAgXEIEAACME7a9RQBBBBAYEeAABCAXRjcQQABBBAYhwABIADjpF1PEUAAAQR2BAgAAdiFwR0EEEAAgXEIEAACME7a9RQBBBBAYEeAABCAXRjcQQABBBAYhwABIADjpF1PEUAAAQR2BAgAAdiFwR0EEEAAgXEIEAACME7a9RQBBBBAYEeAABCAXRjcQQABBBAYhwABIADjpF1PEUAAAQR2BAgAAdiFwR0EEEAAgXEIEAACME7a9RQBBBBAYEeAABCAXRjcQQABBBAYhwABIADjpF1PEUAAAQR2BAgAAdiFwR0EEEAAgXEIEAACME7a9RQBBBBAYEeAABCAXRjcQQABBBAYhwABIADjpF1PEUAAAQR2BAgAAdiFwR0EEEAAgXEIEAACME7a9RQBBBBAYEeAABCAXRjcQQABBBAYhwABIADjpF1PEUAAAQR2BAgAAdiFwR0EEEAAgXEIEAACME7a9RQBBBBAYEeAABCAXRjcQQABBBAYhwABIADjpF1PEUAAAQR2BAgAAdiFwR0EEEAAgXEIEAACME7a9RQBBBBAYEeAABCAXRjcQQABBBAYhwABIADjpF1PEUAAAQR2BAgAAdiFwR0EEEAAgXEIEAACME7a9RQBBBBAYEeAABCAXRjcQQABBBAYhwABIADjpF1PEUAAAQR2BAgAAdiFwR0EEEAAgXEIEAACME7a9RQBBBBAYEeAABCAXRjcQQABBBAYhwABIADjpF1PEUAAAQR2BAgAAdiFwR0EEEAAgXEIEAACME7a9RQBBBBAYEeAABCAXRjcQQABBBAYhwABIADjpF1PEUAAAQR2BAgAAdiFwR0EEEAAgXEIEAACME7a9RQBBBBAYEeAABCAXRjcQQABBBAYhwABIADjpF1PEUAAAQR2BAgAAdiFwR0EEEAAgXEIEIBEAB4aEQWMfxjIgAzIgAz0moGy1v1ZJf+qaUgtQLSjnnAaC2MhAzIgA8tlgABUYmJCvlzIscVWBmRABq7OAAEgADIgAzIgAzIwYAYM+oCDzoSvNmFMMJEBGRgtAwSAAMiADMiADMjAgBkw6AMO+miWq7/e2cmADMjA1RkgAARABmRABmRABgbMgEEfcNCZ8NUmjAkmMiADo2WAABAAGZABGZABGRgwAwZ9wEEfzXL11zs7GZABGbg6AwSAAMiADMiADMjAgBkw6AMOOhO+2oQxwUQGZGC0DBAAAiADMiADMiADA2bAoA846KNZrv56ZycDMiADV2eAABAAGZABGZABGRgwAwZ9wEFnwlebMCaYyIAMjJYBAkAAZEAGZEAGZGDADMRrBuz0aJanv97ZyIAMyIAMnM1AWfvjJQSA+cqADMiADMjAUBkoa3/8lEEfatDPGqD73hHIgAzIwJgZKGt/PJ0AEAAZkAEZkAEZGCoDZe2PRxr0oQad7Y9p+8bduMuADJzNwCcXAbhrRLyeBJAAGZABGZABGRgiA2+MiLcpAlBu1xv0IQb9rP25792ADMiADIyZgR+6be2/9cd9I+ImEkACZEAGZEAGZKDrDNwcER94VgDK/e8y6F0POtMf0/SNu3GXARk4m4F/c37xL/9/l4i4gQSQABmQARmQARnoMgNljX/XTADKYw+PiBsNfJcDf9YA3feOQAZkQAbGykAp83/0vsV/evwxBIAAyIAMyIAMyEBXGfjiaZG/1s9HR8SfGvyuBp/tj2X7xtt4y4AMlAyUT/W/6FqL/vnnHxYRLycBJEAGZEAGZEAGmsxAqfk/4vziftn/3zMi/rVLBJscePbP/mVABmRgzAyUev8zbvlT//e+7GJ/0evK3wl4dkS8gQWSARmQARmQARmoMgNljS5r9ftdtKAf+9zdIuJRt32BUPkmofJ1guU7hVkmBjIgAzIgAzKwXgbK2lvW4LIWf2dElL/tX9boS9/+P8E4Dd2u+T7rAAAAAElFTkSuQmCC;strokeWidth=1;" vertex="1" parent="1">
                    <mxGeometry x="1682" y="285.75" width="100" height="100" as="geometry"/>
                </mxCell>
                <mxCell id="123" value="" style="shape=image;verticalLabelPosition=bottom;labelBackgroundColor=default;verticalAlign=top;aspect=fixed;imageAspect=0;image=data:image/png,iVBORw0KGgoAAAANSUhEUgAAAgAAAAIACAYAAAD0eNT6AAAAAXNSR0IArs4c6QAAIABJREFUeAHt3WuobVXZB/DHikyjyAoqKKyItCxQKiwKk7500U8WfQiNPnT5YARdiaJCSAqKLlgUYTeKKMgoJBCxO5WRFN0JE7SsrDBKyrz2vnu875mHwz5n7L3nPvsZa4w5fwcO61zWmWvN3/iv8fz3PHuvHeEHAQIECBAgQIAAAQIECBAgQIAAAQIECBAgQIAAAQIECBAgQIAAAQIECBAgQIAAAQIECBAgQIAAAQIECBAgQIAAAQIECBAgQIAAAQIECBAgQIAAAQIECBAgQIAAAQIECBAgQIAAAQIECBAgQIAAAQIECBAgQIAAAQIECBAgQIAAAQIECBAgQIAAAQIECBAgQIAAAQIECBAgQIAAAQIECBAgQIAAAQIECBAgQIAAAQIECBAgQIAAAQIECBAgQIAAAQIECBAgQIAAAQIECBAgQIAAAQIECBAgQIAAAQIECBAgQIAAAQIECBAgQIAAAQIECBAgQIAAAQIECBAgQIAAAQIECBAgQIAAAQIECBAgQIAAAQIECBAgQIAAAQIECBAgQIAAAQIECBAgQIAAAQIECBAgQIAAAQIECBAgQIAAAQIECBAgQIAAAQIECBAgQIAAAQIECBAgQIAAAQIECBAgQIAAAQIECBAgQIAAAQIECBAgQIAAAQIECBAgQIAAAQIECBAgQIAAAQIECBAgQIAAAQIECBAgQIAAAQIECBAgQIAAAQIECBAgQIAAAQIECBAgQIAAAQIECBAgQIAAAQIECBAgQIAAAQIECBAgQIAAAQIECBAgQIAAAQIECBAgQIAAAQIECBAgQIAAAQIECBAgQIAAAQIECBAgQIAAAQIECBAgQIAAAQIECBAgQIAAAQIECBAgQIAAAQIECBAgQIAAAQIECBAgQIAAAQIECBAgQIAAAQIECBAgQIAAAQIECBAgQIAAAQIECBAgQIAAAQIECBAgQIAAAQIECBAgQIAAAQIECBAgQIAAAQIECBAgQIAAAQIECBAgQIAAAQIECBAgQIAAAQIECBAgQIAAAQIECBAgQIAAAQIECBAgQIAAAQIECBAgQIAAAQIECBAgQIAAAQIECBAgQIAAAQIECBAgQIAAAQIECBAgQIAAAQIECBAgQIAAAQIECBAgQIAAAQIECBAgQIAAAQIECBAgQIAAAQIECBAgQIAAAQIECBAgQIAAAQIECBAgQIAAAQIECBAgQIAAAQIECBAgQIAAAQIECBAgQIAAAQIECBAgQIAAAQIECBAgQIAAAQIECBAgQIAAAQIECBAgQIAAAQIECBAgQIAAAQIECBAgQIAAAQIECBAgQIAAAQIECBAgQIAAAQIECBAgQIAAAQIECBAgQIAAAQIECBAgQIAAAQIECBAgQIAAAQIECBAgQIAAAQIECBAgQIAAAQIECBAgQIAAAQIECBAgQIAAAQIECBAgQIAAAQIECBAgQIAAAQIECBAgQIAAAQIECBAgQIAAAQIECBAgQIAAAQIECBAgQIAAAQIECBAgQIAAAQIECBAgQIAAAQIECBAgQIAAAQIECBAgQIDAGgTuHxGnRsQzI+KCiLg4Ii6NiMsj4jN+MpABGZABGdglAx+LiHdGxCsj4ryIOCsiHhkR91nDEB3lHM+IiLdvDfurtob9z7eG/d+2Fu2/EfE/fjKQARmQARk44AzcvVUKbt4qBT+OiC9HxKsi4hGjDMzRn2dpX8+JiPdHxPUHvLBKg+IkAzIgAzIwNwP3RsQPIuItEXHa6EO2t+f/gIg4/9Al/L8Y+hq9DMiADMhAxxn4TUS899B/Q5/Q20Ad5fmUwV8a1d87Xui5TdH9fXQhAzIgA+vJwG8j4sWjDN0enme5zP+KiPi9wa/ly4AMyIAMLCAD10bEOT0M2J6fQ/lsy18sYLE1/PU0fGttrWVABvaagSsjonzyuh9HCJwdEd82+DV9GZABGZCBhWegfNLgp7Y+r+3RR8zAVf7ypIj47MIXe6/N0P18FCEDMiAD68nAfyLiDauc/Ifaz3WGv7YvAzIgAzKw4gyUN6g7cU1FoLxL359XvOBa/npavrW21jIgA7tl4PtreUOhl0fEHYa/xi8DMiADMiADhzNwU0ScudQrAeXL+95nsQ8v9m6N0N/7qEEGZEAG1pWBfx36HjaL6gEPjoivG/6GvwzIgAzIgAzsmIHy/WzesZQGUL473/cs+I4LruWvq+Vbb+stAzKwWwYuWUIJ+KThb/jLgAzIgAzIwOwMvHTkEvB6Cz57wXdrhf7eRw4yIAMysI4M3B4RTxuxBLwgIu5RABQAGZABGZABGdh3Bm6OiEeNVAJOj4h/WPB9L7h2v452b52tswzIwF4yUL6ZUPkOud3/OCUirjf8DX8ZkAEZkAEZOLAMfL736X/fiLjGgh/Ygu+lGbqPjyBkQAZkYB0ZeGvPJeDVhr/hLwMyIAMyIAMpGbgrIp7QYwk4OSL+ZNFTFl27X0e7t87WWQZkYLcMfKnHAvD2Dof/rRHxy4i4OiI+FxHluy75yUAGZEAGZGCnDHwxIr5z6PPZytvz7jaUW/59eafAp/dUAh4eEf/sAOlXEfHuQzir+vaKPYXBcyFAgMDCBMrb2b8oIj4REbd0MOu+2ZPvhzcIUr7c8F0R8cSeQDwXAgQIEFikQPnGds+OiMs3/F43L+xB93ERcecGCkD5lsIfiIiH9oDgORAgQIDA6gSevPVOfVduYP6V/3L4WUSUMrLRH1/YwMlfsfV/+Y/d6Fl7cAIECBAg8P8Cz42I8l/QLT8XoDzWyze5AGdFRPmEhFYnfW9EdP11kJtcDI9NgAABAhsTeFBEfK3hPCxz96aIKN9xdyM/Wv7ff/kkw/M2cpYelAABAgQI7C5wwqFPRG/1QXF5nI19LsCNjdrOXyPiSbvbuwcBAgQIENi4wEUNr45/fBNne2aj4V/e+eicTZygxyRAgAABAvsUuKTRjCxvwFeuPDT9Ub70rsVljtc0PSsPRoAAAQIEjl+gDOXyCest5uTZx/905x3hpw1O7KPznpJ7EyBAgACBbgQeeOjL9bJLwHtanvGpDYb/HyLipJYn5bEIECBAgMABCzyjwecD/PqAn/OOh3tdgwLwih2fgb8kQIAAAQJjCJTvLZB9FaDZu+F+I/lkuniHozFy5VkSIECAQOcCj2/wjrlvbmFQ/k/j7uQC8IIWJ+IxCBAgQIBAI4EPJc/Nb7U4j9OTT6L8378fBAgQIEBgSQJPSZ6d5X150n88L/kkfOZ/+hJ6AAIECBDYgMANifOzfFO+9PcDuDDxBMonSTx/A4viIQkQIECAQLbAB5Pn58OzT6B8okHWZzPetslvbJAN5/gECBAgsGqBcxPnZ5nLT83WzWwwV2c/eccnQIAAAQIbErhfRNyTWALSr6Bnfj3jpze0KB6WAAECBAi0EPhjYgFIf/+c7yY++Utb6HsMAgQIECCwIYEfJc7Qt2Wf0+8Sn/xrs5+84xMgQIAAgQ0KfCVxhn4k+7z+nfjkL0h88uUNjB7pJwMZkIHBMnCfxH3RodsLXJY4Q8t3H0z9kfUVAOW4me8A+NZE9EwTx877qhO2bEfIQPnAxY/lCLw3cRZdlc2U+YJRAGzImflybPkaMQMKQPZUa3t8BaDSgBQAG/SIG7TnLLeZGVAA2g7o7EdTABSAtDdTytyIHNugk4H2GVAAskdy2+MrAAqAAlDJgAHTfsAw79tcAWg7oLMfTQGobP7+C6DvjcigsD4y0D4DCkD2SG57fAVAAXAFoJIBA6b9gGHet7kC0HZAZz+aAlDZ/F0B6HsjMiisjwy0z4ACkD2S2x5fAVAAXAGoZMCAaT9gmPdtrgC0HdDZj6YAVDZ/VwD63ogMCusjA+0zoABkj+S2x1cAFABXACoZMGDaDxjmfZsrAG0HdPajKQCVzd8VgL43IoPC+shA+wwoANkjue3xFQAFwBWASgYMmPYDhnnf5gpA2wGd/WgKQGXzdwWg743IoLA+MtA+AwpA9khue3wFQAFwBaCSAQOm/YBh3re5AtB2QGc/mgJQ2fxdAeh7IzIorI8MtM+AApA9ktseXwFQAFwBqGTAgGk/YJj3ba4AtB3Q2Y+mAFQ2f1cA+t6IDArrIwPtM6AAZI/ktsdXABQAVwAqGTBg2g8Y5n2bKwBtB3T2oykAlc3fFYC+NyKDwvrIQPsMKADZI7nt8RUABcAVgEoGDJj2A4Z53+YKQNsBnf1oCkBl83cFoO+NyKCwPjLQPgMKQPZIbnt8BUABcAWgkgEDpv2AYd63uQLQdkBnP5oCUNn8XQHoeyMyKKyPDLTPgAKQPZLbHl8BUABcAahkwIBpP2CY922uALQd0NmPpgBUNn9XAPreiAwK6yMD7TOgAGSP5LbHVwAUAFcAKhkwYNoPGOZ9mysAbQd09qMpAJXN3xWAvjcig8L6yED7DCgA2SO57fEVAAXAFYBKBgyY9gOGed/mCkDbAZ39aApAZfN3BaDvjcigsD4y0D4DCkD2SG57fAVAAXAFoJIBA6b9gGHet7kC0HZAZz+aAlDZ/F0B6HsjMiisjwy0z4ACkD2S2x5fAVAAXAGoZMCAaT9gmPdtrgC0HdDZj6YAVDZ/VwD63ogMCusjA+0zoABkj+S2x1cAFABXACoZMGDaDxjmfZsrAG0HdPajKQCVzd8VgL43IoPC+shA+wwoANkjue3xFQAFwBWASgYMmPYDhnnf5gpA2wGd/WgKQGXzdwWg743IoLA+MtA+AwpA9khue3wFQAFwBaCSAQOm/YBh3re5AtB2QGc/mgJQ2fxdAeh7IzIorI8MtM+AApA9ktseXwFQAFwBqGTAgGk/YJj3ba4AtB3Q2Y+mAFQ2f1cA+t6IDArrIwPtM6AAZI/ktsdXABQAVwAqGTBg2g8Y5n2bKwBtB3T2oykAlc3fFYC+NyKDwvrIQPsMKADZI7nt8RUABcAVgEoGDJj2A4Z53+YKQNsBnf1oCkBl83cFoO+NyKCwPjLQPgMKQPZIbnt8BUABcAWgkgEDpv2AYd63uQLQdkBnP1pmAbghIt4UES+LiHMj4rSIOPkgTyhzs3AFoO+NKHPtHdvay8CxM6AAHOQE2/yxMgvAsV5Dd0XE1RFxcUQ85nhP/1gPcFB/pgAcewM4KF/H4SsD42VAATjeqdXXv29dALa/5q+LiJfsl2T7wQ7y9wrAeJvTQa6/Y1l/GTg6AwrAfqdVn/9u0wVgeo1dGxHnzCWa/nHGrQJw9Is/w9kxOcvAOBlQAOZOqb7v30sBmPaAr0bEw/ZKNv2jjFsFYJxNKWP9HdP6y8DRGVAA9jqdxrhfbwWgvObKJw+esRe+zBeoAnD0iz/T27F5y0D/GVAA9jKZxrlPjwWg7AO3RcT5uzFmbhgKQP+bUeb6O7b1l4GjM6AA7DaVxvr7XgtAee3dGxEX7sSZ+QJVAI5+8Wd6OzZvGeg/AwrAThNpvL/ruQCU/eCOiHhWjTVzw1AA+t+MMtffsa2/DBydAQWgNo3G/PPeC0B5Dd5Se8+AzBeoAnD0iz/T27F5y0D/GVAAxhz0tWc9QgEo+8JPIuLE7SeRuWEoAP1vRpnr79jWXwaOzoACsH0Kjf37UQpAeS2+cTt15gtUATj6xZ/p7di8ZaD/DCgA26fQ2L8fqQDcGhEPOZI7c8NQAPrfjDLX37GtvwwcnQEF4MgJNP6vRyoA5fVYnu/hH5kvUAXg6Bd/prdj85aB/jOgABweP4v4xWgF4PaIOJzBzA1DAeh/M8pcf8e2/jJwdAYOb76LGH9OYrQCUF6T5TsJ/t+PzBeoAnD0iz/T27F5y0D/GVAApumzjNsRC8A1E33mhqEA9L8ZZa6/Y1t/GTg6AwrANH2WcTtiAbg7Ik4p/JkvUAUg1zdz7Rzb2slATgYUgGUM/uksRiwA5bV9kQKQ8wK3cXKVARmoZUABmEbnMm5HLQCXKQA2qdom5c9lQwZyMqAALGPwT2cxagG4QgHIeYHbOLnKgAzUMqAATKNzGbejFoAfKgA2qdom5c9lQwZyMqAALGPwT2cxagG4UQHIeYHbOLnKgAzUMqAATKNzGbejFoA7FQCbVG2T8ueyIQM5GVAAljH4p7MYtQCU17cvA0w2sInmZowv39EyoABMo3MZtwpAZYh6HwCb82ibs+crs9kZUACWMfins1AAFIDUKynZG5LjG3oy0C4DCsA0OpdxqwAoAApAJQMGS7vBwnoMawVgGYN/OgsFoLL5+y+AMTYkg8M6yUC7DCgA0+hcxq0CoAC4AlDJgMHSbrCwHsNaAVjG4J/OQgGobP6uAIyxIRkc1kkG2mVAAZhG5zJuFQAFwBWASgYMlnaDhfUY1grAMgb/dBYKQGXzdwVgjA3J4LBOMtAuAwrANDqXcasAKACuAFQyYLC0Gyysx7BWAJYx+KezUAAqm78rAGNsSAaHdZKBdhlQAKbRuYxbBUABcAWgkgGDpd1gYT2GtQKwjME/nYUCUNn8XQEYY0MyOKyTDLTLgAIwjc5l3CoACoArAJUMGCztBgvrMawVgGUM/uksFIDK5u8KwBgbksFhnWSgXQYUgGl0LuNWAVAAXAGoZMBgaTdYWI9hrQAsY/BPZ6EAVDZ/VwDG2JAMDuskA+0yoABMo3MZtwqAAuAKQCUDBku7wcJ6DGsFYBmDfzoLBaCy+bsCMMaGZHBYJxlolwEFYBqdy7hVABQAVwAqGTBY2g0W1mNYKwDLGPzTWSgAlc3fFYAxNiSDwzrJQLsMKADT6FzGrQKgALgCUMmAwdJusLAew1oBWMbgn85CAahs/q4AjLEhGRzWSQbaZUABmEbnMm4VAAXAFYBKBgyWdoOF9RjWCsAyBv90FgpAZfN3BWCMDcngsE4y0C4DCsA0OpdxqwAoAK4AVDJgsLQbLKzHsFYAljH4p7NQACqbvysAY2xIBod1koF2GVAAptG5jFsFQAFwBaCSAYOl3WBhPYa1ArCMwT+dhQJQ2fxdARhjQzI4rJMMtMuAAjCNzmXcKgAKgCsAlQwYLO0GC+sxrBWAZQz+6SwUgMrm7wrAGBuSwWGdZKBdBhSAaXQu41YBUABcAahkwGBpN1hYj2GtACxj8E9noQBUNn9XAMbYkAwO6yQD7TKgAEyjcxm3CoAC4ApAJQMGS7vBwnoMawVgGYN/OgsFoLL5uwIwxoZkcFgnGWiXAQVgGp3LuFUAFABXACoZMFjaDRbWY1grAMsY/NNZKACVzd8VgDE2JIPDOslAuwwoANPoXMatAqAAuAJQyYDB0m6wsB7DWgFYxuCfzkIBqGz+rgCMsSEZHNZJBtplQAGYRucybhUABcAVgEoGDJZ2g4X1GNYKwDIG/3QWCkBl83cFYIwNyeCwTjLQLgMKwDQ6l3GrACgArgBUMmCwtBssrMewVgCWMfins1AAKpu/KwBjbEgGh3WSgXYZUACm0bmMWwVAAXAFoJIBg6XdYGE9hrUCsIzBP52FAlDZ/F0BGGNDMjiskwy0y4ACMI3OZdwqAAqAKwCVDBgs7QYL6zGsFYBlDP7pLEYtAHeWE8jcNFwByPXNXDvHtnYykJMBBWAancu4HbUA3KgA5LzAbZxcZUAGahlQAJYx+KezGLUA/FABsEnVNil/LhsykJMBBWAancu4HbUAXKEA5LzAbZxcZUAGahlQAJYx+KezGLUAXKYA2KRqm5Q/lw0ZyMmAAjCNzmXcjloALlIAcl7gNk6uMiADtQwoAMsY/NNZjFgA7o6IUxQAm1Rtk/LnsiEDORlQAKbRuYzbEQvANRN95ovclwHmbCCZa+bY1kwGcjOgAEzTZxm3IxaAiyf6zBe7ApC7kWSunWNbOxnIyYACME2fZdyOVgBuj4jDGcx8kSsAORtI5po5tjWTgdwMHN58lzH/Vn8WoxWA8nwP/8h8sSsAuRtJ5to5trWTgZwMKACHx88ifjFSAbg1Ih5ypHrmi1wByNlAMtfMsa2ZDORmQAE4cgKN/+uRCsAbt3NnvtgVgNyNJHPtHNvayUBOBhSA7VNo7N+PUgB+EhEnbqfOfJErADkbSOaaObY1k4HcDCgA26fQ2L8foQDcEhGPORZz5otdAcjdSDLXzrGtnQzkZEABONYkGvfPei8Ad0TEs2q8mS9yBSBnA8lcM8e2ZjKQmwEFoDaNxvzzngvAvRFx4U6smS92BSB3I8lcO8e2djKQkwEFYKeJNN7f9VoAbouI83fjzHyRKwA5G0jmmjm2NZOB3AwoALtNpbH+vscCcENEnLEXxswXuwKQu5Fkrp1jWzsZyMmAArCXyTTOfXorAF+NiIftlS/zRa4A5GwgmWvm2NZMBnIzoADsdTqNcb9eCsC1EXHOXLLMF7sCkLuRZK6dY1s7GcjJgAIwd0r1ff9NF4DrIuIl+yXKfJErADkbSOaaObY1k4HcDCgA+51Wff671gXgroi4OiLKd/Q75tf2z2HKfLErALkbSebaOba1k4GcDCgAcyZU//fNLADlk/neFBEvi4hzI+K0iDj5IEkyX+QKQM4Gkrlmjm3NZCA3AwrAQU6wzR8rswBclX16mS92BSB3I8lcO8e2djKQkwEFIHuqtT2+AhDHfqEoAMd2sbFykYH1ZkABaDugsx9NAVAAwoa+3g3d2lv7ORlQALJHctvjKwAKgAJQycCcjdF9DdI1ZEABaDugsx9NAahs/v4LwIa+hg3dOcr5nAwoANkjue3xFQAFwBWASgbmbIzua5CuIQMKQNsBnf1oCkBl83cFwIa+hg3dOcr5nAwoANkjue3xFQAFwBWASgbmbIzua5CuIQMKQNsBnf1oCkBl83cFwIa+hg3dOcr5nAwoANkjue3xFQAFwBWASgbmbIzua5CuIQMKQNsBnf1oCkBl83cFwIa+hg3dOcr5nAwoANkjue3xFQAFwBWASgbmbIzua5CuIQMKQNsBnf1oCkBl83cFwIa+hg3dOcr5nAwoANkjue3xFQAFwBWASgbmbIzua5CuIQMKQNsBnf1oCkBl83cFwIa+hg3dOcr5nAwoANkjue3xFQAFwBWASgbmbIzua5CuIQMKQNsBnf1oCkBl83cFwIa+hg3dOcr5nAwoANkjue3xFQAFwBWASgbmbIzua5CuIQMKQNsBnf1oCkBl83cFwIa+hg3dOcr5nAwoANkjue3xFQAFwBWASgbmbIzua5CuIQMKQNsBnf1oCkBl83cFwIa+hg3dOcr5nAwoANkjue3xFQAFwBWASgbmbIzua5CuIQMKQNsBnf1oCkBl83cFwIa+hg3dOcr5nAwoANkjue3xFQAFwBWASgbmbIzua5CuIQMKQNsBnf1oCkBl83cFwIa+hg3dOcr5nAwoANkjue3xFQAFwBWASgbmbIzua5CuIQMKQNsBnf1oCkBl83cFwIa+hg3dOcr5nAwoANkjue3xFQAFwBWASgbmbIzua5CuIQMKQNsBnf1oCkBl83cFwIa+hg3dOcr5nAwoANkjue3xFQAFwBWASgbmbIzua5CuIQMKQNsBnf1oCkBl83cFwIa+hg3dOcr5nAwoANkjue3xFQAFwBWASgbmbIzua5CuIQMKQNsBnf1oCkBl83cFwIa+hg3dOcr5nAwoANkjue3xFQAFwBWASgbmbIzua5CuIQMKQNsBnf1oCkBl83cFwIa+hg3dOcr5nAwoANkjue3xFQAFwBWASgbmbIzua5CuIQMKQNsBnf1oCkBl83cFwIa+hg3dOcr5nAwoANkjue3xFQAFwBWASgbmbIzua5CuIQMKQNsBnf1oCkBl83cFwIa+hg3dOcr5nAwoANkjue3xFQAFwBWASgbmbIzua5CuIQMKQNsBnf1oCkBl83cFwIa+hg3dOcr5nAwoANkjue3xFQAFwBWASgbmbIzua5CuIQMKQNsBnf1oCkBl83cFwIa+hg3dOcr5nAwoANkjue3xFQAFwBWASgbmbIzua5CuIQMKQNsBnf1oCkBl83cFwIa+hg3dOcr5nAwoANkjue3xhy4A/64M7zmBrt33gsR1eGBElBeSnwxkQAZGysB9EvdFh24vcFniDL0i+3R+l/jkX5v95B2fAAECBAhsUOAriTP0I9nn9d3EJ39p9pN3fAIECBAgsEGBHyXO0Ldln9cXE5/8p7OfvOMTIECAAIENCvwxcYa+Ivu8Ppj45K/OfvKOT4AAAQIENiRwv4i4J3GGPj/7vN6c+ORvi4j7Z5+A4xMgQIAAgQ0InJs4P8sn1z81+5wuTD6B9AaTDeT4BAgQIEDgGAKZV9BLAXj4MR7zQP/oeckF4KMH+mwdjAABAgQI9CFwQ+L8vDMiTsg+zdMTT6A0mD9kn4DjEyBAgACBxgJPSZ6dN7Y4n/KGOncnn0jmOwK2MPIYBAgQIEDgSIEPJc/Nbx35YJm//kbyifwsIrz7VeYKOjYBAgQItBJ4fESUS/S1d8E9iD8vn6Df5Mfrkk+kYKR/PWMTKQ9CgAABAmsXyHz/nKk8PLEV8qkNCkD5XICTWp2QxyFAgAABAgkCz4iI/ybPzF8nPO8dD/nT5BMqrcZXBOy4BP6SAAECBDoWKJ8zV/5Le/ooPev2Pa0N3tXgpArWa1qfmMcjQIAAAQLHKVC+JK98d76soX/kcc8+zuc6+5+f2ejE7oqIc2Y/O/+AAAECBAhsTuCSRjPyTy2+/v9YjOXrDo9sIVm//mtEPOlYT8CfESBAgACBzgQuavD//tO8/fimzv3DjQpAOdF/RsR5mzpRj0uAAAECBHYRKJf9391wLpbZ+MJdnlPaX5/VsOWUE703It6adjYOTIAAAQIE9ifwoIj4WuPhf9Omv4HeFxqfcCkC5RMrHru/NfKvCBAgQIDAgQo8NyJ+tYFZ+PIDPYt9HOxxDd7hqAz97T/viIgPRMRD9/Gc/RMCBAgQIHC8Ak+OiCuPMZ+2z6uM33fzjrktPxdgO+Q/tvDLlyQ2exek402Mf0+AAAECwwqUt6l/dkRcHhH3bGj4lzm4sf8V7lwUAAAHZ0lEQVT7375y5XsQl0/S2z6cW/++XIIpn4Dx9Ig4cfuT9HsCBAgQILAPgQdHxIsi4hMRcUsHs+6b+ziH1H/y9g5QtheOWyPilxFxdUR8buvzBj7jJwMZkAEZkIFdMlDeu/87EXF9RPyrs9lW3la4fJDb1Y+TI6K8IcH2Iez3TGRABmRABmTgYDLwpa4m/xFP5tUKgAIkAzIgAzIgAykZKO+M+4QjZm5Xv7xvRFxj4VMWXns+mPbMkaMMyMCoGej+fXBOOfT/JqMCe942BxmQARmQgd4y8PmuPtzf4cmcHhHly/N6A/R8rIkMyIAMyMBoGbg2Ih6ww8zt7q9esOGvkRxtgT1fm5IMyIAMyMD2DNwcEY/qbsLv4Qm93lUAV0FkQAZkQAZkYF8ZuH3rnQaftodZ2+1dPmnh97Xw21ug3/vIQAZkQAbWlYGXdjvZ9/jE7h8R31MClAAZkAEZkAEZ2HMGLtnjjO3+buVtFL9u4fe88Fr+ulq+9bbeMiADUwbKO/29o/upPvMJlm+g8D4lQAmQARmQARmQgWNmoLzt8AUzZ+tQdy/fv7h8K9+p7bhlIQMyIAMysPYM3BQRZw41zff5ZJ8ZEX9WApQgGZABGZABGYjvR8Qj9jlPh/xnj46I6yy8F78MyIAMyMCKM1C+S+0qv339SRHx2RUv/NoveTl/l31lQAbWmoH/RMQbhvzw/YCf9NkR8W1FwEcBMiADMiADC8/AvRHxqYgoV8H9OELgvIj4xcIXf61t13n7SE8GZGDtGbgyIs44Yub55TaB8uWCr4iI3ysCPhKQARmQARlYQAbKN/M5Z9us89sdBMp3PnpLRPx9AYu/9tbr/H3kJwMysMYM/HbrqvaLd5hz/moXgVIEzt/6/5LLI+IvyoCPBmRABmRABjrOwG+2vnXveyOifLn7CbvMN389Q6D898BzIuL9EXF9xwFYY9N1zj7CkwEZWGMGyif1/eDQFevTZswzdz1OgfLJFG/falpXbb194s8j4m8RUd5HeY0hdM7WXQZkQAZyM3B3RNwcET+OiC9HxKvW9gY+xzmz0/95+e6Dpx66/FLeU/niiLj00H8hlDdc8JOBDMiADMjAThn42NYHk+/cGvav3Br25avTzoqIR0ZEuQrtBwECBAgQIECAAAECBAgQIECAAAECBAgQIECAAAECBAgQIECAAAECBAgQIECAAAECBAgQIECAAAECBAgQIECAAAECBAgQIECAAAECBAgQIECAAAECBAgQIECAAAECBAgQIECAAAECBAgQIECAAAECBAgQIECAAAECBAgQIECAAAECBAgQIECAAAECBAgQIECAAAECBAgQIECAAAECBAgQIECAAAECBAgQIECAAAECBAgQIECAAAECBAgQIECAAAECBAgQIECAAAECBAgQIECAAAECBAgQIECAAAECBAgQIECAAAECBAgQIECAAAECBAgQIECAAAECBAgQIECAAAECBAgQIECAAAECBAgQIECAAAECBAgQIECAAAECBAgQIECAAAECBAgQIECAAAECBAgQIECAAAECBAgQIECAAAECBAgQIECAAAECBAgQIECAAAECBAgQIECAAAECBAgQIECAAAECBAgQIECAAAECBAgQIECAAAECBAgQIECAAAECBAgQIECAAAECBAgQIECAAAECBAgQIECAAAECBAgQIECAAAECBAgQIECAAAECBAgQIECAAAECBAgQIECAAAECBAgQIECAAAECBAgQIECAAAECBAgQIECAAAECBAgQIECAAAECBAgQIECAAAECBAgQIECAAAECBAgQIECAAAECBAgQIECAAAECBAgQIECAAAECBAgQIECAAAECBAgQIECAAAECBAgQIECAAAECBAgQIECAAAECBAgQIECAAAECBAgQIECAAAECBAgQIECAAAECBAgQIECAAAECBAgQIECAAAECBAgQIECAAAECBAgQIECAAAECBAgQIECAAAECBAgQIECAAAECBAgQIECAAAECBAgQIECAAAECBAgQIECAAAECBAgQIECAAAECBAgQIECAAAECBAgQIECAAAECBAgQIECAAAECBAgQIECAAAECBAgQIECAAAECBAgQIECAAAECBAgQIECAAAECBAgQIECAAAECBAgQIECAAAECBAgQIECAAAECBAgQIECAAAECBAgQIECAAAECBAgQIECAAAECBAgQIECAAAECBAgQIECAAAECBAgQIECAAAECBAgQIECAAAECBAgQIECAAAECBAgQIECAAAECBAgQIECAAAECBAgQIECAAAECBAgQIECAAAECBAgQIECAAAECBAgQIECAAAECBAgQIECAAAECBAgQIECAAAECBAgQIECAAAECBAgQIECAAAECBAgQIECAAAECBAgQIECAAAECBAgQIECAAAECBAgQIECAAAECBAgQIECAAAECBAgQIECAAAECBAgQIECAAAECBAgQIECAAAECBAgQIECAAAECBAgQIECAAAECBAgQIECAAAECBAgQIECAAIF9C/wvznTVIkca13cAAAAASUVORK5CYII=;" vertex="1" parent="1">
                    <mxGeometry x="1680" y="133" width="140" height="140" as="geometry"/>
                </mxCell>
                <mxCell id="124" value="" style="shape=image;verticalLabelPosition=bottom;labelBackgroundColor=default;verticalAlign=top;aspect=fixed;imageAspect=0;image=data:image/png,iVBORw0KGgoAAAANSUhEUgAAAgAAAAIACAYAAAD0eNT6AAAAAXNSR0IArs4c6QAAIABJREFUeAHt3QmYdFV95/EfL4ssvqziggpEjPgAgkwkEVwCLkTBCCoEoiKOZtQoyYBLEOEhuMRREWdQDIkxQQWMMm4TMQYZFXEBh0FRUYmgiFEB2fedmfpBlxya7reruvue87/3/z3Pw9OX7nrrnvM599zzq6pb50oUBBAYmsCGkp4s6UBJ75T0CUlflPQNSd+T9DNJV0q6beY/b/t3/psf48f63/jf+jn8XH5OCgIIIIAAAggEEdhI0t6SjpX0NUmXS/p/Hf3n5/Y+vC/v0/umIIAAAggggEAFgZWS9pT0XknnSrqro8l+khDhfbsOrovr5LpREEAAAQQQQGCZBNaQ9DxJn5R0S8MJf6FQ4Lq5jq6r60xBAAEEEEAAgUUIPGnm7fbfBJ705wsFrrM/KnAbKAgggAACCCCwgMAKSfvNXJA33+Tat9/74kK3yW2jIIAAAggggEAhsLqkl44myh/38NX+pIHEbXMb3VYKAggggAACqQX8WfkrJF044Il/dkBwW91mrhNIfejTeAQQQCCvwK6Szk808c8OAm67DSgIIIAAAgikEHiEpJMTT/yzg4AtbEJBAAEEEEBgkAJ+y/sQSdcz+T9gsSKb2IaPBQZ56NMoBBBAIK/AYyV9h4n/ARP/7HcDbGQrCgIIIIAAAr0X2Hf06vY6Jv8FJ/9xGLCVzSgIIIAAAgj0UmAtSR9g4p944h8HgPFP29mQggACCCCAQG8Ethytj38Ok/+iJ/9xCLChLSkIIIAAAgiEF/Dyt31cvnc86Ub7aUuWFA5/2FNBBBBAILfAsyXdwCv/Jb/ynx1CbGpbCgIIIIAAAuEE/lTS7Uz+yz75j8OAbW1MQQABBBBAIIzAwZLuZvLvbPIfhwAb25qCAAIIIIBAc4FDmfg7n/jHAWD80+YUBBBAAAEEmgn4pjbjSYmfdS1sT0EAAQQQQKC6wPMl3UkAaBaAbO8+oCCAAAIIIFBN4GmSbmHybzb5j99tcR+4LygIIIAAAgh0LvCE0YVo1zL5N5/8xyHAfeE+oSCAAAIIINCZwEpJFzL5h5n8xyHAfeK+oSCAAAIIINCJwD8z+Yeb/MchwH1DQQABBBBAYNkFXsXkH3byH4cA9xEFAQQQQACBZRPYnov+wk/+DgG+KNB9RUEAAQQQQGDJAutJuqCnr/4vlXTW6CK5T8/cmvgwSS+XtLuk7Wb+8/aBkvw334L3U6O/f0vSr3vaZveV+4yCAAIIIIDAkgSO7tlE+N1Ra4+StOOSWn3vP95htMTxkZLO7ZmB+4yCAAIIIIDAogX8KvmO4JOfb5JzuqSDJG2+6JYu/A8fPbMP7yv6TY/cZ+47CgIIIIAAAlMLrCbpzMCTvye54yU9fOqWLf0feJ/ed+Rw5L5zH1IQQAABBBCYSsCflY+vLo/28zOStp6qNd082HVwXaL5jOvjPqQggAACCCAwscBGkn4TcGL7hqRdJm5FvQe6Tq7beOKN8tN96L6kIIAAAgggMJHAMcEms6skvXCimrd9kOvoukYJAK6H+5KCAAIIIIDAggIPkXRToEnsR5K2WrDWcR7gurrOUUKA+9J9SkEAAQQQQGCVAu8INHn9q6T1V1nbmH90nV33KCHAfUpBAAEEEEBgXoENAt3pz29dr5i3pvH/4LpH+SjFdwx031IQQAABBBCYU+AtAV613ibpFXPWrp+/dFvcptbvBrhvKQgggAACCDxAYF1JVzSeqO6WtO8Datb/X7hNblvLEOC+dR9TEEAAAQQQuJ9AhO/9ewnfoRa3rWUA8L5ZF2CoRxftQgABBJYg8JXGE9QpA1+5zqvyuY0tQ4D7mIIAAggggMBvBbZo/Ba1b7aT4e1pt7HljYX8MYT7moIAAggggMA9Akc0fGXq2+4+KlE/uK0tbzXsvqYggAACCCBwj8BPGgWAuyTtnLAP3Ga3vcXHAe5rCgIIIIAAAvdMwC0mIu/zY4n93fZW7hlDV+JDjaYjgAACcwu8s9FEdGvyz6P9WbwNWoQA9zkFAQQQQCC5wNmNJiFuUtNupUD3OQUBBBBAILHASkl3NAgAXpp2k8Tu46bbwBa13wVwn7vvKQgggAACSQX2aDD5eLI7LKn3XM22Re0A4P257ykIIIAAAkkFjm4w+fgrcOsk9Z6r2bZo8bVA9z0FAQQQQCCpQItFaZh4HniwtQhi7nsKAggggEBCgbUbfRd9l4TWCzXZJrU/BvA6BD4GKAgggAACyQSe0GDSuUzSimTOkzTXJrapHQJ8DFAQQAABBJIJ7NNgwvlQMuNpmmub2gHAxwAFAQQQQCCZQIv1/58bxHh1SZvN/OftCMU2tQMA9wWI0PPUAQEEEKgscGLlCed6SQ+q3Mbx7vyd9/0knSzpl7OuffBn4f6d/+bHtPp+vG1sVDME+BigIIAAAggkEzin8mRzSgPftSQdIumqKdrqx/rf+N/WLjaqGQB8DFAQQAABBJIJXFd5sjmysu+2kpZyl0P/Wz9HzWKjmgHAxwAFAQQQQCCRgD/3rjnReF9/VtHXq9wtx9vpfo6aK+bZqHa/RLkGouLhwa4QQACBvAIbNpho9qzE7e/UL+dd9vxctdYusFHtAOBjgYIAAgggkETg0Q0mmh0r2G4u6fIO2ubn9HN3XWxUOwD4WKAggAACCCQR2KbBRPOwCraf6bBdfu6ui41qBwAfCxQEEEAAgSQCT6480fj2s12vALhzhTZ5H10WG9W+PbOPBQoCCCCAQBKBZ1eYLMtXsv6efdflsxXa5H10XWxV2nW97WOBggACCCCQRGCvypPM9zp29U1tbqrQJu+j6xvo2KrrSb98fh8LFAQQQACBJAJ7V55kzuvY1V/VKye1Lre7/lqgrbqs/+zn9rFAQQABBBBIIjC0APCGipOm99VlIQB0qctzI4AAAskFhhYAjqkYALyvLgsBoEtdnhsBBBBILjC0AHBSxQDgfXVZCABd6vLcCCCAQHKBoQWAT1QMAN5Xl4UA0KUuz40AAggkFyAALP5COwJA8sFD8xFAAIE+CxAACADjbwP4WKAggAACCCQRIAAQAAgASQY7zUQAAQRKAQIAAYAAUI4IthFAAIEkAgQAAgABIMlgp5kIIIBAKUAAIAAQAMoRwTYCCCCQRIAAQAAgACQZ7DQTAQQQKAUIAAQAAkA5IthGAAEEkggQAAgABIAkg51mIoAAAqUAAYAAQAAoRwTbCCCAQBIBAgABgACQZLDTTAQQQKAUIAAQAAgA5YhgGwEEEEgiQAAgABAAkgx2mokAAgiUAgQAAgABoBwRbCOAAAJJBAgABAACQJLBTjMRQACBUoAAQAAgAJQjgm0EEEAgiQABgABAAEgy2GkmAgggUAoQAAgABIByRLCNAAIIJBEgABAACABJBjvNRAABBEoBAgABgABQjgi2EUAAgSQCBAACAAEgyWCnmQgggEApQAAgABAAyhHBNgIIIJBEgABAACAAJBnsNBMBBBAoBQgABAACQDki2EYAAQSSCBAACAAEgCSDnWYigAACpQABgABAAChHBNsIIIBAEgECAAGAAJBksNNMBBBAoBQgABAACADliGAbAQQQSCJAACAAEACSDHaaiQACCJQCBAACAAGgHBFsI4AAAkkECAAEAAJAksFOMxFAAIFSgABAACAAlCOCbQQQQCCJAAGAAEAASDLYaSYCCCBQChAACAAEgHJEsI0AAggkESAAEAAIAEkGO81EAAEESgECAAGAAFCOCLYRQACBJAIEAAIAASDJYKeZCCCAQClAACAAEADKEcE2AgggkESAAEAAIAAkGew0EwEEECgFCAAEAAJAOSLYRgABBJIIEAAIAASAJIOdZiKAAAKlAAGAAEAAKEcE2wgggEASAQIAAYAAkGSw00wEEECgFCAAEAAIAOWIYBsBBBBIIkAAIAAQAJIMdpqJAAIIlAIEAAIAAaAcEWwjgAACSQQIAAQAAkCSwU4zEUAAgVKAAEAAIACUI4JtBBBAIIkAAYAAQABIMthpJgIIIFAKEAAIAASAckSwjQACCCQRIAAQAAgASQY7zUQAAQRKAQIAAYAAUI4IthFAAIEkAgQAAgABIMlgp5kIIIBAKUAAIAAQAMoRwTYCCCCQRIAAQAAgACQZ7DQTAQQQKAUIAAQAAkA5IthGAAEEkggQAAgABIAkg51mIoAAAqUAAYAAQAAoRwTbCCCAQBIBAgABgACQZLDTTAQQQKAUIAAQAAgA5YhgGwEEEEgiQAAgABAAkgx2mokAAgiUAgQAAgABoBwRbCOAAAJJBAgABAACQJLBTjMRQACBUoAAQAAgAJQjgm0EEEAgiQABgABAAEgy2GkmAgggUAoQAAgABIByRLCNAAIIJBEgABAACABJBjvNRAABBEoBAgABgABQjgi2EUAAgSQCBAACAAEgyWCnmQgggEApQAAgABAAyhHBNgIIIJBEgABAACAAJBnsNBMBBBAoBQgABAACQDki2EYAAQSSCBAACAAEgCSDnWYigAACpQABgABAAChHBNsIIIBAEgECAAGAAJBksNNMBBBAoBQgABAACADliGAbAQQQSCJAACAAEACSDHaaiQACCJQCBAACAAGgHBFsI4AAAkkECAAEAAJAksFOMxFAAIFSgABAACAAlCOCbQQQQCCJAAGAAEAASDLYaSYCCCBQChAACAAEgHJEsI0AAggkESAAEAAIAEkGO81EAAEESgECAAGAAFCOCLYRQACBJAIEAAIAASDJYKeZCCCAQClAACAAEADKEcE2AgggkESAAEAAIAAkGew0EwEEECgFCAAEAAJAOSLYRgABBJIIEAAIAASAJIOdZiKAAAKlAAGAAEAAKEcE2wgggEASAQIAAYAAkGSw00wEEECgFCAAEAAIAOWIYBsBBBBIIkAAIAAQAJIMdpqJAAIIlAIEAAIAAaAcEWwjgAACSQQIAAQAAkCSwU4zEUAAgVKAAEAAIACUI4JtBBBAIIkAAYAAQABIMthpJgIIIFAKEAAIAASAckSwjQACCCQRIAAQAAgASQY7zUQAAQRKAQIAAYAAUI4IthFAAIEkAgQAAgABIMlgp5kIIIBAKUAAIAAQAMoRwTYCCCCQRIAAQAAgACQZ7DQTAQQQKAUIAAQAAkA5IthGAAEEkggQAAgABIAkg51mIoAAAqUAAYAAQAAoRwTbCCCAQBIBAgABgACQZLDTTAQQQKAUIAAQAAgA5YhgGwEEEEgiQAAgABAAkgx2mokAAgiUAgQAAgABoBwRbCOAAAJJBAgABAACQJLBTjMRQACBUoAAQAAgAJQjgm0EEEAgiQABgABAAEgy2GkmAgggUAoQAAgABIByRLCNAAIIJBEgABAACABJBjvNRAABBEoBAgABgABQjgi2EUAAgSQCBAACAAEgyWCnmQgggEApQAAgABAAyhHBNgIIIJBEgABAACAAJBnsNBMBBBAoBQgABAACQDki2EYAAQSSCBAACAAEgCSDnWYigAACpQABgABAAChHBNsIIIBAEgECAAGAAJBksNNMBBBAoBQgABAACADliGAbAQQQSCJAACAAEACSDHaaiQACCJQCBAACAAGgHBFsI4AAAkkECAAEAAJAksFOMxFAAIFSgABAACAAlCOCbQQQQCCJAAGAAEAASDLYaSYCCCBQChAACAAEgHJEsI0AAggkESAAEAAIAEkGO81EAAEESgECAAGAAFCOCLYRQACBJAIEAAIAASDJYKeZCCCAQClAACAAEADKEcE2AgggkESAAEAAIAAkGew0EwEEECgFCAAEAAJAOSLYRgABBJIIEAAIAASAJIOdZiKAAAKlAAGAAEAAKEcE2wgggEASAQIAAYAAkGSw00wEEECgFCAAEAAIAOWIYBsBBBBIIkAAIAAQAJIMdpqJAAIIlAIEAAIAAaAcEWwjgAACSQQIAAQAAkCSwU4zEUAAgVKAAEAAIACUI4JtBBBAIIkAAYAAQABIMthpJgIIIFAKEAAIAASAckSwjQACCCQRIAAQAAgASQY7zUQAAQRKAQIAAYAAUI4IthFAAIEkAgQAAgABIMlgp5kIIIBAKUAAIAAQAMoRwTYCCCCQRIAAQAAgACQZ7DQTAQQQKAUIAAQAAkA5IthGAAEEkggQAAgABIAkg51mIoAAAqUAAYAAQAAoRwTbCCCAQBIBAgABgACQZLDTTAQQQKAUIAAQAAgA5YhgGwEEEEgiQAAgABAAkgx2mokAAgiUAgQAAgABoBwRbCOAAAJJBAgABAACQJLBTjMRQACBUoAAQAAgAJQjgm0EEEAgiQABgABAAEgy2GkmAgggUAoQAAgABIByRLCNAAIIJBEgABAACABJBjvNRAABBEoBAgABgABQjgi2EUAAgSQCBAACAAEgyWCnmQgggEApQAAgABAAyhHBNgIIIJBEgABAACAAJBnsNBMBBBAoBQgABAACQDki2EYAAQSSCBAACAAEgCSDnWYigAACpQABgABAAChHBNsIIIBAEgECAAGAAJBksNNMBBBAoBQgABAACADliGAbAQQQSCJAACAAEACSDHaaiQACCJQCBAACAAGgHBFsI4AAAkkECAAEAAJAksFOMxFAAIFSgABAACAAlCOCbQQQQCCJAAGAAEAASDLYaSYCCCBQChAACAAEgHJEsI0AAggkESAAEAAIAEkGO81EAAEESgECAAGAAFCOCLYRQACBJAIEAAIAASDJYKeZCCCAQClAACAAEADKEcE2AgggkESAAEAAIAAkGew0EwEEECgFCAAEAAJAOSLYRgABBJIIEAAIAASAJIOdZiKAAAKlAAGAAEAAKEcE2wgggEASAQIAAYAAkGSw00wEEECgFCAAEAAIAOWIYBsBBBBIIkAAIAAQAJIMdpqJAAIIlAIEAAIAAaAcEWwjgAACSQQIAAQAAkCSwU4zEUAAgVKAAEAAIACUI4JtBBBAIIkAAYAAQABIMthpJgIIIFAKEAAIAASAckSwjQACCCQRIAAQAAgASQY7zUQAAQRKAQIAAYAAUI4IthFAAIEkAgQAAgABIMlgp5kIIIBAKUAAIAAQAMoRwTYCCCCQRIAAQAAgACQZ7DQTAQQQKAUIAAQAAkA5IthGAAEEkggQAAgABIAkg51mIoAAAqUAAYAAQAAoRwTbCCCAQBIBAgABgACQZLDTTAQQQKAUIAAQAAgA5YhgGwEEEEgiQAAgABAAkgx2mokAAgiUAgQAAgABoBwRbCOAAAJJBAgABAACQJLBTjMRQACBUoAAQAAgAJQjgm0EEEAgiQABgABAAEgy2GkmAgggUAoQAAgABIByRLCNAAIIJBEgABAACABJBjvNRAABBEoBAgABgABQjgi2EUAAgSQCBAACAAEgyWCnmQgggEApQAAgABAAyhHBNgIIIJBEgABAACAAJBnsNBMBBBAoBQgABAACQDki2EYAAQSSCBAACAAEgCSDnWYigAACpQABgABAAChHBNsIIIBAEgECAAGAAJBksNNMBBBAoBQgABAACADliGAbAQQQSCJAACAAEACSDHaaiQACCJQCBAACAAGgHBFsI4AAAkkECAAEAAJAksFOMxFAAIFSgABAACAAlCOCbQQQQCCJAAGAAEAASDLYaSYCCCBQChAACAAEgHJEsI0AAggkESAAEAAIAEkGO81EAAEESgECAAGAAFCOCLYRQACBJAIEAAIAASDJYKeZCCCAQClAACAAEADKEcE2AgggkESAAEAAIAAkGew0EwEEECgFCAAEAAJAOSLYRgABBJIIEAAIAASAJIOdZiKAAAKlAAGAAEAAKEcE2wgggEASAQIAAYAAkGSw00wEEECgFCAAEAAIAOWIYBsBBBBIIkAAIAAQAJIMdpqJAAIIlAIEAAIAAaAcEWwjgAACSQQIAAQAAkCSwU4zEUAAgbHACknHa/ET4HjimObneeOdd/TzExXb4311WWw1je1SH+tjwccEBQEEEEBgwAIrJX2+8gTjCYoAMPlBVTsAuH++IGmDyavIIxFAAAEE+iSwlaQfNpj8CQDTHSUtAoD76AJJj5uuqjwaAQQQQCC6wDMkXdVo8icATHd0tAoA7qdrJT1nuuryaAQQQACBqAKvk3RHw8mfADDdkdEyALiv7pL0pumqzKMRQAABBCIJrCnp7xpP/J5QCADTHRWtA8C4z06StPZ0VefRCCCAAAKtBR4i6Ywgkz8BYLqjIUoAcL+dI+mR01WfRyOAAAIItBLYTtLPAk3+nki+2zHGkL4GaKvxq/AIPy+VtHPH/cfTI4AAAggsUWAvSTcEm0A8iX1xie1a6J8PKQDYKsLEX9bhNkkHLtQJ/B0BBBBAoI3AS2Yu4CpP3FG2/7ZjkiEFAFtF6beyHndLekXH/cjTI4AAAghMKeBX/q2v9C8ni9nbb5yyPdM+fEgBwFaz/aL8v78h4KBJQQABBBAIIPBMSbcGnjQ8ebmOXZYhBQBbRZnw56rHnZL26bIzeW4EEEAAgYUFfHHWjcEnjIsrrDU/pADgdfltNtfkG+V3t0v644UPTx6BAAIIINCFwA6Srgk+UXjCOryLxs96ziEFADfNZlEm+/nq4Xeddp/VD/wvAggggEDHAltLurwHk8RNkh7RsYWffmgBwGa2m2/yjfL7m0frTexaoX/ZBQIIIICApC1GV2P/ogeTgyepV1bqsaEFALPZLspEv6p6+Gunu1TqZ3aDAAIIpBV4+Ogq7At7MjF8vGIvDTEAmM+Gq5p8o/ztOklPqtjf7AoBBBBIJbCxpO/3ZEL4P5JWVuydoQYAG9oyykS/qnpcLcnXpVAQQAABBJZR4MGSvt2TieDkBjeRGWoA8CHkG/LYdFWTb5S/XVbpmo9lHFo8FQIIIBBb4JQeTAD+fvihjRiHHADGpLa1cZTJfr56nClpjXGl+YkAAgggsHiB1/TgpO/vrT9l8U1c8r/MEACMZOPoawQ4GLx7yT3KEyCAAALJBbYfvaq+JXgA8IVqGzTupywBwMzrSzox+DHh+wawUFDjQcHuEUCgvwLrSbog8In+ekkHBOHNFADG5C+WdG3g48MXBW45riw/EUAAAQQmF/ho4JP7WZIeM3lTOn9kxgBgVK8J8fXAx8k5ktbqvPfZAQIIIDAgAd97fb6LrFr+3hehvS3gRV5ZA4AP+dVHFwceEfhukB8c0LikKQgggECnAo8PeoOfSyQ9rdOWL/7JMweAsdofSLooaHDcf1xJfiKAAAIIzC3g73xHXOzHbzNvOHeVQ/yWAHBvN7iPvhEwBHi5YAdbCgIIIIDAPAJ/H/Dk/W+S1p2nvlF+TQC4ryfWGS3Le2rA4+j8HhxH9ymyhQACCFQU2C/gSftTPbmIiwBw/wPVC/FE/KrgP96/mvwfAggggICvqPcNVVpe4Dd73yfMXGDWh94hADywl1YbfWzzP4IdU14fgDsHPrCv+A0CCCQWiPaW7bGSPIH0pRAA5u8pf0Ngdrhr+f/njr5JsmL+6vIXBBBAII/As4OdoP01v74VAsCqe8zLSd8V6Dh71aqry18RQACB4Qv4O9w/CHRifkNPyQkAC3fcvpJuC3KsXSFpo4WrzCMQQACB4Qr8eZATst8S7vOrMgLAZGNk70DvBHxgsirzKAQQQGB4Ar6Bjl8Jtfw8drzvv+k5LwFg8g78qyDHnFeVfMLk1eaRCCCAwHAE3hvkRPwvA7goiwAw3bj4SJBj74zpqs2jEUAAgf4LPDbI57E/lLSy/5wiAEzXib5BT5SbCP3JdFXn0QgggEC/BT4X4BXYVaPFYrbqN+Nva08A+C3FxBubSvpZgOPwF6wQOHGf8UAEEOi5wG4BTrp3jF4BPrPnjmX1CQClxuTb2wZZgOrtk1eZRyKAAAL9FPACKOcFCAB/2U++eWtNAJiXZsE/7DG6nbAvyBtfENri562SfmfBmvIABBBAoMcC/6XxidYn9w/32G++qhMA5pOZ7PcHBzguj5usqjwKAQQQ6J+A76h3WeMTrW8V6wvAhlYIAEvv0ZqGc73LcGPwW04vXZhnQACBtAJ/1njy982GNhuofs3Jy/saYvFFgVc2PkbfOERY2oQAAgh8p/HJ9S8G3AUEgOXp3Jc2PkYv6dEdKJdHnGdBAIHBC+zc+MR6zgAW+1nVQUIAWJXOdH/7YuNjdZ/pqsujEUAAgdgCJzU8qfoK79+LzbPo2q05upnSiyRdWNHX+3qhJO97iGULSTdU9Jx9PcA3h4hKmxBAIKfAQxuv+nfsANm3lnS0pMsbTlS+oPNdkryq49CKvyY6e2Ku+f87DQ2U9iCAQE6BtzQ8mf5yIEv9+sjxtyheFmgJ2/GEeLekL0vaf0DfsPB6FWc1PG5PznmqoNUIIDAkgdUleanT8WRR+6ffHu97seFBkq5u6Dhpv/kdCa/14Am072Wbhu9c3S7pkX0HpP4IIJBbwPdfn3TyWO7HnToA+qcGWTlx2r7xRZdPHoD/Xzc8ft85AD+agAACiQVOb3QCvUnSlj12f/joRkUnNrKbdrKf7/H+aOAESQ/rcT88SNKvG/WD1yRYp8d2VB0BBBIL+EI1TwLzTRBd/v6onrqvIen1QW5Qs1z94wWYDpHktvWxeHGe5bKY9nm8eBYFAQQQ6J2Ar76f9oS3HI+/WdImvdOSNp65mG45DCI+hy8UdBv7Vh4sybeObmH6pb5hUV8EEEBgPUnXNjpp/m0P+X3B2UWNvGpObG6j29q30upaAF8MuH7fsKgvAgjkFtiv0WR2Vw+/l77nwN7yXyhQ+CMBt7lPZaPRRzPXNzqmPZYoCCCAQG8EfPHXQhNBF3//TG+E7q3omyQ5tHRhEfk53Wa3vU/lPY366eN9QqKuCCCAwK8anSx36Qm9v9v/kUZGkYKBDWzRh+JvZtzSoM/8UdpQl13uQ79TRwQQmEJg+wYnSU9q35qijq0f6usUIk3ELevSp2s2Ptio357V+oBl/wgggMAkAn5rt8WE4hvU9KE5f0f2AAAV6ElEQVQc1sinRZ9Muk+b9KH4RkF3NOi/9/cBhzoigAAC/rrXpCf+5Xqcry7vw/KzBzSwWS7jrp/HNn0o/ky+a4vZz//zPsBQRwQQyC3gr//d1uAE+boesD9bkr/WNfvkzv/fa2IbG0Uvz2/Uh0+MDkP9EEAgt8DzGpwcfWGWg0fk4pN3q6+R9Slg2Cj6ROflgVv05ZGRD3DqhgACCBzXIAB8Pjj7ysZ3ROxTAHBdffdIm0Uuvl1vbddzI4NQNwQQQKDFana+/Wzk8oEGk0XtyWm592ezyOUFjfr00ZFRqBsCCOQV2KrBSdE3G/L3s6MW3xI340I/Sw0ENot8O2Hfpe/GBsf7gVEPdOqFAAK5BXwh3lJP/NP++7MDk3vxlh80MJnWMOrjbRd5AZxPNujbYwIf71QNAQQSC/iz+NqTSeTvjx/RwKO2f9f7s2HUsk+D/uXugFGPBuqFQHKBqxucELcNav44Sbc28Oh6Qq79/Da0ZcSy7uh+BjdV7uNLI0JQJwQQyC3w0MonQk9EvuAwajmtgUftybnW/mwZtXyqQT9vGhWDeiGAQE6Bpzc4Eb4vKHWreyHUmpBb7MemEcvLGhz3z4gIQZ0QQCCvgL+KV3ti2DUo9z82sKhtX3t/No1YtmnQ1wdHhKBOCCCQV8BXJ9ecFHyL1Ii3kX1Io1vG1rRvsS+v9mjbaMXH4M2Vj/2oYSha31AfBBCoJPCFyifBMyu1a9rdHF7ZocVk3Gqfto1Y/FXUmibnRESgTgggkFfgp5VPgscHpPZ31n9V2aHmxNN6X7aNuC6Aj8WaNv7mQR/ufBlwiFIlBBBYbgHfHKX2ancHLXcjluH5Xlx5Iqg56UTZl42jlVc16PffjYZAfRBAIKfAdg1OgLsFpP5qA4coE3Otetg4WtmpQb+/KBoC9UEAgZwCLVZE87oDkYrXhr+twURQa+KNsh8b2zpSWVvSHZX7/qhIANQFAQTyCtS+8O2KgNTPrDwBRJmQW9TD1tHK9yv3/0nRAKgPAgjkFDix8snvjIDM76hs0GLijbJPW0crH63c/6dGA6A+CCCQU8BfS6o5OXwwIPM3KxvU9I62L1tHK4dU7v+vRwOgPgggkFPAi/LUnCReG4x5PUm3Vzao6R1tX7a2eaSyb+X+962SKQgggEBzgdpfAfzD5i2+fwV2r3zyjzYht6iPzSOVZ1U+Bv4jUuOpCwII5BTwwiy1J4DNglG/s4FBbfNo+7N5pPKkysfA9ZEaT10QQCCngN+KrT05bBCM+p8bGNQ2j7Y/m0cqW1U+Bu4Oei+MSH1CXRBAoGOBjSuf+DwReeXBSOX0BgbRJuTa9bF5pLJJg2Ngo0gA1AUBBPIJPKLyic+vfKKV8yob1J5sI+7P5pGK7wpY2+l3IgFQFwQQyCewZeUTn28LG638srJB7Ykm4v5sHq34c/maVk+MBkB9EEAgl8DWlU961wTkvbWyQc1JJuq+bB6t/KLycbBrNADqgwACuQS2r3zSuzQY78rK7Y86Ibeol+0jle9VPhb2itR46oIAAvkEat8J7eJgxI+pfNJvMdFG3aftI5WvVT4WDozUeOqCAAL5BJ5a+aT342DE/6ly+6NOxi3qZftI5fOVj4WDIjWeuiCAQD6B2nfB+24w4toXQbaYaKPu0/aRSu2vg74yUuOpCwII5BPYo/KrnrOCEXtNgqgT5NDrFW09iLMrHwt/EmwsUB0EEEgm8ILKJ72Id0G7urLB0Cf2Sdpn82jl/MrHwXOjAVAfBBDIJfCiyie9HwbkrX3in2SCHPpjbB6tXFJ5LPj6GwoCCCDQTGC3yie93zRr6fw7rv3Z79An90naF20pYB8dV1UeCzvMf0jyFwQQQKB7ge0qn/R86+EV3Tdrqj18rLLBJBPk0B9j82jl9srHQbSvQUbrD+qDAAIdCzys8knPE9umHbdp2qd/dwODoU/wC7XP5pHKWg2OgWjjIFJ/UBcEEKgg4Jug+AY9C52wl/Pv21Zo1zS7OLhy+5fTsq/PZfNIpcXdANeOBEBdEEAgp8CVlSfAaGug++tYfZ1I+1rvaF+B8+fxNS3vyHmqodUIIBBNwKvz1Tz5RTv5174hUk3rqPuyeaSyT+UxEPGmWJH6g7oggEAlgTMrn/z+olK7ptnNBZUNok7MNepl62jlLZX7/+fRAKgPAgjkFPh05ZPf8QGZuRCw3rtA0S4A9OF4QuUxcEbAMUCVEEAgocDfVT75RVsO2F2+c2WDGq+0o+7D1tHKNyv3/4eiAVAfBBDIKfD2yie/mwKuBeC1CS6r7BB1gu6yXjaOtg6ER70XqOqy3bOf+005TzW0GgEEogn8eeWTn0+Gj4+GIOkfGjjMnhiG/v82jlY2aNDve0VDoD4IIJBT4CkNToD7B6Tes4HD0Cf82e2zcbSyU4N+3yYaAvVBAIGcAisbLAYU8UIwL8xyY4PJYPYkOdT/t23ExW9eU7nPvRx2tFsh5zzz0WoEELhH4MLKJ8HTgrrX/kbEUCf7udpl24jlk5WP/YsjIlAnBBDIK/A/K58EI94V0L3/9MoOc02UQ/2dbSOWyyv3edTwG7FvqBMCCFQQOLzySdCT3BMrtGsxu/iXBhZDnfTH7bJpxOL7UozrWOvncREhqBMCCOQVaHEBnFdfi1h8gdadDSaGWhNQ7f3YMupFbwc16Oe/jHjQUycEEMgr8MgGJ8JvBObmK4HL98o44lf/xodei2s+dh/vnJ8IIIBAFIErKocAvzLcKErjZ9VjM0lesKj2q+Wh7c+GtoxYVpNU+06YPub9rRsKAgggEErg9AYTXsT1AMad8o4GHkMLADaMWmrfAth9++2oGNQLAQRyCxzdYML7WGDy9RssETukAOBvetgwajmqwfH+rqgY1AsBBHILeHnS2hOQJwm/FRu1+NbFtU2Gsr+It30uj7Paa1+4X59TVoBtBBBAIIrAepJubTDhPTUKwBz1WF3SlxqY9D0E2Mx2UcvvN+jTOyQ9OCoI9UIAAQS8SEntySfyxwA+Inyh4k8auNTuh+Xan62iXtw5HuHHNujPiLfBHnvwEwEEEJC/o7xcE8Gkz3OLpI2D228t6doGNpMaRnmcjWwVufidiRa3fv5vkVGoGwIIILBVo0nu4B7Q/xELBK0yHPorbjaKXlzHFoGJ7/9HPzKoHwII6IIGJ8gf9cT9kAY2LSarxezTNn0o/shpMe1byr+5XZKvsaEggAACoQWOaXCC9Mk16s1iZnfWPzXyWcoE1PW/tUkfihfhuaFB/32rDzjUEQEEEHhGgxOkJ6iTe0K/liQvY9z1pNqX57eFTfpQ/qpRv0W970Uf+ow6IoBARYE1JV3f4ETpryBuWrGdS9mVF7g5tYFRtFBgg8iL/ZR9vLakSxv02d2StiwrwjYCCCAQWeBTDU6Unty8GmFfyoqZ+kablGvVx31lg76U1zY6pr/eFyDqiQACCFjgJY1OljdLenjPuuBljRZQqjXRz96P36lxm/tU1pB0caNj+jV9gqKuCCCAgN8uvarRCfMDPeTfudF3y2dPzl3/v78/77b2rTiwdG0z1/Pf1oM1LvrWl9QXAQQqCLyv4Ulz8wrtW+5dPFrSdxqZzTX5LPfv3Da3sW/F95rw10yX22OS5/tc37CoLwIIIGCBxzc6afrE+g897YJ1JX28odskk9JiHuM2uW19LC9s2B/79hGMOiOAAAIW+Fqjk6dvnOJVCftanjZaFc9rvy9mso30b9wGt6WvxV9P/PdG/XCdJH+URkEAAQR6KfDiRidPT4In9VLs/pX2q88WKysuNUS4zq5738thDY/fviyO1Pc+pv4IINCRwIMkXdnwJLpbR+2q+bS+Av3Vkn7d0HHSQOA6uq6uc9+LryO5qaG5F9SiIIAAAr0WeG/Dk+iFktbptd59lfdn6EdI8lvDk07ItR7nOrluff2c/z7l+7Y+3dD5pz1bI+E+NbYQQACBQuBxDU+kngDfVdRlCJsbSjpAkieoGxvaet+ug+viOg2ptLrj3ziw+V0UCgIIIDAIga80nKh8QeCOg1B8YCN8kdjzJH1Y0uUVjL0P78v7HOoFar7w7ycVLMeT/eyf/hjFH51REEAAgUEIPL/hCdUn2HMlrT4Iyfkb4WV1nzJ6G/49owvwvr9M92PwPR38XH5OP3eflu6dX2rVfzm88bH6xlVXj78igAAC/RP4duMT65v6R7bkGj94tK6AP4LZdfSq1t/I8OTiBZo+IenMmf+87d/5b36MH+t/43+brfyeJK++N/tVea3/vzqpe7bjjPYikE5g94YnVp/AfZ+AbdOp0+BJBXxXwosaH6NvnbSyPA4BBBDom0CrhYHGr+C8qEtfbj/bt77te30/2Xjy90WVm/QdkfojgAAC8wl4VbjxZNzq52cleX13CgJjAd9xr9XxON6vP4ahIIAAAoMWOC3AyfbNgxamcdMI7CDplsbHpK87eOQ0leaxCCCAQB8Fdmp8svUrrjslPauPeNR5WQV8oWOrtf7Hr/z9s683r1rWzuDJEEAgh4Bvc1qeAFtsX9HT29PmOEK6b6U/Bmr9ub+Pe1+cukX3zWUPCCCAQAyB7SXdHSAEnCNpvRgk1KKygD9zbxE8Z+/TSyhTEEAAgVQCJwc5AZ/Oymupjjs39tAgx57vVcGqf+kOPxqMAAIPk+SFT2a/Imrx//5IYgh3sOOoWljg5UGOOR/nz124ujwCAQQQGKbAKwKdjE9KstTtMI+kyVrlexj43hAtQubsffrrqBQEEEAgtcCXg5yQfYI+PnVPDLvxu8xccDd7Im7x/1z4N+xjjdYhgMCEAlsFOjF7MvCNbyjDEnhioI+bfIz5hkMUBBBAAAFJvlFPi1di8+3z3awWOJjj0jc3ui7Q8eVbDXPh32AOLxqCAAJLFfCten3L3vkm5Ba/97cUfG94Sn8F9pF0a7Dj6jn95aTmCCCAQDcCO86s0Ndisp9vn1+RtEE3zeVZOxZ4raS7gk3+vvUyBQEEEEBgDgG/9T7fZNzq99+X9Kg56sqv4gq8PeBx9FPCZNwDhpohgEB7gXUk/Sjgyfs/JD2hPQ81WEDAHyV5Xf1WYXG+/fpmP09aoO78GQEEEEgv8HhJ1wc8iV8ryd8jp8QUeKikLwU8bhwKDo5JRq0QQACBeAK+eGu+V1Otf//fuTgw3AHzDEmXBj1mvMokBQEEEEBgCoGjg57QHUD8jYXHTtEWHtqNgN/yf2vAi/3GIfUSSRt103SeFQEEEBiugE/uXw0cAvwxxUuHyx++ZZtJOiPw8eElh3cOr0gFEUAAgaAC/lz3l4FP8n6l9xFuKVz96PF36X8T/Ljw4lYUBBBAAIElCPhV1O3BT/Y/G30s8MdLaCP/dDIB30HSgevu4MfDF1hJcrIO5VEIIIDAQgKvC37CH3/me6ok39uAsrwC/jjov46upvc3McbWUX/+u6RNlrf5PBsCCCCQW+CjPTj5e1Ly0rNvk+Q1DShLF3i6JC/GFHXCL+v1K0lbLL3JPAMCCCCAQCmwpiS/tVqecCNv/1zSC8oGsD2VwCMk+X4Mkfu4rNs1LBY1Vf/yYAQQQGAqAb+qjnzldzkhjLfPlMQNYCbvZn/O/y5JN/Ro8r9F0lMnbyKPRAABBBBYjMBKSef0aHIYBwGvHeAFjlYsptEJ/s2Wkj4oyZPp2KwPP++U9PwE/UMTEUAAgRACvsjq/J5NFOPJ7AJJL5fkjzQo0jaSPibJ35sfG/Xp5yvpRAQQQACBugL+jPiink4anuC8StwbJPkt72xltdFHObtK+mwPvtK3qjDylmwdR3sRQACBKAJ+2zj6QkGrmkD8N7+F/EVJfypp3SiwHdVj+1Eb3yPJd1dcyCX634/tyIinRQABBBCYUMB3D4y+Ktykk5mXFz5Bkm9uM5RrBTYffTXyzZJ+MIBJf9yP7iO/i0FBAAEEEGgssEPgu8GNJ41pf/pV8ock7d+zjwnWkvSU0eqNfnvc34CIvmrftP3im1Qx+Tce8OweAQQQKAX8ccCPB/Qqc/bE5Ise3y9pb0kblg1vvL326KZNfzia6I+U9GVJNw+0DxxkXt/Ymt0jgAACCMwjsLGkrw90AioDwV2jr559Z7Ts8ImjawiOkLSvJH++3uXqg16O18sc7zFakvfg0bsSx89Ye+XDsm5D3Pa9KF4yzzHHrxFAAAEEggg8SNIpCSaluSZav0r1CoSnSTpO0tsl+a50r5b0YknPm3m1vqOkx45W2vtdSd5+2sxiRV6n4EBJvvfCoTMX7H1O0o8k3ZbU9EZJfxTk2KYaCCCAAAILCPgz2vclnbDmCgb8bnHvUlwxWn56pwWONf6MAAIIIBBQwHeQ89vlTIAYTHsMXCzpcQGPaaqEAAIIIDChwIt6uLzstJMVj1/egPM9SV5oioIAAggg0HOBJ8+svMdEubwT5RA9/R3/9Xp+vFN9BBBAAIFCYKPR7Vo/zccBfBwyzzHguw8eUBwvbCKAAAIIDEzgtXwkQAiYFQLO4/P+gY1ymoMAAgjMI+DvzA950aAhvjXfVZt8C2J/dZSCAAIIIJBEwDfe+adZrwS7mmR43njXHlwzuj+BLxClIIAAAggkFfACOb4JD5N0HoOzJXnpaAoCCCCAQHIBL3HrG9cQAoZt4GWL3yZpzeTHO81HAAEEEJgl8NIB3lWQUHNvqPnXmeWPZ3U5/4sAAggggMC9AuvPLCN8B+8IDOIdEa/otxcHNwIIIIAAApMKbCfpDEJAb0PALZLe2vEdEic9lngcAggggEAPBXyR4K8JAr0KAp+X9JgeHmtUGQEEEEAgmMBKScdI8n3h+Uw9rsFFkvYMduxQHQQQQACBAQhsLun9km4mCIQKQheM7vXwn7m6fwAjjCYggAACwQU2HU02fyPpWoJA0yDwfyXtM/pq34rgxwvVQwABBBAYmIC/MXCopMsIAlWDwFcl7T6wY4nmIIAAAgj0UGBtSb7JkL9yxjUC3RjcLel/SfKtnSkIIIAAAgiEElhD0ksk+RWqJyzCwNINvEyz79mwbaiepjIIIIAAAgjMI+ALBg+X5AvUCALTGXgRplNHdvvzPf55ji5+jQACCCDQC4Hfl3ScpCsJA6sMQ2eNjA4aWT2kF71KJRFAAAEEEJhQwDeh2VvSZyTdRhi4JwxcOHL4a9bpn/AI4mEIIIAAAr0X2FDSC2bWFTg/URi4UdJpowB0mKSdet+LNAABBBBAAIElCjxU0n6S/l7STwYUCG4YXbn/bzMT/s4s1rPEo4R/jgACCCAweIFHSTpA0gmSfiDJ97Lvw8WEV81M+G+e+cqevxlBQQABBBBAAIFFCni1O9/gZg9Jr595p+BrjRYhuml0LcN5kk6ZWRHxwNHb+n51v8ki28Y/QwABBBBAAIFFCPh6gj+Q9LKZcHCUpPdJ+vDMJO234L85807CJZKukXTnzIWIfsXu3/k6hLMl/W9Jn5N0oqTjJR09WtPgSEmvlrTb6Dn9zsRqi6gj/wQBBAIJ/H/t51qLAWK+iwAAAABJRU5ErkJggg==;" vertex="1" parent="1">
                    <mxGeometry x="1680" y="446" width="109.25" height="109.25" as="geometry"/>
                </mxCell>
                <mxCell id="125" value="" style="shape=image;verticalLabelPosition=bottom;labelBackgroundColor=default;verticalAlign=top;aspect=fixed;imageAspect=0;image=data:image/png,iVBORw0KGgoAAAANSUhEUgAAAgAAAAIACAYAAAD0eNT6AAAAAXNSR0IArs4c6QAAIABJREFUeAHtnQeYLVWVtj/SvZcgSJCcGUAJYkJFwTAiBkTQEUQcQURRHBEUlNEZFXGSjuFnhuioDCDoAIqKCIJhJCmYQEARJaOSQXK885+Fpy99T/fprlNnV621d731PPe53aer9l77Xd9ea1Wdql0SGwQgAAEIQAACEIAABCAAAQhAAAIQgAAEIAABCEAAAhCAAAQgAAEIQAACEIAABCAAAQhAAAIQgAAEIAABCEAAAhCAAAQgAAEIQAACEIAABCAAAQhAAAIQgAAEIAABCEAAAhCAAAQgAAEIQAACEIAABCAAAQhAAAIQgAAEIAABCEAAAhCAAAQgAAEIQAACEIAABCAAAQhAAAIQgAAEIAABCEAAAhCAAAQgAAEIQAACEIAABCAAAQhAAAIQgAAEIAABCEAAAhCAAAQgAAEIQAACEIAABCAAAQhAAAIQgAAEIAABCEAAAhCAAAQgAAEIQAACEIAABCAAAQhAAAIQgAAEIAABCEAAAhCAAAQgAAEIQAACEIAABCAAAQhAAAIQgAAEIAABCEAAAhCAAAQgAAEIQAACEIAABCAAAQhAAAIQgAAEIAABCEAAAhCAAAQgAAEIQAACEIAABCAAAQhAAAIQgAAEIAABCEAAAhCAAAQgAAEIQAACEIAABCAAAQhAAAIQgAAEIAABCEAAAhCAAAQgAAEIQAACEIAABCAAAQhAAAIQgAAEIAABCEAAAhCAAAQgAAEIQAACEIAABCAAAQhAAAIQgAAEIAABCEAAAhCAAAQgAAEIQAACEAhLYK6kbSTtLekzkk6XdKmkqyXdIelhSf/HP1cGD/V9cVXfN+ajT/d9trUk8yEbBCAAAQhAYFYCm/US+4clfU/S/SR31+SeorgyH54t6UOSzLdsEIAABCAAgQUEVpG0v6RfkPCzT/izFQ0/7/t65QXe5wcIQAACEOgcgXUlHcqZfvFJf7qiwL46OE7Shp1TPQOGAAQg0GECa0o6VtIjnPF3MvlPLgjsPo7/lrRGh+cDQ4cABCBQPIHFJe0n6W4Sf+cT/+QiwH6+t6f+gyXNKX4WMEAIQAACHSOwRf8u8cHAz+88yTBZA5dI2rxjc4PhQgACECiWwO6S7uOsn7P+ihp4oH+lqNgJwcAgAAEIlE5gXu8mrxMqBv3JZ4H8zFUB04DdJMg6AqVHCcYHAQgUR2AZSWeR/DnrH1MDP5S0XHGzgwFBAAIQKJTAqpJ+OWbg5yoAVwEmNGDrQ9haEWwQgAAEIBCYgJ2tXUzy58w/sQYuk7RCYN1jGgQgAIFOE1hS0rmJA//EWSD/c0Xgx5KW7vQMY/AQgAAEAhJYVNJpJH/O/BvWwDckmdbYIAABCEAgCIGPNBz4uQLAFYAJDfx9EM1jBgQgAIHOE3iRpEcpADj7b0kDtoS0vWqYDQIQgAAEHAksL+kPLQX+iTNA/udqwA08Hug46+kaAhCAgKQjSP6c+TtpwN4kyQYBCEAAAg4Ens2lf5K/U/K3q0D2tdMzHXRPlxCAAAQ6TWARSRc6Bn++BuBrANPA+Z2ehQweAhCAgAOBV5P8OfsPooHtHPRPlxCAAAQ6S4AFfzgDj3IV5kednYUMHAIQgEDLBF4c5MwvSgLCDv9iaJuW5wDdQQACEOgkgRMpALj8H0wDx3dyJjJoCEAAAi0SWFbSfcGCP2fg/mfg3j4wTT6pxXlAVxCAAAQ6R2Avkj9n/0E1sEfnZiMDhgAEINAigTODBn/vM1D6978KcXqL84CuIAABCHSKwBxJ91IAcAUgqAbukbREp2Ykg4UABCDQEgF76Q9nujCIrIEXtDQX6AYCEIBApwh8lAKAAii4Bv6xUzOSwUIAAhBoicCpwYN/5DNTbGvnyskpLc0FuoEABCDQKQK/pgDgCkBwDVzaqRnJYCEAAQi0QGBxSQ8FCP7zJX1Zkq38tnQL46aLmQmYD+zeEFscynzjfaXjAUmLzWwyf4UABCAAgVEIrBcguNvrX3cdxWj2bZXAbkFeD71Oq6OmMwhAAAKFE7D3rnuf3X28cMYlDO8TAXTyjBJAMgYIQAACUQh4PwJ4v6RlosDAjqEEbKlouwzvWSzyYqCh7uEPEIAABEYn8GrnoM4rX0f3mdcR5zhrxbTKBgEIQAACiQi8wTmo83hXIke20Iz5yvMKgGmVDQIQgAAEEhHY2Tmon5RoHDTTPAHzlWcBYFplgwAEIACBRAQoABKB7EAzFAAdcDJDhAAEukOAAqA7vh53pBQA4xLkeAhAAAKBCFAABHJGcFMoAII7CPMg0BQBex3nqpI27a8Qtq2kHSVZAuFfvgw+6/y9riUVtjwIeBcAplViTd4MLGdY7rDHjy2XWE7hVc+B5v9ykv5a0v6SvijJHtO6PshKYJ43INF3MzeAUQAEmvyzmOJdADAHm5mD3lxtJdDr+rnmC5L26+cgy0VsDROwRVheKemTkn5Kone9y9l7Inr0TwHQ8ARP2DwFQJkJ2GPeV+nTCoOL+rnpFbwjJN1MXlnSeyWdK+lh50vAVYTAPuUGHgqAdPO66ZYoAMqdhznEWMtVthjVvpJWalrspbU/r//92bdI+pzlByr6KADyiTQUABQAUQoFKwa+KelvJM3NZwq1b+kakuzmmTsDBf0oIsIO/4BGAdB+TKjbIwWA/3whZk31wR2SPiNp9brCLvE4e83rUZIeJPFzxh9YAxQA+UQfCoCpyYeEHIeJ5bojJK2bz5RKb+mGko6T9EjgoM+kiTNpvH1BAZA+BjTVIgUA89Y7XlTp374eOEbSBk1NhIjtLtkz6mDO+Dnbz6zwowCIGE2mt4kCgAKgSgKOso8VAod24emBHSRdnVngjyIS7PANahQA0yfbiJ9SAPjOFWJVPf6/7z1OWOSrpNfs3wmJMOoJA27+3CgAIqb66W2iAPCfL8Ss+j74ekk3ClpFcytn/Vzyz1wDFADTJ9uIn1IA1E8+JO4Y7G6RZIsKZbst3rPcvut/LPPAz4SIMSG8/XBatjOxe4abr7z1Qv/4YFwNzO/fG5DdOwjWknQ+k5AgVJAGfty9PJrtiH9SkO7GTSIcn38hYqsK2tfoWWzPkWSXLxAeDErSwOVZzD6MNALmq5K0x1jw502SnhV9er9U0p+ZfASfAjVwVfTJh30LCPCkEQmzxKLpHknbLVB5sB92kfRQgYG/RCExptEDpL1qmi0PAuYrNA6DEjVgqwjuHG0avpub/Qg4hQfda6JNOuwZSsB8VWLwZ0z41TRgN9bvM1T9Lf/h7ZLsbkXECYOSNXBFy/OK7uoT+C3xiHhcuAYs5+5Vf4qkOXInSY8WDrrkpMbYqhdtP0szZWilBQLmK7QNg9I1YO/ReW0L82naLl4s6QEmGoGmIxr47rSzgA8jEjirI5osPcExvtmLuPslbdP2JNxC0l1MMpJ/hzTASoBtR5n6/Z3cIV2SJGdPkqUzukPS5vWny2hHrijpOiYYyb9jGqAAGC1OeO7NUsAkxdKT/uD47MbX5ZuedItI+kbHAv8gaH7vZnChAGg6uqRrnwKgm3O067HZlsC2HN3YdiDJnzP/jmqAAqCxsJK8YQoACoCuFgP7J59N/Qa3kvRwR4N/V8XEuJ8IpBQATUWW9O1SADyhW+Zwt1jYYnzPTT2lluV7f878O178UQCkjirNtUcB0K2kR5GzsL9tKewnpZxe/6/jwR+BLSywLvKgAEgZUZptiwKA+drFGDV5zP+eaorZ4wW24MDkxvkZHl3TAAVAqojSfDsUAMSnrsWnwfFazrbH9cfaFu29fegCkj/FDxoQBcBYoaTVgykAKAAGE2IXfz9n3KcCbK3hLoJjzPh9UAMUAK3m8LE6owBg/g7O367+vkfdmWQ3EdxKAUABhAYe1wAFQN1I0v5xFAAUAF1N+IPjvknS0nWm4AczD/z2ysSr+l9hnC09fgnXAgP/8mTg/VUUBUCdKOJzjHcBYFolzuTNwHKG+dHuqLdcMphYc/r9/aNOwyUlWeWQ0yBv7086e0+y3fwwd9RBs39oAjs765ECILQ8FjLOuwAwrbKVQ2BeP6e8W5K9Z8LW3s8pN/5Bko2h8rZvJgO0ysyWJrbXEs+pPDp2zJEABUCOXvOxmQLAh3tXerWTy9dL+mZGVwfsxLjSZon0+uAFgD3icIykjSuNiJ1KIEABUIIX2xkDBUA7nOlFeqqkYzN4VP5aSUtUcZjdNRj58sZ5kp5eZSDsUxQBCoCi3NnoYCgAGsVL49MQeEYGj8zvPo3dUz76UdAC4EFJ7xn3ucYpo+WDXAhQAOTiKX87KQD8fdBFC2zdnP0kWa6KeBL9g9mcsp6k+QGNt7v5nzWb8fy9aAI7OuvyjKLpljW47zpr5bVl4WQ0IxJ4Tv/pgWhFgN0zt/ZMY/mo88SZDtilklafyWj+1gkCf+2szT9KsgqfLTYB89GfnLXy0tiIsK4FAqtI+oWzDqfLpx8eNvZFJF0ZzODzJdmbCNkgsGUAbdrTJmyxCfxNAJ3YGSAbBJaTZDlsukTs9dlvhrllq2CG2pn/8sOM5fPOEbC7bb0mzUS/9jztWp0jn8+A7fKmXamZ8JfX/xvlgwxLGyawgqTLAmhy8lywk6kp2z8HMtIu4a0xxUI+6DIBW84ywv0pVgS8jq8DQknRLvvbc9kRkr99z2oLqbFBYILAmpJuDpRfD5kwbPL/Pw5ioE2gl082jJ8h0CcQaX0KK1LtxkC745x/fgzMB5FWLbXnrdkgMEjA7gt5NEiOPXfQOHvxjy2uM/kygdfP/zpoHL9DoE/A1uf20iX9wr6KBs5ktkJgCIFPBolfD0taZrKN2wcxzKrnWm8umjwYfi6WwKFBdFolEbBPNwuGzxU7+xjYuATsqyF7uVCE2PDKyYP5dBCjeH52slf4eZBAhDu8I0xebIgRRKfzA0+KDM5afp9MwPQxnW7a/uxTk436aQCjzAY2CMxEwO6otXtE2p4s9AfzKhqw73h5cmmmGczf7HH7nweIYRdOuGJxSQ8EMMjurGaDwGwEIi6uUSU5sE/5RcRFs4mXv0Og/8SKdzy4X9Ji5o3NAiT/GyeMQR4QmIXAwQH06j156T9mMfGRWbTLnyFgBOyx1RsCxDFbW0W7BDCEO/+ZGFUJbBBkPQCScMwk7OUXW6Ni/aoiZr/OE4jwRIDdU6WDAhQAvN638/NhJADRltf0Sjr0G6cIOWckBbNz1wk8M0De/YA54ShnQ2yFJLsxgg0CVQm83VmzJN44iTeKL/asKl72g0A/593iHMcON0+c7mzEV5EDBEYkMFeS3TcSJfhjR7d9Yd/nzhlRw+wOAVtB1DN2nGYusDtXPY04EB1AoAaB9znr1nPO0LdvzBrkv28N/XIIBLy/frfl/3WVcyDdAR1AoAYBWzEy0gs2BpMCv8dK0k35w94Jwct/akxgDpH3okBXmg9udy4AHn8UATFAoAaBvZy121RSod18iofda+iWQyBgBDZxjl+3mhH3OhuxMlqAQE0CdvMoTwTkkyxLK2zsrWrcwFxz8nKYVnXOvXebD+zNQJ4TcymEAIExCGwR6E2WnvOIvtuNYxY3bRE1NgjUJWBfY3rO24fMcE8DrG8q6Lry4bgJAh8KoGPveUT/7cYybl6emH38X5eA5T7veetvQF16HAeBPgGbSN8KMJm8JzP9txNQ7dFpTlwIPykIeM9ZCoAUXqQNdwJPkXQ9RYD7fPYOaE33f62kFd3VjgGlEGhar7O17x4wSnEk4/AnYHfVej/VMtuE4+/tnKU3wfk2SU/zlzkWFESgCZ2O0iYFQEFiYijS8wI82TLKBGTfPAoCe33qC5lgEEhMwHv+UwAkdijN+RN4laT7+DrAfW57B7dU/ZuWXuEvaywokEAqjdZtxz1IFOhThhSAgF0JsIUu6k4MjoOdaeAOzvwDzOZyTfCOM+4BslzXMjJvAptyY6D7/PYOcOP0bzf88Z2/9ywuu/9x9JniWPcAUbZ7GZ03gZUCvPEyxUSljXavSNib0rjb33v2lt+/97ymAChfY50foT2zbW/eeoSvBNznu3fAm61/W+HPFvnhOf/Oh41WAMymx6b/7h4QWqFMJxCQ9HRJ51EEuM/5poNa3fbPkbQ5MwUCLRKoq9VUx7kHgxZZ0xUEHj+z21PSTRQC7nM/VRAbtx17pe8enPUTHRwIjKvdcY93DwIOzOkSAporaW9JN1AIuMeAcYNY3eOtCLSvhnghGQHBi0Bd7aY6zn3ye4GnXwgYASsE3ibJXu06n2LAPR6kCmzD2jEf26V+uwo0hykAAWcCw3Ta1ufuE96ZP91DYAGB9XsFwMck/UzSoxQD7rEhVRA0X/60V+B9VNJ6C7zNDxDwJ5BK43XbcZ/k/i7AAghMJbC8pJ0kfU7SdyXZM+FcIWj3Ubw6Qc18dE3fZ+Y786H5kg0CEQnU0XjKYygAIqoCm0ISWFLSRpKe3fvK4GWSdpS0M/9cGZgPzBfmE/ON+YgNArkQSJnM67RFAZCLUrATAhCAAASKIlAnaac8hgKgKDkxGAhAAAIQyIVAymRepy0KgFyUgp0QgAAEIFAUgTpJO+UxFABFyYnBQAACEIBALgRSJvM6bVEA5KIU7IQABCAAgaII1EnaKY+hAChKTgwGAhCAAARyIZAymddpiwIgF6VgJwQgAAEIFEWgTtJOeQwFQFFyYjAQgAAEIJALgZTJvE5bFAC5KAU7IQABCECgKAJ1knbKYygAipITg4EABCAAgVwIpEzmddqiAMhFKdgJAQhAAAJFEaiTtFMeQwFQlJwYDAQgAAEI5EIgZTKv0xYFQC5KwU4IQAACECiKQJ2knfIYCoCi5MRgIAABCEAgFwIpk3mdtigAclEKdkIAAhCAQFEE6iTtlMdQABQlJwYDAQhAAAK5EEiZzOu0RQGQi1KwEwIQgAAEiiJQJ2mnPIYCoCg5MRgIQAACEMiFQMpkXqctCoBclIKdEIAABCBQFIE6STvlMRQARcmJwUAAAhCAQC4EUibzOm1RAOSiFOyEAAQgAIGiCNRJ2imPoQAoSk4MBgIQgAAEciGQMpnXaYsCIBelYCcEIAABCBRFoE7STnkMBUBRcmIwEIAABCCQC4GUybxOWxQAuSgFOyEAAQhAoCgCdZJ2ymMoAIqSE4OBAAQgAIFcCKRM5nXaogDIRSnYCQEIQAACRRGok7RTHkMBUJScGAwEIAABCORCIGUyr9MWBUAuSsFOCEAAAhAoikCdpJ3yGAqAouTEYCAAAQhAIBcCKZN5nbYoAHJRCnZCAAIQgEBRBOok7ZTHUAAUJad4g3mKpG0kvVXSAZI+KumTko6WdEL/n/1sn9nf3t/fd2tJK8UbDhZBAAIQSEYgZTKv0xYFQDJX0tB6kvaS9EVJF0i6XRpbX9aGtWVtvk2S9cEGAQhAoAQCdZJ2ymPGDtDjGlOCE7s6hidLenM/OV+TINlX1dLVkr4gaTdJy3UVPuOGAASyJ1A15jW1HwVA9hJqdwCLSdpW0nGS7m0x6Q+bAA9KOk3SzpKWaBcFvUEAAhAYi8CwuNbW5xQAY7mvOwevI+kzkm4KkPSHTY4/Sfq0pLW74xZGCgEIZExgWCxr63MKgIzF04bp60s6VJKdabclynH7ebh/hWLjNgDRBwQgAIGaBMaNdeMe7x7Ua3LjsIYJbCrpK5IezSjxD04Gs/1ESZs0zIrmIQABCNQhMBiz2v6dAqCO1wo+Zune2A6W9FDGiX9wEj3Sv4rxpIL9xtAgAIH8CAzGqrZ/pwDITzONWbyDpOsKSvyDk+kPknZvjB4NQwACEBiNwGCMavt3CoDR/FXk3mtI+m7BiX9wUp0hafUiPcmgIACBnAgMxqa2f6cAyEktDdj6Mkl293zbwvPu71ZJr2qAJ01CAAIQqErAOw66B/6qoNgvLYHFe83Zd/2PdTD5T0y6+f17A1g/IK22vFvbQNL+kr4m6TeS7uywxie0Xur/9sTPLZIu6l3V+7ykXXuPK+d0r4+3XygAvKOVQ/8rSzqXoLhA+z/ivQMOKkzb5SKSXiPJfGmFnXdgpX8/H9zXXyl0w7QSa6Q1b524T5RGqNLoUALr9qrkKwiQU3T/e0l25siWHwFb7+GHaHqKpr2Ti3f/dnXgU5LmBZa0NyN30QT2TXGm2bP9NxAoh2r+j5K2KM7rZQ/oTb23TN6Dpodq2jvBROj/x5JWDToNvPm4CyeoX4oz6/mSbiNQzqp3+77YXl/MFp/A+7jcP6uevRNMlP7txGfzgJL25uMuoIA+Kc6k53KWNJLO7TvEFxSngrIG9A6S/0ia9k40Efq/PuCVAG8u7iIqKyzFG43dCHMzZ/4j69yuljwtnjuxSNKWha1U6Z0EutT/BZLmBppF3uxHDoypDQ7ki+JMsQV+riX519a4XTbkzYKxpoUF79+i6dqaTh2/c2zv44Ek7c3PXUiBfFGUKctLupxAOba+L5X05KKUkfdgPoimx9a0d9Lx7t9uGo1yU6A3C3cx5R2OYlpvz0SfSqBMpu3TJBlTNl8CS/J1VjJNeyce7/6P8JXygt69ObgLagEJfkhG4P0k/+S6fm8y79BQXQL2yJ93wKT/Mnxwb5AVA7315D6h6gYDjpueADdINROgbFERe5SSzY/A1ykA3OO1d8JK2f8b/aS8oOeU46nTlrugFpDgh7EJ2HfV1xAkG9P0VZKWG9tLNFCHwKKS7kDbjWm7TvLI/Zij6wgx8THeDN0FlZhnp5szQXsLqvT+D++0wvwGvw7aZm4n1oCtEOi9ecdLd1F5O6CU/u3Sf5ff7NfWRDLGzytFNBmN46WJg39beqGfuCcltj6K9+atDwoAbwUk6N8uj15IgGxNyz+TtFgCv9FEdQI7ou/W9O2dlNrq/8Hq8mtsz7bGOqwfd1E1RrZDDe9LcGxdx+/qkL4iDJUCIO6Z9LDkEv1zCoAAiSNCcMnZBrvxz15gE32ylWbf7ZKWzVk4mdn+EjTOHE+sAb4CSAy0TpDPLA6FM/cfA/iwjt9LOObvw6mhXIO4CZAiP3XM4CbAAMmj3JDV/MiWlnRLAB+mnpi5tHerpGWadzM9SLL7XOyqSy7awM74vjoqwMzy1on7hArgg2xNOICA6K7f/bJVT36Gfw29u+vdO2Gl7H/nAFMg5XjqtOUuqAA+yNKEeZL+kFFAtMfnLpF0vCT72mJvSbv1/9nPH5H05f4+8zMa143BXi+apZgrGr1rRrqoE4w5pr2rBrYUcISrd94+pwCoGHyi7ZZDMHy09+7203uvb7U13FccAeBKkt7ce97+jF6xYG14T5LZ+t9lhLGxa30CVvTelIEeZtMLf/ef0xFWAbSZ4K0FfwPqx4NOH/mdAOIZJt4HJNmKeesm8NB6ko6UZI/sDOvP+/NvJxgnTVQjcGBgHXjrkP6rxYiHJK1fTW6N7+XtM/eg2jjhAjtYRdIjQQPh9yU9tQHmG/SvCHhPmOn6N1+YT9iaJzBX0hVBtT+dNvisWlJuk9O/NC/Tyj20Oe7p+qIAqOyqODtGPAuyM/Q2bojbXdL9ARNAG2OPo0BfS7aQZN/hThfQ+AwuM2ng/GD37Mxkaxt/c59EvqEkz94vDhb8bEENexdBW5utxW+P4LUxQar2YcsDs7VH4HW8+yKU/qvOE8/97Kbp1duTaKWePHlY3+4iqkSJnRYQWDOAzyaL9gZJGy2wrr0fNpZkd+BPtsXzZ3tyYbX2hk9PkvYJ/FWYpxbpe2pcuF7SZgFnjbev3ANoQJ+ENmmPQEnvNkmbONKyviMtDmOPNbK1S+Dlku4INCe8Azr9T03+F0hatV1ZVu7N218UAJVdFWPHY4IEO3s8z17R6r1tG+hS8Be8YXS0f7tB9NQg88I7oNP/EwWA3e1vN/zZjaNRN29/UQBEVcYQu64LEug+NsQ+j48PCcLkao/B0+cCAi+U9ANJOS0k5Z0ASuzfbhC15/ztEeLomzd/CoDoCplkn53peAvG+r9M0hKT7PL+cY6k3wRhk0PQ8fZX0/2bD94r6WRJl/e/IqAoiBE7UscvO8u3m5B/0l8vxBblirDCX1WNp+YxanvuCaUqKPaTTNyjOriJ/SNc+h/Uw3ZB2Lxh0DB+hwAEIDCEQBPxeZQ23RPKEC58PA2BjwZIcj+axq4oH50XgM8/RIGBHRCAQHgCoyTrJvalAAgvkScMtJflNCGCUdrc4Qlzwv20UwA+x4WjgkEQgEBUAqPE3ib2dU8oUR0T0S5bbKYJEVRt075ri/Td/6CPFg/wspgLB43idwhAAAJDCFSNvU3t55pQbFBs1QgsIulu5wLgsGqmuu51lDOju1xHT+cQgEBOBJpK7FXbpQDIRC32Ot2qTm1qv9dnwGrnAJyWz4ATJkIAAv4EmorVVdt1Tyr+LsjDAnu1blWnNrXfyhmgshW/mhp/1XbXyYATJkIAAv4EqsaUpvZzD5b+LsjDgs2dE5stuZvL5r088Ka5gMJOCEDAlUBTib1quxQAru6v3vlWzgWALbSRy3aRMyvzFRsEIACB2QhUTdRN7UcBMJuHgvzde6GbM4NwqGLGWc4FgL2ghg0CEIDAbASaSuxV26UAmM1DQf5u7z+v6tQm9vt6EA5VzDBbm2BQtU3zFRsEIACB2QhUjSlN7ecaKG1QbNUIbO+c1L5dzcwQe33HmdWrQlDACAhAIDqBphJ71XYpAKIrpG/fi5yTWuQlgAddeK4zq20GDeJ3CEAAAtMQqJqom9qPAmAap0T86JnOSe2aiFCG2HS9M6sthtjFxxCAAAQmE2gqsVdtlwJgsjcC//xXzkntMUlLBuYzYdrSAd4Hb69tZoMABCAwG4Gqibqp/SgAZvNQkL9HWOBm6yAsZjLjJc6Fkk3Up8xkIH+DAAQg0CfQVGKv2i4FQCZStJfwPOyc3Ox1xNG3Q5wZPSTJXkrEBgEIQGA2AlUTdVP7UQDM5qFAf/+tc3L7RSAWw0y5xJnRr4cZxucQgACi5iuaAAAgAElEQVQEBgg0ldirtksBMOCQyL9+0zm5mahsSeKo2zMC8Dk1KhzsggAEwhGomqib2o8CIJwkhhv0qQAJ7vPDzXP/y5cC8PlXdwoYAAEI5EKgqcRetV0KgFyUImmvAAnOvuNeKyAze1ui9z0SNun2DMgGkyAAgZgEqibqpvajAIipi2mtel6AAsCE+NVprfP98JQgbLb0xUDvEIBARgSaSuxV26UAyEgsdnf53UES3SsDcfNeJnlist3FEwCBVIEpEIhPYCJ2eP1PARBfIwtZeHqQAuBmSasvZJnPL6tI+lMQJnaTJhsEIACBqgS8Ev9EvxQAVT0VZL8DgiQ7E9B5zqsDLiXpgkA89g+iEcyAAATyIDCRiL3+pwDIQycLrPR+J8CgUO2s1xYpanubI+m0QMnfuDy9bQj0BwEIZE1gMJ62/TsFQGbyWVSSXX5vWygz9XeGJFuDv61tGUnfDcbgj5IWaQsA/UAAAkUQmCmutvE390RShBdbHsShwZKfCfWXkjZsgcPGkrxX+5tuYn6mhbHTBQQgUBaB6WJJm59RAGSop2cHLABMtH+WtLcku0qRerM29wn0FMTgJLVVCNkgAAEIjEJgMI60/TsFwCjeCrTvZUGLABPwhb0bBLdNyGo7ST8NPN5fJRwrTUEAAt0h0HbCH+yPAiBTrR0UOCFOiMwKgbdLWq4G4ydLeoekizIY54E1xschEIAABCZipdf/FACZatCewbdleb2EM0q/D0r6oSR7nfDrJG0qaQVJdie//bOf7TP7m+3zv5mNbbVMNYTZEICAL4FR4mgT+7onEF/8efduL+ZpQhS0WZ3rkXlLCOshAAFHAt6x1j2BOLLPvuv1JT1CEeCmYXv50HrZq4gBQAACXgQoALzIF9Lv8RQAbgXAMYVoiGFAAAI+BCgAfLgX0+vTJD1GEdB6EfCoJFuTgA0CEIBAXQIUAHXJcdwCAl+kAGi9ALD7L9ggAAEIjEOAAmAcehz7OIEVJd1KEdBaEXC7pJXQHgQgAIExCVAAjAmQw/9C4J0UAK0VAHshOghAAAIJCFAAJIBIE39ZfvfHFAGNFwG2MFETSx2jYQhAoHsEKAC65/PGRmyvCs5lcSBv4dfp3xY04pW/jcmXhiHQOQJ14lDKYxo/Y5rN2M55vOEB78dVgMY0/XcN+47mIQCBbhGYLT82/ffGgmVVw7vl7nZG+zWKgOS6Prkd19ELBCDQIQJV82RT+yUPlKMa2iFftzZUe5HO1RQBybT9+5ovNGrN4XQEAQhkSWDUfJl6/2RBsq5hWXotA6O3lHQ/RcDY+r5P0rMy8DcmQgAC+RGomzdTHTd2gBzXkPxclo/Fr+FdAWPp21b72ykfd2MpBCCQGYFx8+e4x48VIMft3I5na5bA3/ZesTufKwEj69yYva1Z19A6BCDQcQIpcug4bYwcGMfpbLpjO+7/Vob/IQqAkXX+gVY8QycQgECXCUyXE9v8bOTAmNq4Lju/zbH/C0VAZa3/U5uOoS8IQKCzBFLn01HbqxwUR2246v6d9bzDwPflzYEz6t0u+x/o4Be6hAAEukmgap5sar8ZA2JTnU5ut5tu9xv1bpIe5mrAFN3bCopv8nMLPUMAAh0kMDkXevw8JRC2bUQHfe4+5FdKuociYIH2/yzp5e5ewQAIQKBrBNrOt4P9LQiCg39o6/euOTzKeDfqPeJ2MUWALpO0SRSnYAcEINApAm3l2WH9UAB0Sm4LD3aepEM7XAQcJ2mphZHwWyEE1pC0q6RPSPp8r8g7iX9FMjhB0uGS7Kkdu4qX23welpjb+pwCoJCAN84w7Ltvuwzelui8+7lL0i7jAOPYkASWlmQ3uv68Q1r2nkvR+rc3dtq7UF4RUqFTjfLm5x70pyLhEw8Cq0myM2JvQTbd/2mS1vIATJ+NEVhMkr2p8dYO6Lfp+VFS+xdJel5jqkvTsDdv94CfBiOtpCLwEkmXFxhIr8zorCCVL7vQzpqSzi1Qr96JoZT+H+s99fRhSYsEnQzenCkAggrD06y5kmz1wNsLCKy3STpI0hxPoPTdCIFNJd1YgEa9k0AX+v9q0PsDvNlTADQSmspodBlJ+0n6Q4ZB9paeCw7mNb5lCHGaUdiTG1bceQdQ+s/HB2f0bgq1r4sibd76cZ9AkZyBLdMTWLJ/c9U1GQTcq3uJ4T2SzGa2MgmsIOnaDLToHdzpf2px8m/BpoS3jygAggkisjmLStq6/+hgpK8H7AkGu4Fx28Df9UX2a2622SN93oGT/vP1wWsDCd5bR+4TKZAvMGUEAnaGbcsK2yM3HsWAXf49pf+sN2f7Izgu811tFUvvoEn/efvgt5KWCDIPvLXkPpmC+AEzxiBgVwae1X+RzumS7Dn71MK2Nq3tAyQ9U5L1ydY9Ahc0oK3UWqW99PM/NdN9gkyd1OMatb3kgXpkA4I4AjPSElhd0kslvat3I97nJH27t1LX+ZIukXRV/6qBvYDH/tkVBPvM/mb72L6flfTOfhu2RgEbBLYi+bvH61Hje9T97R6SCCcR3nzcBUVYgwAEIFCFwGEUAO7x2jthpex/myqia3iflOOp05a7oBrmS/MQgEAhBH5HAeAer+skmajH2HsivDdvNu6C8nYA/UMAAvEJrEjyd4/V3skqdf9nB5B96jGN2p67qAL4ABMgAIHgBJ5PAeAeq0dNLtH3vy6A5r0ZuYsqgA8wAQIQCE5gewoA91jtnaxS939vAM2nHtOo7bmLKoAPMAECEAhO4HUUAO6xetTkEn3/RwJo3puRu6gC+AATIACB4AS2owBwj9XeySp1/3cG0HzqMY3anruoAvgAEyAAgeAENqMAcI/VoyaX6PtfFkDz3ozcRRXAB5gAAQgEJzCv9173hykC3OO1d8JK2f/JATSfcjx12nIXVAAfYAIEIJABgfMoANzjdZ0kE/UYe2uo9+bNxl1Q3g6gfwhAIA8CH6QAcI/X3gkrVf/zJa0bQPapxlO3HXdBBfABJkAAAhkQWIOvAdzjdd1EE+24HwTRuzcXd0EF8QNmQAACGRA4hqsA7jHbO2ml6P8VQbSeYizjtOEupiB+wAwIQCADAmv1Xgl9D0WAe9weJ+l4H3tWIJ17s3AXUiBfYAoEIJABAXvFtHfgpP88fWCvHl8/kMa9deQ+kQL5AlMgAIFMCBxBEeAeu72T16j9PyrpVcH0PeoYUu/vLqJg/sAcCEAgAwJLSDqTIsA9fqdOSE2195gku3IUbWtqvFXbdRdQNIdgDwQgkAeBxSUdShHgHsOrJhuv/eyeEXuXRMTNi8lEv+7iiegUbIIABPIhsLekuygE3GP5RFKJ9P/lkjYPLGVvVu6iCewbTIMABDIhsJKkz0l6iELAPaZ7JzXr/4+9onB/SfZVUeTNm5W7WCI7B9sgAIG8CKwu6UBJ51AMuMf2tpPbbZJOkrSzpLmZyLZtRoP9uYskEz+FN3PV3k1Rz5e0q6T3Svq4pMMkHS3pxP7EsMnBv2oMTuizM4bG0pgaW2O8Sng1YKARmNPT+yaStpX0hn5isOTAv3IYvFbSiyWtnankBxNy279TAGQonPUkvU3SUZIukHQ3lz1b1/GfJZ3fKwaOlLSnJPMJGwQgAIFRCLSd8Af7az1wTjFgFFod3dcua76lV+V+SdI1JHt3zQ5qeOL3qyV9UdLfSjKfsUEAAhCYicBE7PD63z2YzgSny39bTtLuks6WZG+u8hII/dZn/zNJ+/W+irEb1NggAAEIDBLwjq/uiWUQSJd/t+ead+h/T/8ASd9dm6kmp/nyfyS9RpL5mA0CEICAEUgVY+q2428AOnj8ZiU72/9dAEHUFRLHVZvM1/avCiyJ7iEAgc4T8I6bFACOEly6nwxuJPG767DtiXhzT3cHS1rWUX90DQEI+BJoO+4M9uceeH3x+/Rui1PYs8r23OqgQ/i9W0xu6T3F8X6+GvCZiPQKAWcC3vHePQE582+9+xdJupTE764774k32P8V/efVWxckHUIAAm4EBuNA27+7B2I38i13vGJ/YRnu6O/WGf4oE9q0cZyklVvWJt1BAAI+BEaJD03sSwHQgt/tBr87Oet311oTE6iJNu/o3RD65hZ0SRcQgIAvgSbixyhtugdlX/zN9j6P15W662uUyRBtX7sasFSzEqV1CEDAkYB3zHEP0I7sG+36qb13UF/CWb+7vrwn2Lj9/1rSZo0qlcYhAAEvAuPGh3GPdw/QXuCb7NeW7b2X5O+urXEnR5Tj75G0W5OCpW0IQMCFgHeMcQ/SLtQb7PQglu5115T3pGqif7tB0NYNYIMABMoh0ESsGKVN92BdiisXkfRpzvrd9TSK+HPc9z8lLVrKpGEcEOg4Ae8Y5B6wS/C/vXf8KyR/dy15T6a2+j9F0twSJg5jgEDHCbQVM4b14x60c/e/3el/JsnfXUfDBF7q56Y5ioDcowf2d52Ad3xyD9w5C2AxSSeT/N015D2JvPr/JksI5xw+sB0C7rHT34BMRWDf+X+e5O+uH6/kG6XfozOdP5gNAQj4r4rqHsBzFcE/kfzdtRMlCXvbwdMBuUYR7O46Ae/Y4R7EcxTA35H83XXjPXGi9f/OHCcSNkOg4wS844h7IM/N/8+V9BAFgLtuvCdOtP4flrRVbpMJeyHQcQLeccQ9kOfk/+UlXUPyd9eM96SJ2v91kuytk2wQgEAeBLxjiXswz8NNkt309w2Sv7tevCdM9P5P01+0msu8wk4IdJmAdzxxD+i5OP9Akr+7VrwnSy7975fLpMJOCHScgHdMcQ/qOfh/c0n2Hau3s+gfH1TRgN2jskkOEwsbIdBxAlXmc5P7uCe16P63S/8/JPm766TJSVBi2+fwVUD00IJ9EHCPq/4GBBfBW0n+7hopMUG3MaY3B59bmAeBrhNoIw7M1Id7cI8sALvr/2YKAHeNzCRg/jb8a5GbJD058gTDNgh0nIB3/HIP7pH9fyTJ310f3hMk9/4PjTzBsA0CHSfgHV/cA3xU/28s6VEKAHd9eE+Q3Pt/RNIGUScZdkGg4wS844t7gI/q/2MyTf7zJV0h6euS/k3S/pLeIWln/o3EwJgZO2N4qqTfSjK23hO2Tv//FXWSYRcEOk6gznxOeYx7QIvo/3Uze+zvz5K+1E/wT4kItBCbjO0ukqw4vDujYsAeC1yrEB8wDAiURCBlMq/TFgXANGo6PJPg/gtJdqf3ktOMgY+aJbCUpLdIujgTrfxHszhoHQIQqEGgTtJOeQwFwIDTVpP0QPCgbklne57zHvCcz6+2TsRrJP0quGbul7SqDyJ6hQAEhhBImczrtEUBMOCYQwIHcrvs/D5Jiw/YzK/+BMwnB/T+3RNYPwf7Y8ICCEBgEoE6STvlMRQAk5xhZ3NXBQ3gdrl/w0m28mNMAhtJ+mVQDdmbLE3jbBCAQAwCKZN5nbYoACbp4EVBA7fddDZvkp38GJuA+erYoFraOjY6rINApwjUSdopj6EAmCS3LwQM2raQC2dtk5yUyY/mM7vknnKypmjrqEz4YSYEukAgxZwepw33ABXFyXYnvT1ONw7M1Md+PAoc7KhNINo9JXdwNam2LzkQAqkJpM4Zo7bnnvBSA63bni2UMyq8Jvc/ou5AOC4cATvrblIro7b9+nCEMAgC3SQw6txNvb97YIridlstLTXcuu19X9JiUcBgx9gEzJeRXinN1wBju5QGIJCEQN0ckeo496SXhGKCRqLc/W9vH1w9wXhoIhaBVST9KUiRacsas0EAAv4EUiXyuu1QAPSWdl0nSGA2J+7kr0ksaIiAXXqvO1FTH7dmQ2OkWQhAoDqB1PN61PbcA1J1VM3tuWeQwHxGc0Ok5SAEvh1Ea7sH4YEZEOgygVETdur9KQAkHRcgKNtrW/+qyzOhI2O3hYIivGb6vzvCm2FCIDKB1Al91PYoAIKs/nd8ZJViW1ICJwQoOH+XdEQ0BgEI1CEwasJOvX/nC4AnBXjPu71nftM66uGYLAlsFqAAeEzS0lnSw2gIlEMgdUIftb3OFwAvDBCMzy9Hz4ykIoGfBNDd8yraym4QgEAzBEZN2Kn373wB8LYAgfidzWiLVgMTeHcA3e0RmA+mQaALBFIn9FHb63wB4L1Uq13+t2fE2bpFYLUAXz19rFvIGS0EwhEYNWGn3r/zBYD3EwCXhpMkBrVF4NfOVwHsLZNsEICAH4HUCX3U9jpfAHzPOQgf5qc9enYmYO97GHXCptz/LOfxN939XEmbS9pWkr3rg3/lMdhR0kv6i7nl+NbUlPO5TluuAcgM9t4udg7CfP/vrQC//r3vA/i539Ab69lWODyol/TPk/Sw89yuE5A5pn5RfHuv4PuapF0zeuOlt787XwDc6BwkrHpl6yaBlzlr77qCsNty3seS9N3juXdCm+j/JkkHSpoTXOMT9nr97y4Yb//c6RyE1/UGQP9uBNZ31t4dbiNP17Fd9t1P0n3OLL0COP3OfMXgCklbpJNb8pa8/df5AuB+58CxQnJJ0WAuBFZy1p4lzZy3eZJOcWboHcDpf+YCwPjcK8lexBVx8/Zf5wsA73XZo1+iijhpSrHJblLzDACm/Vw3S/7fd+bn6Tv6Hm3u2OPW+wQUu7cfXQOQDd57c3eANwD6dyWA/kbHb5f9OfMfLQF66yxC//bCtZePLrdGj/DmQgHgfBbRqLpoPDwB9wAQntBUA/d3nrPePqP/+sWP3feywVRJuX3i7UsKAOdg4qY8Og5BwD0AhKBQ3Yi1+9/penOj//pJ2JvdqdXl1vie3iwoACgAGhc5HQwn4B4AhpsW8i/2qJ83M/rP3wf2ErgIm7eW3CeTtxPcHeANgP5dCaC/6vhtkR8W98k/+Xpr3vr/QXXZNbqnNwsKAOczikbVRePhCbgHgPCEnjDQVvjz5kX/ZfjAngpY7wlpuf3krSf3CeVGvt+xuwO8AdC/KwH0Vx3/+RQA7vHaW68p+9+3uvQa2zPleOq05S6oxshWbLgOtJTHVDST3QolkFJLddrKBas998/l/zLOvuvotIljTg4g/ibGNUqbFADOZxUBNIgJjgRGmaxN7Os49JG63sx5njbBnjZ9C5rLRlJgMzt7a4ACwDmwNCMrWs2FgHsAyATUK5znqbef6D99sWDvgfHevP3a+QLAbgbxcoL1zdZtAuivmv9f5zhPveID/TYbm21lQO/N28duyW9i4N4O8HyLmL2kgq3bBNBfNf9vTwHgHqsnYnYp/0eIv94s3UVVbfo3t9f1joHl2uaGRcuZEEB/1Rz1fMd56h2k6b+ZKwER4q+3bztfAHzPMbCcVS32sVfBBNBfNefaa7O9gyX9l+WDCPHXW1Puk6ra9G9ur392DCyHNDcsWs6EAPqr7qgrHeeqd6Cm//TFR4T46+3XzhcAL3YMKltXj33sWSgB9Ffdsf/pOFe9AzX9py8AIsRfb792vgBYVNJ1DoHlGkn2XnO2bhNAf9X9z30A6ZOgdwLy6j9K/PUa/0S/nS8ALPwc6FAA2DvN2SBgBNBfdR2wHDBFwETyGuf/KPF3nDGkOJYCQNIykm5ssQiwO7+Xqh7z2LNwAuivuoO3a3GepgiwtBGvYIkUf731QQHQjz2vbymw2MIvO1aPd+zZEQLor7qjT2xprnoHZ/pPXzxEi7/ePqYAmBR3PtlCYLG7vtkgMB0B9Dcdlamf2RWTS1qYq97Bmf7TFwDR4q+3jykAJsUXuyHrWw0Glu9IWmxSf/wIgckE0N9kGjP/vI6kmxucq96Bmf7TJ/+I8dfbzxQAA3FmrqRjGwgsX5G05EBf/AqBQQLob5DI8N83lPSbBuaqd1Cm//TJP2r89fY1BcA08cUez/uQpMcSBJdHJR00TR98BIFhBNDfMDJTP19e0tkJ5ql3IKb/9EnfmEaPv95+pwCYGlMWfPJ0SWeMEVwukPScBa3xAwRGI4D+qvGyr052k3T1GHPVOxDTf/oCIIf46+13CoAKMealkk7pnck/UCHA2D4nS9q2QrvsAoEqBNBfFUrSnN59AftIuqjCPPUOvPSfPuEb09zir7cOKACqxZbH97Jn9y2x28Ith0v6cv/fYZIOkPQyvucfgSa7jkoA/VUntpqkXXq7HyzpaEkn8a9IBhaDc46/FADV5zR7QgACEIAABIohQAFQjCsZCAQgAAEIQKA6AQqA6qzYEwIQgAAEIFAMAQqAYlzJQCAAAQhAAALVCVAAVGfFnhCAAAQgAIFiCLgXALZQgqcR9ugOGwQgAAEIQKBLBGzVT8/ca7lf9zsbsUKXPM5YIQABCEAAAr3HF1dyzr33mRfudDZiXaQAAQhAAAIQ6BiB9Z1z7x3G+wZnI17SMaczXAhAAAIQgIAtHOf5FcC15oJfOhvxTnQAAQhAAAIQ6BiBdzvn3p8Z7+85G2HLOLJBAAIQgAAEukTgCOfce5bBPs7ZiMu65HHGCgEIQAACEJD0G+fce4x54ePORsyXtCpygAAEIAABCHSEwOrOedfuPfiYsd4zgCH2Ck82CEAAAhCAQBcIvCdA3t3dQG8VwJALuuBxxggBCEAAAhCQdGGAvLuleeJJkuwyvOfjCNb3ZsgCAhCAAAQgUDiBzQPk28ckLT3B+fcBDPryhDH8DwEIQAACECiUwIkB8u2Vk9keG8AgW5d4w8lG8TMEIAABCECgIAIbS/J+/45dcX/8CYAJrm8NUACYUWdOGMT/EIAABCAAgcIInB4k175lMte1gxhlRcDrJxvGzxCAAAQgAIECCLwhUJ5dY5BnhPsArAC4WZI9I8kGAQhAAAIQKIGArXXzpyAFwBXTAf18EOOsCPihpMWmM5LPIAABCEAAAhkRWFzSjwLl1yOnYxfp8oQVAUdNZySfQQACEIAABDIhsEjvinakk2vLrTtNx25JSXcFqlLM0EOmM5TPIAABCEAAAhkQ+ESwnHqHpLnDuP1XMGOtCDi0VwgsOsxgPocABCAAAQgEI2Bn/gcHzKfTXv6fYLdNQIOtCLB1CuZNGMn/EIAABCAAgaAE7Gr68UFz6QtmYmZVy1VBDb9c0qYzGc/fIAABCEAAAo4ENup9x35x0BxqT/pZjp9x8349sJ3xD/t3j6QDJC0x4wj4IwQgAAEIQKA9ApaTPiDp3hny17C81tbnj7/+dzYk9rzi/YEHYbB+JWmHKtXMbIPl7xCAAAQgAIGaBOyMekdJlwXPmfdJWqXqGA8LPpiJiskutdiShktVHRj7QQACEIAABMYkYG/S213SJZnkSruZvvJmSwM/nMnArBi4u3+j4BslrVx5lOwIAQhAAAIQqEbAzqDfJOm43lfR9nX0xIlo9P8flLRmtSE+sdcXMxrgZAfMl2SvOvxm78rAp3rFwfsl7S1pZ/7BAA2gATSABipowHKG5Q7LIZZLLKdYbpmca3L5+egn0nr1n+zVvBFeW5gLZOzMc3LgN/yGBtBAqRp4pHd1fL3qaX/hPXO5F6BU5zEuAhMaQANoAA3U1cBnF07po/22bO/y+R8zvexRFxjHMdnQABpAA2ggdw3Y2weXGy3lT93b7nTMHQT240M0gAbQABrokgZ2nZrOR//EnnP8AUUARRAaQANoAA2ggSw08L8p18mxJXgfwvFZOL5LFS5j5YwODaABNLCwBuyxv6eOfq4/8xHvowCgAEADaAANoAE0EFoD75k5ldf7q30V8HUcH9rxVMILV8LwgAcaQANd0sAp9dJ7taOe3Fv+8GqKAIoANIAG0AAaQAOhNHCtpBWqpfL6e23J/QChnN6l6paxcjaHBtAAGpiqAVu6//n10/poR76Lyo8iAA2gATSABtBACA28fbQUPv7eB+P4EI6nGp5aDcMEJmgADXRFAx8ZP53Xa8FeMdgVyIwTX6MBNIAG0EAkDRxZL3WnOWpRSSdRBFAEoQE0gAbQABpoVQPfkLRYmlRev5W5vZsPzsTxrTo+UgWKLZwRoQE0gAba1cAZkiz3htjmSDqBIoAiAA2gATSABtBAoxr4sqQlQmT+SUbYQkH/juMbdTxVdrtVNrzhjQbQQCQN2H139tV72G0/SfMpBCgE0AAaQANoAA0k0YDlVHvyLovtTZLuwfFJHB+p+sQWzobQABpAA+1q4G5Jb8wi808yciNJF1MEUASgATSABtAAGqilgcsl2dt4s9zmSWKtgHarRapzeKMBNIAG8tfAcZKWyjLzDxi9m6TbqQBrVYBM5PwnMj7Eh2gADVTVwG05XvIfyPlTfrW3FNnVgMcoBCgE0AAaQANoAA0spAG70c/O+p8yJXsW9MFzJP0Uxy/k+KqVIftxFoEG0AAaKE8Ddr/cCwrK8zMOZXFJ9rjgzRQCFAJoAA2gATTQUQ3cJOk9EZb0nTFjN/RHW8pwb0k3dNT5VPLlVfL4FJ+iATQwmwYs8R9Uyk1+49YHtpTw7pKupBDgTAANoAE0gAYK1cA1/avf9oQc2wAB+2pge0lfkXR/oQKYrTLk75w9oAE0gAbK0YDlshMlvbqrl/oH8nylX5ftXxU4m6WFORugGEQDaAANZKQBe9rtvP7Z/oqVMh47DSWwsqSdJR3d+99WRqI6hgEaQANoAA1E0sBV/cf47L62NYdmM/4wNoF1JL1V0hGSzpV0F0UBRREaQANoAA20pIE7JZ3Te2b/cEl7SFp77KxGA2MRsMUTntu/UmCPVXxM0n/0rxocL+kk/sEADaABNIAGKmjAcoZdcbYcYrnEcopdhd6y9IV6xsrCHAwBCEAAAhCAAAQgAAEIQAACEIAABCAAAQhAAAIQgAAEIAABCEAAAhCAAAQgAAEIQAACEIAABCAAAQhAAAIQgAAEIAABCEAAAhCAAAQgAAEIQAACEIAABCAAAQhAAAIQgAAEIAABCEAAAhCAAAQgAAEIQAACEIAABCAAAQhAAAIQgAAEIAABCEAAAhCAAAQgAAEIQAACEIAABCAAAQhAAAIQgAAEIAABCEAAAhCAAAQgAAEIQAACELakDU4AAAEaSURBVIAABCAAAQhAAAIQgAAEIAABCEAAAhCAAAQgAAEIQAACEIAABCAAAQhAAAIQgAAEIAABCEAAAhCAAAQgAAEIQAACEIAABCAAAQhAAAIQgAAEIAABCEAAAhCAAAQgAAEIQAACEIAABCAAAQhAAAIQgAAEIAABCEAAAhCAAAQgAAEIQAACEIAABCAAAQhAAAIQgAAEIAABCEAAAhCAAAQgAAEIQAACEIAABCAAAQhAAAIQgAAEIAABCEAAAhCAAAQgAAEIQAACEIAABCAAAQhAAAIQgAAEIAABCEAAAhCAAAQgAAEIQAACEIAABCAAAQhAAAIQgAAEIAABCEAAAhCAAAQgAAEIQAACEIAABCAAAQhAAAJjEvj/LQMl1VczMZIAAAAASUVORK5CYII=;" vertex="1" parent="1">
                    <mxGeometry x="1682" y="596.37" width="128.63" height="128.63" as="geometry"/>
                </mxCell>
            </root>
        </mxGraphModel>
    </diagram>
</mxfile>